%TF.GenerationSoftware,KiCad,Pcbnew,(6.0.9-0)*%
%TF.CreationDate,2023-04-08T13:53:11+09:00*%
%TF.ProjectId,keypad,6b657970-6164-42e6-9b69-6361645f7063,1*%
%TF.SameCoordinates,Original*%
%TF.FileFunction,Legend,Bot*%
%TF.FilePolarity,Positive*%
%FSLAX46Y46*%
G04 Gerber Fmt 4.6, Leading zero omitted, Abs format (unit mm)*
G04 Created by KiCad (PCBNEW (6.0.9-0)) date 2023-04-08 13:53:11*
%MOMM*%
%LPD*%
G01*
G04 APERTURE LIST*
%ADD10C,0.150000*%
%ADD11C,4.000000*%
%ADD12C,1.900000*%
%ADD13O,2.500000X2.000000*%
%ADD14R,1.600000X1.600000*%
%ADD15O,1.600000X1.600000*%
%ADD16C,7.000000*%
%ADD17C,3.900000*%
%ADD18R,2.000000X2.000000*%
%ADD19C,2.000000*%
%ADD20C,2.800000*%
%ADD21C,1.524000*%
G04 APERTURE END LIST*
D10*
%TO.C,U1*%
%TD*%
%LPC*%
D11*
%TO.C,SW8*%
X181380000Y-114500000D03*
D12*
X186460000Y-114500000D03*
X176300000Y-114500000D03*
D13*
X177570000Y-111960000D03*
X183920000Y-109420000D03*
%TD*%
D14*
%TO.C,D8*%
X177380000Y-105000000D03*
D15*
X185000000Y-105000000D03*
%TD*%
D16*
%TO.C,REF\u002A\u002A*%
X109380000Y-54000000D03*
D17*
X109380000Y-54000000D03*
%TD*%
D14*
%TO.C,D9*%
X139380000Y-93810000D03*
D15*
X139380000Y-86190000D03*
%TD*%
D11*
%TO.C,SW9*%
X149380000Y-92000000D03*
D12*
X154460000Y-92000000D03*
X144300000Y-92000000D03*
D13*
X145570000Y-89460000D03*
X151920000Y-86920000D03*
%TD*%
D14*
%TO.C,D6*%
X147190000Y-124000000D03*
D15*
X139570000Y-124000000D03*
%TD*%
D12*
%TO.C,SW4*%
X186460000Y-133500000D03*
D11*
X181380000Y-133500000D03*
D12*
X176300000Y-133500000D03*
D13*
X177570000Y-130960000D03*
X183920000Y-128420000D03*
%TD*%
D11*
%TO.C,SW1*%
X124380000Y-114450000D03*
D12*
X119300000Y-114450000D03*
X129460000Y-114450000D03*
D13*
X120570000Y-111910000D03*
X126920000Y-109370000D03*
%TD*%
D18*
%TO.C,SW11*%
X177480000Y-87000000D03*
D19*
X182480000Y-87000000D03*
X179980000Y-87000000D03*
D20*
X174380000Y-79500000D03*
X185580000Y-79500000D03*
%TD*%
D11*
%TO.C,SW3*%
X162380000Y-114500000D03*
D12*
X157300000Y-114500000D03*
X167460000Y-114500000D03*
D13*
X158570000Y-111960000D03*
X164920000Y-109420000D03*
%TD*%
D16*
%TO.C,REF*%
X197380000Y-54000000D03*
D17*
X197380000Y-54000000D03*
%TD*%
D14*
%TO.C,D2*%
X147190000Y-105000000D03*
D15*
X139570000Y-105000000D03*
%TD*%
D12*
%TO.C,SW2*%
X148460000Y-114450000D03*
X138300000Y-114450000D03*
D11*
X143380000Y-114450000D03*
D13*
X139570000Y-111910000D03*
X145920000Y-109370000D03*
%TD*%
D12*
%TO.C,SW6*%
X138300000Y-133500000D03*
D11*
X143380000Y-133500000D03*
D12*
X148460000Y-133500000D03*
D13*
X139570000Y-130960000D03*
X145920000Y-128420000D03*
%TD*%
D19*
%TO.C,SW12*%
X138880000Y-60500000D03*
X138880000Y-54000000D03*
X134380000Y-60500000D03*
X134380000Y-54000000D03*
%TD*%
D14*
%TO.C,D7*%
X166500000Y-124000000D03*
D15*
X158880000Y-124000000D03*
%TD*%
D14*
%TO.C,D5*%
X128190000Y-124000000D03*
D15*
X120570000Y-124000000D03*
%TD*%
D18*
%TO.C,SW10*%
X147880000Y-76000000D03*
D19*
X152880000Y-76000000D03*
X150380000Y-76000000D03*
D20*
X155980000Y-68500000D03*
X144780000Y-68500000D03*
%TD*%
D12*
%TO.C,SW5*%
X129460000Y-133500000D03*
X119300000Y-133500000D03*
D11*
X124380000Y-133500000D03*
D13*
X120570000Y-130960000D03*
X126920000Y-128420000D03*
%TD*%
D16*
%TO.C,REF\u002A\u002A*%
X197380000Y-142000000D03*
D17*
X197380000Y-142000000D03*
%TD*%
D16*
%TO.C,REF\u002A\u002A*%
X109380000Y-142000000D03*
D17*
X109380000Y-142000000D03*
%TD*%
D14*
%TO.C,D3*%
X158570000Y-105000000D03*
D15*
X166190000Y-105000000D03*
%TD*%
D14*
%TO.C,D1*%
X128190000Y-105000000D03*
D15*
X120570000Y-105000000D03*
%TD*%
D14*
%TO.C,D4*%
X177570000Y-124000000D03*
D15*
X185190000Y-124000000D03*
%TD*%
D11*
%TO.C,SW7*%
X162380000Y-133500000D03*
D12*
X157300000Y-133500000D03*
X167460000Y-133500000D03*
D13*
X158570000Y-130960000D03*
X164920000Y-128420000D03*
%TD*%
D21*
%TO.C,U1*%
X114771400Y-64022000D03*
X114771400Y-66562000D03*
X114771400Y-69102000D03*
X114771400Y-71642000D03*
X114771400Y-74182000D03*
X114771400Y-76722000D03*
X114771400Y-79262000D03*
X114771400Y-81802000D03*
X114771400Y-84342000D03*
X114771400Y-86882000D03*
X114771400Y-89422000D03*
X114771400Y-91962000D03*
X129991400Y-91962000D03*
X129991400Y-89422000D03*
X129991400Y-86882000D03*
X129991400Y-84342000D03*
X129991400Y-81802000D03*
X129991400Y-79262000D03*
X129991400Y-76722000D03*
X129991400Y-74182000D03*
X129991400Y-71642000D03*
X129991400Y-69102000D03*
X129991400Y-66562000D03*
X129991400Y-64022000D03*
%TD*%
M02*
