%TF.GenerationSoftware,KiCad,Pcbnew,(6.0.9-0)*%
%TF.CreationDate,2023-04-08T13:57:58+09:00*%
%TF.ProjectId,keypad,6b657970-6164-42e6-9b69-6361645f7063,1*%
%TF.SameCoordinates,Original*%
%TF.FileFunction,Drillmap*%
%TF.FilePolarity,Positive*%
%FSLAX45Y45*%
G04 Gerber Fmt 4.5, Leading zero omitted, Abs format (unit mm)*
G04 Created by KiCad (PCBNEW (6.0.9-0)) date 2023-04-08 13:57:58*
%MOMM*%
%LPD*%
G01*
G04 APERTURE LIST*
%ADD10C,0.100000*%
%ADD11C,0.200000*%
%ADD12C,0.190000*%
%ADD13C,0.400000*%
G04 APERTURE END LIST*
D10*
X10338000Y-4800000D02*
X20338000Y-4800000D01*
X20338000Y-4800000D02*
X20338000Y-14800000D01*
X20338000Y-14800000D02*
X10338000Y-14800000D01*
X10338000Y-14800000D02*
X10338000Y-4800000D01*
D11*
D12*
X11835000Y-11350000D02*
X12025000Y-11540000D01*
X12025000Y-11350000D02*
X11835000Y-11540000D01*
X11835000Y-13255000D02*
X12025000Y-13445000D01*
X12025000Y-13255000D02*
X11835000Y-13445000D01*
X12851000Y-11350000D02*
X13041000Y-11540000D01*
X13041000Y-11350000D02*
X12851000Y-11540000D01*
X12851000Y-13255000D02*
X13041000Y-13445000D01*
X13041000Y-13255000D02*
X12851000Y-13445000D01*
X13735000Y-11350000D02*
X13925000Y-11540000D01*
X13925000Y-11350000D02*
X13735000Y-11540000D01*
X13735000Y-13255000D02*
X13925000Y-13445000D01*
X13925000Y-13255000D02*
X13735000Y-13445000D01*
X14335000Y-9105000D02*
X14525000Y-9295000D01*
X14525000Y-9105000D02*
X14335000Y-9295000D01*
X14751000Y-11350000D02*
X14941000Y-11540000D01*
X14941000Y-11350000D02*
X14751000Y-11540000D01*
X14751000Y-13255000D02*
X14941000Y-13445000D01*
X14941000Y-13255000D02*
X14751000Y-13445000D01*
X15351000Y-9105000D02*
X15541000Y-9295000D01*
X15541000Y-9105000D02*
X15351000Y-9295000D01*
X15635000Y-11355000D02*
X15825000Y-11545000D01*
X15825000Y-11355000D02*
X15635000Y-11545000D01*
X15635000Y-13255000D02*
X15825000Y-13445000D01*
X15825000Y-13255000D02*
X15635000Y-13445000D01*
X16651000Y-11355000D02*
X16841000Y-11545000D01*
X16841000Y-11355000D02*
X16651000Y-11545000D01*
X16651000Y-13255000D02*
X16841000Y-13445000D01*
X16841000Y-13255000D02*
X16651000Y-13445000D01*
X17535000Y-11355000D02*
X17725000Y-11545000D01*
X17725000Y-11355000D02*
X17535000Y-11545000D01*
X17535000Y-13255000D02*
X17725000Y-13445000D01*
X17725000Y-13255000D02*
X17535000Y-13445000D01*
X18551000Y-11355000D02*
X18741000Y-11545000D01*
X18741000Y-11355000D02*
X18551000Y-11545000D01*
X18551000Y-13255000D02*
X18741000Y-13445000D01*
X18741000Y-13255000D02*
X18551000Y-13445000D01*
D13*
X12638000Y-11445000D02*
G75*
G03*
X12638000Y-11445000I-200000J0D01*
G01*
X12638000Y-13350000D02*
G75*
G03*
X12638000Y-13350000I-200000J0D01*
G01*
X14538000Y-11445000D02*
G75*
G03*
X14538000Y-11445000I-200000J0D01*
G01*
X14538000Y-13350000D02*
G75*
G03*
X14538000Y-13350000I-200000J0D01*
G01*
X15138000Y-9200000D02*
G75*
G03*
X15138000Y-9200000I-200000J0D01*
G01*
X16438000Y-11450000D02*
G75*
G03*
X16438000Y-11450000I-200000J0D01*
G01*
X16438000Y-13350000D02*
G75*
G03*
X16438000Y-13350000I-200000J0D01*
G01*
X18338000Y-11450000D02*
G75*
G03*
X18338000Y-11450000I-200000J0D01*
G01*
X18338000Y-13350000D02*
G75*
G03*
X18338000Y-13350000I-200000J0D01*
G01*
D11*
X10590619Y-15115476D02*
X10590619Y-14915476D01*
X10638238Y-14915476D01*
X10666810Y-14925000D01*
X10685857Y-14944048D01*
X10695381Y-14963095D01*
X10704905Y-15001190D01*
X10704905Y-15029762D01*
X10695381Y-15067857D01*
X10685857Y-15086905D01*
X10666810Y-15105952D01*
X10638238Y-15115476D01*
X10590619Y-15115476D01*
X10790619Y-15115476D02*
X10790619Y-14982143D01*
X10790619Y-15020238D02*
X10800143Y-15001190D01*
X10809667Y-14991667D01*
X10828714Y-14982143D01*
X10847762Y-14982143D01*
X10914429Y-15115476D02*
X10914429Y-14982143D01*
X10914429Y-14915476D02*
X10904905Y-14925000D01*
X10914429Y-14934524D01*
X10923952Y-14925000D01*
X10914429Y-14915476D01*
X10914429Y-14934524D01*
X11038238Y-15115476D02*
X11019190Y-15105952D01*
X11009667Y-15086905D01*
X11009667Y-14915476D01*
X11143000Y-15115476D02*
X11123952Y-15105952D01*
X11114429Y-15086905D01*
X11114429Y-14915476D01*
X11371571Y-15115476D02*
X11371571Y-14915476D01*
X11438238Y-15058333D01*
X11504905Y-14915476D01*
X11504905Y-15115476D01*
X11685857Y-15115476D02*
X11685857Y-15010714D01*
X11676333Y-14991667D01*
X11657286Y-14982143D01*
X11619190Y-14982143D01*
X11600143Y-14991667D01*
X11685857Y-15105952D02*
X11666809Y-15115476D01*
X11619190Y-15115476D01*
X11600143Y-15105952D01*
X11590619Y-15086905D01*
X11590619Y-15067857D01*
X11600143Y-15048809D01*
X11619190Y-15039286D01*
X11666809Y-15039286D01*
X11685857Y-15029762D01*
X11781095Y-14982143D02*
X11781095Y-15182143D01*
X11781095Y-14991667D02*
X11800143Y-14982143D01*
X11838238Y-14982143D01*
X11857286Y-14991667D01*
X11866809Y-15001190D01*
X11876333Y-15020238D01*
X11876333Y-15077381D01*
X11866809Y-15096428D01*
X11857286Y-15105952D01*
X11838238Y-15115476D01*
X11800143Y-15115476D01*
X11781095Y-15105952D01*
X11962048Y-15096428D02*
X11971571Y-15105952D01*
X11962048Y-15115476D01*
X11952524Y-15105952D01*
X11962048Y-15096428D01*
X11962048Y-15115476D01*
X11962048Y-14991667D02*
X11971571Y-15001190D01*
X11962048Y-15010714D01*
X11952524Y-15001190D01*
X11962048Y-14991667D01*
X11962048Y-15010714D01*
D12*
X10143000Y-15350000D02*
X10333000Y-15540000D01*
X10333000Y-15350000D02*
X10143000Y-15540000D01*
D11*
X10695381Y-15535476D02*
X10581095Y-15535476D01*
X10638238Y-15535476D02*
X10638238Y-15335476D01*
X10619190Y-15364048D01*
X10600143Y-15383095D01*
X10581095Y-15392619D01*
X10781095Y-15516428D02*
X10790619Y-15525952D01*
X10781095Y-15535476D01*
X10771571Y-15525952D01*
X10781095Y-15516428D01*
X10781095Y-15535476D01*
X10885857Y-15535476D02*
X10923952Y-15535476D01*
X10943000Y-15525952D01*
X10952524Y-15516428D01*
X10971571Y-15487857D01*
X10981095Y-15449762D01*
X10981095Y-15373571D01*
X10971571Y-15354524D01*
X10962048Y-15345000D01*
X10943000Y-15335476D01*
X10904905Y-15335476D01*
X10885857Y-15345000D01*
X10876333Y-15354524D01*
X10866810Y-15373571D01*
X10866810Y-15421190D01*
X10876333Y-15440238D01*
X10885857Y-15449762D01*
X10904905Y-15459286D01*
X10943000Y-15459286D01*
X10962048Y-15449762D01*
X10971571Y-15440238D01*
X10981095Y-15421190D01*
X11104905Y-15335476D02*
X11123952Y-15335476D01*
X11143000Y-15345000D01*
X11152524Y-15354524D01*
X11162048Y-15373571D01*
X11171571Y-15411667D01*
X11171571Y-15459286D01*
X11162048Y-15497381D01*
X11152524Y-15516428D01*
X11143000Y-15525952D01*
X11123952Y-15535476D01*
X11104905Y-15535476D01*
X11085857Y-15525952D01*
X11076333Y-15516428D01*
X11066810Y-15497381D01*
X11057286Y-15459286D01*
X11057286Y-15411667D01*
X11066810Y-15373571D01*
X11076333Y-15354524D01*
X11085857Y-15345000D01*
X11104905Y-15335476D01*
X11295381Y-15335476D02*
X11314428Y-15335476D01*
X11333476Y-15345000D01*
X11343000Y-15354524D01*
X11352524Y-15373571D01*
X11362048Y-15411667D01*
X11362048Y-15459286D01*
X11352524Y-15497381D01*
X11343000Y-15516428D01*
X11333476Y-15525952D01*
X11314428Y-15535476D01*
X11295381Y-15535476D01*
X11276333Y-15525952D01*
X11266809Y-15516428D01*
X11257286Y-15497381D01*
X11247762Y-15459286D01*
X11247762Y-15411667D01*
X11257286Y-15373571D01*
X11266809Y-15354524D01*
X11276333Y-15345000D01*
X11295381Y-15335476D01*
X11447762Y-15535476D02*
X11447762Y-15402143D01*
X11447762Y-15421190D02*
X11457286Y-15411667D01*
X11476333Y-15402143D01*
X11504905Y-15402143D01*
X11523952Y-15411667D01*
X11533476Y-15430714D01*
X11533476Y-15535476D01*
X11533476Y-15430714D02*
X11543000Y-15411667D01*
X11562048Y-15402143D01*
X11590619Y-15402143D01*
X11609667Y-15411667D01*
X11619190Y-15430714D01*
X11619190Y-15535476D01*
X11714428Y-15535476D02*
X11714428Y-15402143D01*
X11714428Y-15421190D02*
X11723952Y-15411667D01*
X11743000Y-15402143D01*
X11771571Y-15402143D01*
X11790619Y-15411667D01*
X11800143Y-15430714D01*
X11800143Y-15535476D01*
X11800143Y-15430714D02*
X11809667Y-15411667D01*
X11828714Y-15402143D01*
X11857286Y-15402143D01*
X11876333Y-15411667D01*
X11885857Y-15430714D01*
X11885857Y-15535476D01*
X12276333Y-15325952D02*
X12104905Y-15583095D01*
X12533476Y-15335476D02*
X12552524Y-15335476D01*
X12571571Y-15345000D01*
X12581095Y-15354524D01*
X12590619Y-15373571D01*
X12600143Y-15411667D01*
X12600143Y-15459286D01*
X12590619Y-15497381D01*
X12581095Y-15516428D01*
X12571571Y-15525952D01*
X12552524Y-15535476D01*
X12533476Y-15535476D01*
X12514428Y-15525952D01*
X12504905Y-15516428D01*
X12495381Y-15497381D01*
X12485857Y-15459286D01*
X12485857Y-15411667D01*
X12495381Y-15373571D01*
X12504905Y-15354524D01*
X12514428Y-15345000D01*
X12533476Y-15335476D01*
X12685857Y-15516428D02*
X12695381Y-15525952D01*
X12685857Y-15535476D01*
X12676333Y-15525952D01*
X12685857Y-15516428D01*
X12685857Y-15535476D01*
X12819190Y-15335476D02*
X12838238Y-15335476D01*
X12857286Y-15345000D01*
X12866809Y-15354524D01*
X12876333Y-15373571D01*
X12885857Y-15411667D01*
X12885857Y-15459286D01*
X12876333Y-15497381D01*
X12866809Y-15516428D01*
X12857286Y-15525952D01*
X12838238Y-15535476D01*
X12819190Y-15535476D01*
X12800143Y-15525952D01*
X12790619Y-15516428D01*
X12781095Y-15497381D01*
X12771571Y-15459286D01*
X12771571Y-15411667D01*
X12781095Y-15373571D01*
X12790619Y-15354524D01*
X12800143Y-15345000D01*
X12819190Y-15335476D01*
X12952524Y-15335476D02*
X13085857Y-15335476D01*
X13000143Y-15535476D01*
X13247762Y-15402143D02*
X13247762Y-15535476D01*
X13200143Y-15325952D02*
X13152524Y-15468809D01*
X13276333Y-15468809D01*
X13381095Y-15421190D02*
X13362048Y-15411667D01*
X13352524Y-15402143D01*
X13343000Y-15383095D01*
X13343000Y-15373571D01*
X13352524Y-15354524D01*
X13362048Y-15345000D01*
X13381095Y-15335476D01*
X13419190Y-15335476D01*
X13438238Y-15345000D01*
X13447762Y-15354524D01*
X13457286Y-15373571D01*
X13457286Y-15383095D01*
X13447762Y-15402143D01*
X13438238Y-15411667D01*
X13419190Y-15421190D01*
X13381095Y-15421190D01*
X13362048Y-15430714D01*
X13352524Y-15440238D01*
X13343000Y-15459286D01*
X13343000Y-15497381D01*
X13352524Y-15516428D01*
X13362048Y-15525952D01*
X13381095Y-15535476D01*
X13419190Y-15535476D01*
X13438238Y-15525952D01*
X13447762Y-15516428D01*
X13457286Y-15497381D01*
X13457286Y-15459286D01*
X13447762Y-15440238D01*
X13438238Y-15430714D01*
X13419190Y-15421190D01*
X13533476Y-15335476D02*
X13533476Y-15373571D01*
X13609667Y-15335476D02*
X13609667Y-15373571D01*
X13904905Y-15611667D02*
X13895381Y-15602143D01*
X13876333Y-15573571D01*
X13866809Y-15554524D01*
X13857286Y-15525952D01*
X13847762Y-15478333D01*
X13847762Y-15440238D01*
X13857286Y-15392619D01*
X13866809Y-15364048D01*
X13876333Y-15345000D01*
X13895381Y-15316428D01*
X13904905Y-15306905D01*
X14085857Y-15535476D02*
X13971571Y-15535476D01*
X14028714Y-15535476D02*
X14028714Y-15335476D01*
X14009667Y-15364048D01*
X13990619Y-15383095D01*
X13971571Y-15392619D01*
X14200143Y-15421190D02*
X14181095Y-15411667D01*
X14171571Y-15402143D01*
X14162048Y-15383095D01*
X14162048Y-15373571D01*
X14171571Y-15354524D01*
X14181095Y-15345000D01*
X14200143Y-15335476D01*
X14238238Y-15335476D01*
X14257286Y-15345000D01*
X14266809Y-15354524D01*
X14276333Y-15373571D01*
X14276333Y-15383095D01*
X14266809Y-15402143D01*
X14257286Y-15411667D01*
X14238238Y-15421190D01*
X14200143Y-15421190D01*
X14181095Y-15430714D01*
X14171571Y-15440238D01*
X14162048Y-15459286D01*
X14162048Y-15497381D01*
X14171571Y-15516428D01*
X14181095Y-15525952D01*
X14200143Y-15535476D01*
X14238238Y-15535476D01*
X14257286Y-15525952D01*
X14266809Y-15516428D01*
X14276333Y-15497381D01*
X14276333Y-15459286D01*
X14266809Y-15440238D01*
X14257286Y-15430714D01*
X14238238Y-15421190D01*
X14514428Y-15535476D02*
X14514428Y-15335476D01*
X14600143Y-15535476D02*
X14600143Y-15430714D01*
X14590619Y-15411667D01*
X14571571Y-15402143D01*
X14543000Y-15402143D01*
X14523952Y-15411667D01*
X14514428Y-15421190D01*
X14723952Y-15535476D02*
X14704905Y-15525952D01*
X14695381Y-15516428D01*
X14685857Y-15497381D01*
X14685857Y-15440238D01*
X14695381Y-15421190D01*
X14704905Y-15411667D01*
X14723952Y-15402143D01*
X14752524Y-15402143D01*
X14771571Y-15411667D01*
X14781095Y-15421190D01*
X14790619Y-15440238D01*
X14790619Y-15497381D01*
X14781095Y-15516428D01*
X14771571Y-15525952D01*
X14752524Y-15535476D01*
X14723952Y-15535476D01*
X14904905Y-15535476D02*
X14885857Y-15525952D01*
X14876333Y-15506905D01*
X14876333Y-15335476D01*
X15057286Y-15525952D02*
X15038238Y-15535476D01*
X15000143Y-15535476D01*
X14981095Y-15525952D01*
X14971571Y-15506905D01*
X14971571Y-15430714D01*
X14981095Y-15411667D01*
X15000143Y-15402143D01*
X15038238Y-15402143D01*
X15057286Y-15411667D01*
X15066809Y-15430714D01*
X15066809Y-15449762D01*
X14971571Y-15468809D01*
X15143000Y-15525952D02*
X15162048Y-15535476D01*
X15200143Y-15535476D01*
X15219190Y-15525952D01*
X15228714Y-15506905D01*
X15228714Y-15497381D01*
X15219190Y-15478333D01*
X15200143Y-15468809D01*
X15171571Y-15468809D01*
X15152524Y-15459286D01*
X15143000Y-15440238D01*
X15143000Y-15430714D01*
X15152524Y-15411667D01*
X15171571Y-15402143D01*
X15200143Y-15402143D01*
X15219190Y-15411667D01*
X15295381Y-15611667D02*
X15304905Y-15602143D01*
X15323952Y-15573571D01*
X15333476Y-15554524D01*
X15343000Y-15525952D01*
X15352524Y-15478333D01*
X15352524Y-15440238D01*
X15343000Y-15392619D01*
X15333476Y-15364048D01*
X15323952Y-15345000D01*
X15304905Y-15316428D01*
X15295381Y-15306905D01*
X15657286Y-15611667D02*
X15647762Y-15602143D01*
X15628714Y-15573571D01*
X15619190Y-15554524D01*
X15609667Y-15525952D01*
X15600143Y-15478333D01*
X15600143Y-15440238D01*
X15609667Y-15392619D01*
X15619190Y-15364048D01*
X15628714Y-15345000D01*
X15647762Y-15316428D01*
X15657286Y-15306905D01*
X15733476Y-15402143D02*
X15733476Y-15535476D01*
X15733476Y-15421190D02*
X15743000Y-15411667D01*
X15762048Y-15402143D01*
X15790619Y-15402143D01*
X15809667Y-15411667D01*
X15819190Y-15430714D01*
X15819190Y-15535476D01*
X15943000Y-15535476D02*
X15923952Y-15525952D01*
X15914428Y-15516428D01*
X15904905Y-15497381D01*
X15904905Y-15440238D01*
X15914428Y-15421190D01*
X15923952Y-15411667D01*
X15943000Y-15402143D01*
X15971571Y-15402143D01*
X15990619Y-15411667D01*
X16000143Y-15421190D01*
X16009667Y-15440238D01*
X16009667Y-15497381D01*
X16000143Y-15516428D01*
X15990619Y-15525952D01*
X15971571Y-15535476D01*
X15943000Y-15535476D01*
X16066809Y-15402143D02*
X16143000Y-15402143D01*
X16095381Y-15335476D02*
X16095381Y-15506905D01*
X16104905Y-15525952D01*
X16123952Y-15535476D01*
X16143000Y-15535476D01*
X16362048Y-15402143D02*
X16362048Y-15602143D01*
X16362048Y-15411667D02*
X16381095Y-15402143D01*
X16419190Y-15402143D01*
X16438238Y-15411667D01*
X16447762Y-15421190D01*
X16457286Y-15440238D01*
X16457286Y-15497381D01*
X16447762Y-15516428D01*
X16438238Y-15525952D01*
X16419190Y-15535476D01*
X16381095Y-15535476D01*
X16362048Y-15525952D01*
X16571571Y-15535476D02*
X16552524Y-15525952D01*
X16543000Y-15506905D01*
X16543000Y-15335476D01*
X16733476Y-15535476D02*
X16733476Y-15430714D01*
X16723952Y-15411667D01*
X16704905Y-15402143D01*
X16666809Y-15402143D01*
X16647762Y-15411667D01*
X16733476Y-15525952D02*
X16714428Y-15535476D01*
X16666809Y-15535476D01*
X16647762Y-15525952D01*
X16638238Y-15506905D01*
X16638238Y-15487857D01*
X16647762Y-15468809D01*
X16666809Y-15459286D01*
X16714428Y-15459286D01*
X16733476Y-15449762D01*
X16800143Y-15402143D02*
X16876333Y-15402143D01*
X16828714Y-15335476D02*
X16828714Y-15506905D01*
X16838238Y-15525952D01*
X16857286Y-15535476D01*
X16876333Y-15535476D01*
X17019190Y-15525952D02*
X17000143Y-15535476D01*
X16962048Y-15535476D01*
X16943000Y-15525952D01*
X16933476Y-15506905D01*
X16933476Y-15430714D01*
X16943000Y-15411667D01*
X16962048Y-15402143D01*
X17000143Y-15402143D01*
X17019190Y-15411667D01*
X17028714Y-15430714D01*
X17028714Y-15449762D01*
X16933476Y-15468809D01*
X17200143Y-15535476D02*
X17200143Y-15335476D01*
X17200143Y-15525952D02*
X17181095Y-15535476D01*
X17143000Y-15535476D01*
X17123952Y-15525952D01*
X17114429Y-15516428D01*
X17104905Y-15497381D01*
X17104905Y-15440238D01*
X17114429Y-15421190D01*
X17123952Y-15411667D01*
X17143000Y-15402143D01*
X17181095Y-15402143D01*
X17200143Y-15411667D01*
X17276333Y-15611667D02*
X17285857Y-15602143D01*
X17304905Y-15573571D01*
X17314429Y-15554524D01*
X17323952Y-15525952D01*
X17333476Y-15478333D01*
X17333476Y-15440238D01*
X17323952Y-15392619D01*
X17314429Y-15364048D01*
X17304905Y-15345000D01*
X17285857Y-15316428D01*
X17276333Y-15306905D01*
X10333000Y-15755000D02*
G75*
G03*
X10333000Y-15755000I-100000J0D01*
G01*
X10676333Y-15712143D02*
X10676333Y-15845476D01*
X10628714Y-15635952D02*
X10581095Y-15778809D01*
X10704905Y-15778809D01*
X10781095Y-15826428D02*
X10790619Y-15835952D01*
X10781095Y-15845476D01*
X10771571Y-15835952D01*
X10781095Y-15826428D01*
X10781095Y-15845476D01*
X10914429Y-15645476D02*
X10933476Y-15645476D01*
X10952524Y-15655000D01*
X10962048Y-15664524D01*
X10971571Y-15683571D01*
X10981095Y-15721667D01*
X10981095Y-15769286D01*
X10971571Y-15807381D01*
X10962048Y-15826428D01*
X10952524Y-15835952D01*
X10933476Y-15845476D01*
X10914429Y-15845476D01*
X10895381Y-15835952D01*
X10885857Y-15826428D01*
X10876333Y-15807381D01*
X10866810Y-15769286D01*
X10866810Y-15721667D01*
X10876333Y-15683571D01*
X10885857Y-15664524D01*
X10895381Y-15655000D01*
X10914429Y-15645476D01*
X11104905Y-15645476D02*
X11123952Y-15645476D01*
X11143000Y-15655000D01*
X11152524Y-15664524D01*
X11162048Y-15683571D01*
X11171571Y-15721667D01*
X11171571Y-15769286D01*
X11162048Y-15807381D01*
X11152524Y-15826428D01*
X11143000Y-15835952D01*
X11123952Y-15845476D01*
X11104905Y-15845476D01*
X11085857Y-15835952D01*
X11076333Y-15826428D01*
X11066810Y-15807381D01*
X11057286Y-15769286D01*
X11057286Y-15721667D01*
X11066810Y-15683571D01*
X11076333Y-15664524D01*
X11085857Y-15655000D01*
X11104905Y-15645476D01*
X11295381Y-15645476D02*
X11314428Y-15645476D01*
X11333476Y-15655000D01*
X11343000Y-15664524D01*
X11352524Y-15683571D01*
X11362048Y-15721667D01*
X11362048Y-15769286D01*
X11352524Y-15807381D01*
X11343000Y-15826428D01*
X11333476Y-15835952D01*
X11314428Y-15845476D01*
X11295381Y-15845476D01*
X11276333Y-15835952D01*
X11266809Y-15826428D01*
X11257286Y-15807381D01*
X11247762Y-15769286D01*
X11247762Y-15721667D01*
X11257286Y-15683571D01*
X11266809Y-15664524D01*
X11276333Y-15655000D01*
X11295381Y-15645476D01*
X11447762Y-15845476D02*
X11447762Y-15712143D01*
X11447762Y-15731190D02*
X11457286Y-15721667D01*
X11476333Y-15712143D01*
X11504905Y-15712143D01*
X11523952Y-15721667D01*
X11533476Y-15740714D01*
X11533476Y-15845476D01*
X11533476Y-15740714D02*
X11543000Y-15721667D01*
X11562048Y-15712143D01*
X11590619Y-15712143D01*
X11609667Y-15721667D01*
X11619190Y-15740714D01*
X11619190Y-15845476D01*
X11714428Y-15845476D02*
X11714428Y-15712143D01*
X11714428Y-15731190D02*
X11723952Y-15721667D01*
X11743000Y-15712143D01*
X11771571Y-15712143D01*
X11790619Y-15721667D01*
X11800143Y-15740714D01*
X11800143Y-15845476D01*
X11800143Y-15740714D02*
X11809667Y-15721667D01*
X11828714Y-15712143D01*
X11857286Y-15712143D01*
X11876333Y-15721667D01*
X11885857Y-15740714D01*
X11885857Y-15845476D01*
X12276333Y-15635952D02*
X12104905Y-15893095D01*
X12533476Y-15645476D02*
X12552524Y-15645476D01*
X12571571Y-15655000D01*
X12581095Y-15664524D01*
X12590619Y-15683571D01*
X12600143Y-15721667D01*
X12600143Y-15769286D01*
X12590619Y-15807381D01*
X12581095Y-15826428D01*
X12571571Y-15835952D01*
X12552524Y-15845476D01*
X12533476Y-15845476D01*
X12514428Y-15835952D01*
X12504905Y-15826428D01*
X12495381Y-15807381D01*
X12485857Y-15769286D01*
X12485857Y-15721667D01*
X12495381Y-15683571D01*
X12504905Y-15664524D01*
X12514428Y-15655000D01*
X12533476Y-15645476D01*
X12685857Y-15826428D02*
X12695381Y-15835952D01*
X12685857Y-15845476D01*
X12676333Y-15835952D01*
X12685857Y-15826428D01*
X12685857Y-15845476D01*
X12885857Y-15845476D02*
X12771571Y-15845476D01*
X12828714Y-15845476D02*
X12828714Y-15645476D01*
X12809667Y-15674048D01*
X12790619Y-15693095D01*
X12771571Y-15702619D01*
X13066809Y-15645476D02*
X12971571Y-15645476D01*
X12962048Y-15740714D01*
X12971571Y-15731190D01*
X12990619Y-15721667D01*
X13038238Y-15721667D01*
X13057286Y-15731190D01*
X13066809Y-15740714D01*
X13076333Y-15759762D01*
X13076333Y-15807381D01*
X13066809Y-15826428D01*
X13057286Y-15835952D01*
X13038238Y-15845476D01*
X12990619Y-15845476D01*
X12971571Y-15835952D01*
X12962048Y-15826428D01*
X13143000Y-15645476D02*
X13276333Y-15645476D01*
X13190619Y-15845476D01*
X13447762Y-15645476D02*
X13352524Y-15645476D01*
X13343000Y-15740714D01*
X13352524Y-15731190D01*
X13371571Y-15721667D01*
X13419190Y-15721667D01*
X13438238Y-15731190D01*
X13447762Y-15740714D01*
X13457286Y-15759762D01*
X13457286Y-15807381D01*
X13447762Y-15826428D01*
X13438238Y-15835952D01*
X13419190Y-15845476D01*
X13371571Y-15845476D01*
X13352524Y-15835952D01*
X13343000Y-15826428D01*
X13533476Y-15645476D02*
X13533476Y-15683571D01*
X13609667Y-15645476D02*
X13609667Y-15683571D01*
X13904905Y-15921667D02*
X13895381Y-15912143D01*
X13876333Y-15883571D01*
X13866809Y-15864524D01*
X13857286Y-15835952D01*
X13847762Y-15788333D01*
X13847762Y-15750238D01*
X13857286Y-15702619D01*
X13866809Y-15674048D01*
X13876333Y-15655000D01*
X13895381Y-15626428D01*
X13904905Y-15616905D01*
X13990619Y-15845476D02*
X14028714Y-15845476D01*
X14047762Y-15835952D01*
X14057286Y-15826428D01*
X14076333Y-15797857D01*
X14085857Y-15759762D01*
X14085857Y-15683571D01*
X14076333Y-15664524D01*
X14066809Y-15655000D01*
X14047762Y-15645476D01*
X14009667Y-15645476D01*
X13990619Y-15655000D01*
X13981095Y-15664524D01*
X13971571Y-15683571D01*
X13971571Y-15731190D01*
X13981095Y-15750238D01*
X13990619Y-15759762D01*
X14009667Y-15769286D01*
X14047762Y-15769286D01*
X14066809Y-15759762D01*
X14076333Y-15750238D01*
X14085857Y-15731190D01*
X14323952Y-15845476D02*
X14323952Y-15645476D01*
X14409667Y-15845476D02*
X14409667Y-15740714D01*
X14400143Y-15721667D01*
X14381095Y-15712143D01*
X14352524Y-15712143D01*
X14333476Y-15721667D01*
X14323952Y-15731190D01*
X14533476Y-15845476D02*
X14514428Y-15835952D01*
X14504905Y-15826428D01*
X14495381Y-15807381D01*
X14495381Y-15750238D01*
X14504905Y-15731190D01*
X14514428Y-15721667D01*
X14533476Y-15712143D01*
X14562048Y-15712143D01*
X14581095Y-15721667D01*
X14590619Y-15731190D01*
X14600143Y-15750238D01*
X14600143Y-15807381D01*
X14590619Y-15826428D01*
X14581095Y-15835952D01*
X14562048Y-15845476D01*
X14533476Y-15845476D01*
X14714428Y-15845476D02*
X14695381Y-15835952D01*
X14685857Y-15816905D01*
X14685857Y-15645476D01*
X14866809Y-15835952D02*
X14847762Y-15845476D01*
X14809667Y-15845476D01*
X14790619Y-15835952D01*
X14781095Y-15816905D01*
X14781095Y-15740714D01*
X14790619Y-15721667D01*
X14809667Y-15712143D01*
X14847762Y-15712143D01*
X14866809Y-15721667D01*
X14876333Y-15740714D01*
X14876333Y-15759762D01*
X14781095Y-15778809D01*
X14952524Y-15835952D02*
X14971571Y-15845476D01*
X15009667Y-15845476D01*
X15028714Y-15835952D01*
X15038238Y-15816905D01*
X15038238Y-15807381D01*
X15028714Y-15788333D01*
X15009667Y-15778809D01*
X14981095Y-15778809D01*
X14962048Y-15769286D01*
X14952524Y-15750238D01*
X14952524Y-15740714D01*
X14962048Y-15721667D01*
X14981095Y-15712143D01*
X15009667Y-15712143D01*
X15028714Y-15721667D01*
X15104905Y-15921667D02*
X15114428Y-15912143D01*
X15133476Y-15883571D01*
X15143000Y-15864524D01*
X15152524Y-15835952D01*
X15162048Y-15788333D01*
X15162048Y-15750238D01*
X15152524Y-15702619D01*
X15143000Y-15674048D01*
X15133476Y-15655000D01*
X15114428Y-15626428D01*
X15104905Y-15616905D01*
X15466809Y-15921667D02*
X15457286Y-15912143D01*
X15438238Y-15883571D01*
X15428714Y-15864524D01*
X15419190Y-15835952D01*
X15409667Y-15788333D01*
X15409667Y-15750238D01*
X15419190Y-15702619D01*
X15428714Y-15674048D01*
X15438238Y-15655000D01*
X15457286Y-15626428D01*
X15466809Y-15616905D01*
X15543000Y-15712143D02*
X15543000Y-15845476D01*
X15543000Y-15731190D02*
X15552524Y-15721667D01*
X15571571Y-15712143D01*
X15600143Y-15712143D01*
X15619190Y-15721667D01*
X15628714Y-15740714D01*
X15628714Y-15845476D01*
X15752524Y-15845476D02*
X15733476Y-15835952D01*
X15723952Y-15826428D01*
X15714428Y-15807381D01*
X15714428Y-15750238D01*
X15723952Y-15731190D01*
X15733476Y-15721667D01*
X15752524Y-15712143D01*
X15781095Y-15712143D01*
X15800143Y-15721667D01*
X15809667Y-15731190D01*
X15819190Y-15750238D01*
X15819190Y-15807381D01*
X15809667Y-15826428D01*
X15800143Y-15835952D01*
X15781095Y-15845476D01*
X15752524Y-15845476D01*
X15876333Y-15712143D02*
X15952524Y-15712143D01*
X15904905Y-15645476D02*
X15904905Y-15816905D01*
X15914428Y-15835952D01*
X15933476Y-15845476D01*
X15952524Y-15845476D01*
X16171571Y-15712143D02*
X16171571Y-15912143D01*
X16171571Y-15721667D02*
X16190619Y-15712143D01*
X16228714Y-15712143D01*
X16247762Y-15721667D01*
X16257286Y-15731190D01*
X16266809Y-15750238D01*
X16266809Y-15807381D01*
X16257286Y-15826428D01*
X16247762Y-15835952D01*
X16228714Y-15845476D01*
X16190619Y-15845476D01*
X16171571Y-15835952D01*
X16381095Y-15845476D02*
X16362048Y-15835952D01*
X16352524Y-15816905D01*
X16352524Y-15645476D01*
X16543000Y-15845476D02*
X16543000Y-15740714D01*
X16533476Y-15721667D01*
X16514428Y-15712143D01*
X16476333Y-15712143D01*
X16457286Y-15721667D01*
X16543000Y-15835952D02*
X16523952Y-15845476D01*
X16476333Y-15845476D01*
X16457286Y-15835952D01*
X16447762Y-15816905D01*
X16447762Y-15797857D01*
X16457286Y-15778809D01*
X16476333Y-15769286D01*
X16523952Y-15769286D01*
X16543000Y-15759762D01*
X16609667Y-15712143D02*
X16685857Y-15712143D01*
X16638238Y-15645476D02*
X16638238Y-15816905D01*
X16647762Y-15835952D01*
X16666809Y-15845476D01*
X16685857Y-15845476D01*
X16828714Y-15835952D02*
X16809667Y-15845476D01*
X16771571Y-15845476D01*
X16752524Y-15835952D01*
X16743000Y-15816905D01*
X16743000Y-15740714D01*
X16752524Y-15721667D01*
X16771571Y-15712143D01*
X16809667Y-15712143D01*
X16828714Y-15721667D01*
X16838238Y-15740714D01*
X16838238Y-15759762D01*
X16743000Y-15778809D01*
X17009667Y-15845476D02*
X17009667Y-15645476D01*
X17009667Y-15835952D02*
X16990619Y-15845476D01*
X16952524Y-15845476D01*
X16933476Y-15835952D01*
X16923952Y-15826428D01*
X16914429Y-15807381D01*
X16914429Y-15750238D01*
X16923952Y-15731190D01*
X16933476Y-15721667D01*
X16952524Y-15712143D01*
X16990619Y-15712143D01*
X17009667Y-15721667D01*
X17085857Y-15921667D02*
X17095381Y-15912143D01*
X17114429Y-15883571D01*
X17123952Y-15864524D01*
X17133476Y-15835952D01*
X17143000Y-15788333D01*
X17143000Y-15750238D01*
X17133476Y-15702619D01*
X17123952Y-15674048D01*
X17114429Y-15655000D01*
X17095381Y-15626428D01*
X17085857Y-15616905D01*
M02*
