M48
; DRILL file {KiCad (6.0.9-0)} date 
; FORMAT={-:-/ absolute / metric / decimal}
; #@! TF.CreationDate,2023-04-08T13:57:08+09:00
; #@! TF.GenerationSoftware,Kicad,Pcbnew,(6.0.9-0)
; #@! TF.FileFunction,Plated,1,2,PTH
FMAT,2
METRIC
; #@! TA.AperFunction,Plated,PTH,ComponentDrill
T1C0.800
; #@! TA.AperFunction,Plated,PTH,ComponentDrill
T2C0.813
; #@! TA.AperFunction,Plated,PTH,ComponentDrill
T3C1.000
; #@! TA.AperFunction,Plated,PTH,ComponentDrill
T4C1.100
; #@! TA.AperFunction,Plated,PTH,ComponentDrill
T5C2.200
; #@! TA.AperFunction,Plated,PTH,ComponentDrill
T6C3.500
%
G90
G05
T1
X120.57Y-105.0
X120.57Y-124.0
X128.19Y-105.0
X128.19Y-124.0
X139.38Y-86.19
X139.38Y-93.81
X139.57Y-105.0
X139.57Y-124.0
X147.19Y-105.0
X147.19Y-124.0
X158.57Y-105.0
X158.88Y-124.0
X166.19Y-105.0
X166.5Y-124.0
X177.38Y-105.0
X177.57Y-124.0
X185.0Y-105.0
X185.19Y-124.0
T2
X114.771Y-64.022
X114.771Y-66.562
X114.771Y-69.102
X114.771Y-71.642
X114.771Y-74.182
X114.771Y-76.722
X114.771Y-79.262
X114.771Y-81.802
X114.771Y-84.342
X114.771Y-86.882
X114.771Y-89.422
X114.771Y-91.962
X129.991Y-64.022
X129.991Y-66.562
X129.991Y-69.102
X129.991Y-71.642
X129.991Y-74.182
X129.991Y-76.722
X129.991Y-79.262
X129.991Y-81.802
X129.991Y-84.342
X129.991Y-86.882
X129.991Y-89.422
X129.991Y-91.962
T3
X147.88Y-76.0
X150.38Y-76.0
X152.88Y-76.0
X177.48Y-87.0
X179.98Y-87.0
X182.48Y-87.0
T4
X134.38Y-54.0
X134.38Y-60.5
X138.88Y-54.0
X138.88Y-60.5
T5
X144.78Y-68.5
X155.98Y-68.5
X174.38Y-79.5
X185.58Y-79.5
T6
X109.38Y-54.0
X109.38Y-142.0
X197.38Y-54.0
X197.38Y-142.0
T1
X120.37Y-111.91G85X120.77Y-111.91
G05
X120.37Y-130.96G85X120.77Y-130.96
G05
X126.72Y-109.37G85X127.12Y-109.37
G05
X126.72Y-128.42G85X127.12Y-128.42
G05
X139.37Y-111.91G85X139.77Y-111.91
G05
X139.37Y-130.96G85X139.77Y-130.96
G05
X145.37Y-89.46G85X145.77Y-89.46
G05
X145.72Y-109.37G85X146.12Y-109.37
G05
X145.72Y-128.42G85X146.12Y-128.42
G05
X151.72Y-86.92G85X152.12Y-86.92
G05
X158.37Y-111.96G85X158.77Y-111.96
G05
X158.37Y-130.96G85X158.77Y-130.96
G05
X164.72Y-109.42G85X165.12Y-109.42
G05
X164.72Y-128.42G85X165.12Y-128.42
G05
X177.37Y-111.96G85X177.77Y-111.96
G05
X177.37Y-130.96G85X177.77Y-130.96
G05
X183.72Y-109.42G85X184.12Y-109.42
G05
X183.72Y-128.42G85X184.12Y-128.42
G05
T0
M30
