G04 #@! TF.GenerationSoftware,KiCad,Pcbnew,(6.0.9-0)*
G04 #@! TF.CreationDate,2023-03-29T20:51:07+09:00*
G04 #@! TF.ProjectId,keypad,6b657970-6164-42e6-9b69-6361645f7063,1*
G04 #@! TF.SameCoordinates,Original*
G04 #@! TF.FileFunction,Legend,Top*
G04 #@! TF.FilePolarity,Positive*
%FSLAX46Y46*%
G04 Gerber Fmt 4.6, Leading zero omitted, Abs format (unit mm)*
G04 Created by KiCad (PCBNEW (6.0.9-0)) date 2023-03-29 20:51:07*
%MOMM*%
%LPD*%
G01*
G04 APERTURE LIST*
%ADD10C,0.100000*%
%ADD11C,0.150000*%
%ADD12C,0.300000*%
%ADD13C,0.400000*%
%ADD14C,0.125000*%
%ADD15C,0.120000*%
%ADD16O,2.500000X2.000000*%
%ADD17C,1.524000*%
G04 APERTURE END LIST*
D10*
D11*
X177002200Y-166007200D02*
X177002200Y-198007200D01*
X285002200Y-198007200D01*
X285002200Y-166007200D01*
X177002200Y-166007200D01*
D10*
D11*
X10000000Y-10000000D02*
X10000000Y-200007200D01*
X287002200Y-200007200D01*
X287002200Y-10000000D01*
X10000000Y-10000000D01*
D10*
D11*
X12000000Y-12000000D02*
X12000000Y-198007200D01*
X285002200Y-198007200D01*
X285002200Y-12000000D01*
X12000000Y-12000000D01*
D10*
D11*
X60000000Y-12000000D02*
X60000000Y-10000000D01*
D10*
D11*
X110000000Y-12000000D02*
X110000000Y-10000000D01*
D10*
D11*
X160000000Y-12000000D02*
X160000000Y-10000000D01*
D10*
D11*
X210000000Y-12000000D02*
X210000000Y-10000000D01*
D10*
D11*
X260000000Y-12000000D02*
X260000000Y-10000000D01*
D10*
D11*
X36065476Y-11588095D02*
X35322619Y-11588095D01*
X35694047Y-11588095D02*
X35694047Y-10288095D01*
X35570238Y-10473809D01*
X35446428Y-10597619D01*
X35322619Y-10659523D01*
D10*
D11*
X85322619Y-10411904D02*
X85384523Y-10350000D01*
X85508333Y-10288095D01*
X85817857Y-10288095D01*
X85941666Y-10350000D01*
X86003571Y-10411904D01*
X86065476Y-10535714D01*
X86065476Y-10659523D01*
X86003571Y-10845238D01*
X85260714Y-11588095D01*
X86065476Y-11588095D01*
D10*
D11*
X135260714Y-10288095D02*
X136065476Y-10288095D01*
X135632142Y-10783333D01*
X135817857Y-10783333D01*
X135941666Y-10845238D01*
X136003571Y-10907142D01*
X136065476Y-11030952D01*
X136065476Y-11340476D01*
X136003571Y-11464285D01*
X135941666Y-11526190D01*
X135817857Y-11588095D01*
X135446428Y-11588095D01*
X135322619Y-11526190D01*
X135260714Y-11464285D01*
D10*
D11*
X185941666Y-10721428D02*
X185941666Y-11588095D01*
X185632142Y-10226190D02*
X185322619Y-11154761D01*
X186127380Y-11154761D01*
D10*
D11*
X236003571Y-10288095D02*
X235384523Y-10288095D01*
X235322619Y-10907142D01*
X235384523Y-10845238D01*
X235508333Y-10783333D01*
X235817857Y-10783333D01*
X235941666Y-10845238D01*
X236003571Y-10907142D01*
X236065476Y-11030952D01*
X236065476Y-11340476D01*
X236003571Y-11464285D01*
X235941666Y-11526190D01*
X235817857Y-11588095D01*
X235508333Y-11588095D01*
X235384523Y-11526190D01*
X235322619Y-11464285D01*
D10*
D11*
X285941666Y-10288095D02*
X285694047Y-10288095D01*
X285570238Y-10350000D01*
X285508333Y-10411904D01*
X285384523Y-10597619D01*
X285322619Y-10845238D01*
X285322619Y-11340476D01*
X285384523Y-11464285D01*
X285446428Y-11526190D01*
X285570238Y-11588095D01*
X285817857Y-11588095D01*
X285941666Y-11526190D01*
X286003571Y-11464285D01*
X286065476Y-11340476D01*
X286065476Y-11030952D01*
X286003571Y-10907142D01*
X285941666Y-10845238D01*
X285817857Y-10783333D01*
X285570238Y-10783333D01*
X285446428Y-10845238D01*
X285384523Y-10907142D01*
X285322619Y-11030952D01*
D10*
D11*
X60000000Y-198007200D02*
X60000000Y-200007200D01*
D10*
D11*
X110000000Y-198007200D02*
X110000000Y-200007200D01*
D10*
D11*
X160000000Y-198007200D02*
X160000000Y-200007200D01*
D10*
D11*
X210000000Y-198007200D02*
X210000000Y-200007200D01*
D10*
D11*
X260000000Y-198007200D02*
X260000000Y-200007200D01*
D10*
D11*
X36065476Y-199595295D02*
X35322619Y-199595295D01*
X35694047Y-199595295D02*
X35694047Y-198295295D01*
X35570238Y-198481009D01*
X35446428Y-198604819D01*
X35322619Y-198666723D01*
D10*
D11*
X85322619Y-198419104D02*
X85384523Y-198357200D01*
X85508333Y-198295295D01*
X85817857Y-198295295D01*
X85941666Y-198357200D01*
X86003571Y-198419104D01*
X86065476Y-198542914D01*
X86065476Y-198666723D01*
X86003571Y-198852438D01*
X85260714Y-199595295D01*
X86065476Y-199595295D01*
D10*
D11*
X135260714Y-198295295D02*
X136065476Y-198295295D01*
X135632142Y-198790533D01*
X135817857Y-198790533D01*
X135941666Y-198852438D01*
X136003571Y-198914342D01*
X136065476Y-199038152D01*
X136065476Y-199347676D01*
X136003571Y-199471485D01*
X135941666Y-199533390D01*
X135817857Y-199595295D01*
X135446428Y-199595295D01*
X135322619Y-199533390D01*
X135260714Y-199471485D01*
D10*
D11*
X185941666Y-198728628D02*
X185941666Y-199595295D01*
X185632142Y-198233390D02*
X185322619Y-199161961D01*
X186127380Y-199161961D01*
D10*
D11*
X236003571Y-198295295D02*
X235384523Y-198295295D01*
X235322619Y-198914342D01*
X235384523Y-198852438D01*
X235508333Y-198790533D01*
X235817857Y-198790533D01*
X235941666Y-198852438D01*
X236003571Y-198914342D01*
X236065476Y-199038152D01*
X236065476Y-199347676D01*
X236003571Y-199471485D01*
X235941666Y-199533390D01*
X235817857Y-199595295D01*
X235508333Y-199595295D01*
X235384523Y-199533390D01*
X235322619Y-199471485D01*
D10*
D11*
X285941666Y-198295295D02*
X285694047Y-198295295D01*
X285570238Y-198357200D01*
X285508333Y-198419104D01*
X285384523Y-198604819D01*
X285322619Y-198852438D01*
X285322619Y-199347676D01*
X285384523Y-199471485D01*
X285446428Y-199533390D01*
X285570238Y-199595295D01*
X285817857Y-199595295D01*
X285941666Y-199533390D01*
X286003571Y-199471485D01*
X286065476Y-199347676D01*
X286065476Y-199038152D01*
X286003571Y-198914342D01*
X285941666Y-198852438D01*
X285817857Y-198790533D01*
X285570238Y-198790533D01*
X285446428Y-198852438D01*
X285384523Y-198914342D01*
X285322619Y-199038152D01*
D10*
D11*
X10000000Y-60000000D02*
X12000000Y-60000000D01*
D10*
D11*
X10000000Y-110000000D02*
X12000000Y-110000000D01*
D10*
D11*
X10000000Y-160000000D02*
X12000000Y-160000000D01*
D10*
D11*
X10690476Y-35216666D02*
X11309523Y-35216666D01*
X10566666Y-35588095D02*
X11000000Y-34288095D01*
X11433333Y-35588095D01*
D10*
D11*
X11092857Y-84907142D02*
X11278571Y-84969047D01*
X11340476Y-85030952D01*
X11402380Y-85154761D01*
X11402380Y-85340476D01*
X11340476Y-85464285D01*
X11278571Y-85526190D01*
X11154761Y-85588095D01*
X10659523Y-85588095D01*
X10659523Y-84288095D01*
X11092857Y-84288095D01*
X11216666Y-84350000D01*
X11278571Y-84411904D01*
X11340476Y-84535714D01*
X11340476Y-84659523D01*
X11278571Y-84783333D01*
X11216666Y-84845238D01*
X11092857Y-84907142D01*
X10659523Y-84907142D01*
D10*
D11*
X11402380Y-135464285D02*
X11340476Y-135526190D01*
X11154761Y-135588095D01*
X11030952Y-135588095D01*
X10845238Y-135526190D01*
X10721428Y-135402380D01*
X10659523Y-135278571D01*
X10597619Y-135030952D01*
X10597619Y-134845238D01*
X10659523Y-134597619D01*
X10721428Y-134473809D01*
X10845238Y-134350000D01*
X11030952Y-134288095D01*
X11154761Y-134288095D01*
X11340476Y-134350000D01*
X11402380Y-134411904D01*
D10*
D11*
X10659523Y-185588095D02*
X10659523Y-184288095D01*
X10969047Y-184288095D01*
X11154761Y-184350000D01*
X11278571Y-184473809D01*
X11340476Y-184597619D01*
X11402380Y-184845238D01*
X11402380Y-185030952D01*
X11340476Y-185278571D01*
X11278571Y-185402380D01*
X11154761Y-185526190D01*
X10969047Y-185588095D01*
X10659523Y-185588095D01*
D10*
D11*
X287002200Y-60000000D02*
X285002200Y-60000000D01*
D10*
D11*
X287002200Y-110000000D02*
X285002200Y-110000000D01*
D10*
D11*
X287002200Y-160000000D02*
X285002200Y-160000000D01*
D10*
D11*
X285692676Y-35216666D02*
X286311723Y-35216666D01*
X285568866Y-35588095D02*
X286002200Y-34288095D01*
X286435533Y-35588095D01*
D10*
D11*
X286095057Y-84907142D02*
X286280771Y-84969047D01*
X286342676Y-85030952D01*
X286404580Y-85154761D01*
X286404580Y-85340476D01*
X286342676Y-85464285D01*
X286280771Y-85526190D01*
X286156961Y-85588095D01*
X285661723Y-85588095D01*
X285661723Y-84288095D01*
X286095057Y-84288095D01*
X286218866Y-84350000D01*
X286280771Y-84411904D01*
X286342676Y-84535714D01*
X286342676Y-84659523D01*
X286280771Y-84783333D01*
X286218866Y-84845238D01*
X286095057Y-84907142D01*
X285661723Y-84907142D01*
D10*
D11*
X286404580Y-135464285D02*
X286342676Y-135526190D01*
X286156961Y-135588095D01*
X286033152Y-135588095D01*
X285847438Y-135526190D01*
X285723628Y-135402380D01*
X285661723Y-135278571D01*
X285599819Y-135030952D01*
X285599819Y-134845238D01*
X285661723Y-134597619D01*
X285723628Y-134473809D01*
X285847438Y-134350000D01*
X286033152Y-134288095D01*
X286156961Y-134288095D01*
X286342676Y-134350000D01*
X286404580Y-134411904D01*
D10*
D11*
X285661723Y-185588095D02*
X285661723Y-184288095D01*
X285971247Y-184288095D01*
X286156961Y-184350000D01*
X286280771Y-184473809D01*
X286342676Y-184597619D01*
X286404580Y-184845238D01*
X286404580Y-185030952D01*
X286342676Y-185278571D01*
X286280771Y-185402380D01*
X286156961Y-185526190D01*
X285971247Y-185588095D01*
X285661723Y-185588095D01*
D10*
D11*
X200434342Y-193785771D02*
X200434342Y-192285771D01*
X200791485Y-192285771D01*
X201005771Y-192357200D01*
X201148628Y-192500057D01*
X201220057Y-192642914D01*
X201291485Y-192928628D01*
X201291485Y-193142914D01*
X201220057Y-193428628D01*
X201148628Y-193571485D01*
X201005771Y-193714342D01*
X200791485Y-193785771D01*
X200434342Y-193785771D01*
X202577200Y-193785771D02*
X202577200Y-193000057D01*
X202505771Y-192857200D01*
X202362914Y-192785771D01*
X202077200Y-192785771D01*
X201934342Y-192857200D01*
X202577200Y-193714342D02*
X202434342Y-193785771D01*
X202077200Y-193785771D01*
X201934342Y-193714342D01*
X201862914Y-193571485D01*
X201862914Y-193428628D01*
X201934342Y-193285771D01*
X202077200Y-193214342D01*
X202434342Y-193214342D01*
X202577200Y-193142914D01*
X203077200Y-192785771D02*
X203648628Y-192785771D01*
X203291485Y-192285771D02*
X203291485Y-193571485D01*
X203362914Y-193714342D01*
X203505771Y-193785771D01*
X203648628Y-193785771D01*
X204720057Y-193714342D02*
X204577200Y-193785771D01*
X204291485Y-193785771D01*
X204148628Y-193714342D01*
X204077200Y-193571485D01*
X204077200Y-193000057D01*
X204148628Y-192857200D01*
X204291485Y-192785771D01*
X204577200Y-192785771D01*
X204720057Y-192857200D01*
X204791485Y-193000057D01*
X204791485Y-193142914D01*
X204077200Y-193285771D01*
X205434342Y-193642914D02*
X205505771Y-193714342D01*
X205434342Y-193785771D01*
X205362914Y-193714342D01*
X205434342Y-193642914D01*
X205434342Y-193785771D01*
X205434342Y-192857200D02*
X205505771Y-192928628D01*
X205434342Y-193000057D01*
X205362914Y-192928628D01*
X205434342Y-192857200D01*
X205434342Y-193000057D01*
X207220057Y-192428628D02*
X207291485Y-192357200D01*
X207434342Y-192285771D01*
X207791485Y-192285771D01*
X207934342Y-192357200D01*
X208005771Y-192428628D01*
X208077200Y-192571485D01*
X208077200Y-192714342D01*
X208005771Y-192928628D01*
X207148628Y-193785771D01*
X208077200Y-193785771D01*
X209005771Y-192285771D02*
X209148628Y-192285771D01*
X209291485Y-192357200D01*
X209362914Y-192428628D01*
X209434342Y-192571485D01*
X209505771Y-192857200D01*
X209505771Y-193214342D01*
X209434342Y-193500057D01*
X209362914Y-193642914D01*
X209291485Y-193714342D01*
X209148628Y-193785771D01*
X209005771Y-193785771D01*
X208862914Y-193714342D01*
X208791485Y-193642914D01*
X208720057Y-193500057D01*
X208648628Y-193214342D01*
X208648628Y-192857200D01*
X208720057Y-192571485D01*
X208791485Y-192428628D01*
X208862914Y-192357200D01*
X209005771Y-192285771D01*
X210077200Y-192428628D02*
X210148628Y-192357200D01*
X210291485Y-192285771D01*
X210648628Y-192285771D01*
X210791485Y-192357200D01*
X210862914Y-192428628D01*
X210934342Y-192571485D01*
X210934342Y-192714342D01*
X210862914Y-192928628D01*
X210005771Y-193785771D01*
X210934342Y-193785771D01*
X211434342Y-192285771D02*
X212362914Y-192285771D01*
X211862914Y-192857200D01*
X212077200Y-192857200D01*
X212220057Y-192928628D01*
X212291485Y-193000057D01*
X212362914Y-193142914D01*
X212362914Y-193500057D01*
X212291485Y-193642914D01*
X212220057Y-193714342D01*
X212077200Y-193785771D01*
X211648628Y-193785771D01*
X211505771Y-193714342D01*
X211434342Y-193642914D01*
X213005771Y-193214342D02*
X214148628Y-193214342D01*
X215148628Y-192285771D02*
X215291485Y-192285771D01*
X215434342Y-192357200D01*
X215505771Y-192428628D01*
X215577200Y-192571485D01*
X215648628Y-192857200D01*
X215648628Y-193214342D01*
X215577200Y-193500057D01*
X215505771Y-193642914D01*
X215434342Y-193714342D01*
X215291485Y-193785771D01*
X215148628Y-193785771D01*
X215005771Y-193714342D01*
X214934342Y-193642914D01*
X214862914Y-193500057D01*
X214791485Y-193214342D01*
X214791485Y-192857200D01*
X214862914Y-192571485D01*
X214934342Y-192428628D01*
X215005771Y-192357200D01*
X215148628Y-192285771D01*
X216148628Y-192285771D02*
X217077200Y-192285771D01*
X216577200Y-192857200D01*
X216791485Y-192857200D01*
X216934342Y-192928628D01*
X217005771Y-193000057D01*
X217077200Y-193142914D01*
X217077200Y-193500057D01*
X217005771Y-193642914D01*
X216934342Y-193714342D01*
X216791485Y-193785771D01*
X216362914Y-193785771D01*
X216220057Y-193714342D01*
X216148628Y-193642914D01*
X217720057Y-193214342D02*
X218862914Y-193214342D01*
X219505771Y-192428628D02*
X219577200Y-192357200D01*
X219720057Y-192285771D01*
X220077200Y-192285771D01*
X220220057Y-192357200D01*
X220291485Y-192428628D01*
X220362914Y-192571485D01*
X220362914Y-192714342D01*
X220291485Y-192928628D01*
X219434342Y-193785771D01*
X220362914Y-193785771D01*
X220862914Y-192285771D02*
X221862914Y-192285771D01*
X221220057Y-193785771D01*
D10*
D11*
X177002200Y-194507200D02*
X285002200Y-194507200D01*
D10*
D11*
X178434342Y-196585771D02*
X178434342Y-195085771D01*
X179291485Y-196585771D02*
X178648628Y-195728628D01*
X179291485Y-195085771D02*
X178434342Y-195942914D01*
X179934342Y-196585771D02*
X179934342Y-195585771D01*
X179934342Y-195085771D02*
X179862914Y-195157200D01*
X179934342Y-195228628D01*
X180005771Y-195157200D01*
X179934342Y-195085771D01*
X179934342Y-195228628D01*
X181505771Y-196442914D02*
X181434342Y-196514342D01*
X181220057Y-196585771D01*
X181077200Y-196585771D01*
X180862914Y-196514342D01*
X180720057Y-196371485D01*
X180648628Y-196228628D01*
X180577200Y-195942914D01*
X180577200Y-195728628D01*
X180648628Y-195442914D01*
X180720057Y-195300057D01*
X180862914Y-195157200D01*
X181077200Y-195085771D01*
X181220057Y-195085771D01*
X181434342Y-195157200D01*
X181505771Y-195228628D01*
X182791485Y-196585771D02*
X182791485Y-195800057D01*
X182720057Y-195657200D01*
X182577200Y-195585771D01*
X182291485Y-195585771D01*
X182148628Y-195657200D01*
X182791485Y-196514342D02*
X182648628Y-196585771D01*
X182291485Y-196585771D01*
X182148628Y-196514342D01*
X182077200Y-196371485D01*
X182077200Y-196228628D01*
X182148628Y-196085771D01*
X182291485Y-196014342D01*
X182648628Y-196014342D01*
X182791485Y-195942914D01*
X184148628Y-196585771D02*
X184148628Y-195085771D01*
X184148628Y-196514342D02*
X184005771Y-196585771D01*
X183720057Y-196585771D01*
X183577200Y-196514342D01*
X183505771Y-196442914D01*
X183434342Y-196300057D01*
X183434342Y-195871485D01*
X183505771Y-195728628D01*
X183577200Y-195657200D01*
X183720057Y-195585771D01*
X184005771Y-195585771D01*
X184148628Y-195657200D01*
X186005771Y-195800057D02*
X186505771Y-195800057D01*
X186720057Y-196585771D02*
X186005771Y-196585771D01*
X186005771Y-195085771D01*
X186720057Y-195085771D01*
X187362914Y-196442914D02*
X187434342Y-196514342D01*
X187362914Y-196585771D01*
X187291485Y-196514342D01*
X187362914Y-196442914D01*
X187362914Y-196585771D01*
X188077200Y-196585771D02*
X188077200Y-195085771D01*
X188434342Y-195085771D01*
X188648628Y-195157200D01*
X188791485Y-195300057D01*
X188862914Y-195442914D01*
X188934342Y-195728628D01*
X188934342Y-195942914D01*
X188862914Y-196228628D01*
X188791485Y-196371485D01*
X188648628Y-196514342D01*
X188434342Y-196585771D01*
X188077200Y-196585771D01*
X189577200Y-196442914D02*
X189648628Y-196514342D01*
X189577200Y-196585771D01*
X189505771Y-196514342D01*
X189577200Y-196442914D01*
X189577200Y-196585771D01*
X190220057Y-196157200D02*
X190934342Y-196157200D01*
X190077200Y-196585771D02*
X190577200Y-195085771D01*
X191077200Y-196585771D01*
X191577200Y-196442914D02*
X191648628Y-196514342D01*
X191577200Y-196585771D01*
X191505771Y-196514342D01*
X191577200Y-196442914D01*
X191577200Y-196585771D01*
X194577200Y-196585771D02*
X194577200Y-195085771D01*
X194720057Y-196014342D02*
X195148628Y-196585771D01*
X195148628Y-195585771D02*
X194577200Y-196157200D01*
X195791485Y-196585771D02*
X195791485Y-195585771D01*
X195791485Y-195085771D02*
X195720057Y-195157200D01*
X195791485Y-195228628D01*
X195862914Y-195157200D01*
X195791485Y-195085771D01*
X195791485Y-195228628D01*
X197148628Y-196514342D02*
X197005771Y-196585771D01*
X196720057Y-196585771D01*
X196577200Y-196514342D01*
X196505771Y-196442914D01*
X196434342Y-196300057D01*
X196434342Y-195871485D01*
X196505771Y-195728628D01*
X196577200Y-195657200D01*
X196720057Y-195585771D01*
X197005771Y-195585771D01*
X197148628Y-195657200D01*
X198434342Y-196585771D02*
X198434342Y-195800057D01*
X198362914Y-195657200D01*
X198220057Y-195585771D01*
X197934342Y-195585771D01*
X197791485Y-195657200D01*
X198434342Y-196514342D02*
X198291485Y-196585771D01*
X197934342Y-196585771D01*
X197791485Y-196514342D01*
X197720057Y-196371485D01*
X197720057Y-196228628D01*
X197791485Y-196085771D01*
X197934342Y-196014342D01*
X198291485Y-196014342D01*
X198434342Y-195942914D01*
X199791485Y-196585771D02*
X199791485Y-195085771D01*
X199791485Y-196514342D02*
X199648628Y-196585771D01*
X199362914Y-196585771D01*
X199220057Y-196514342D01*
X199148628Y-196442914D01*
X199077200Y-196300057D01*
X199077200Y-195871485D01*
X199148628Y-195728628D01*
X199220057Y-195657200D01*
X199362914Y-195585771D01*
X199648628Y-195585771D01*
X199791485Y-195657200D01*
X202077200Y-197157200D02*
X202005771Y-197085771D01*
X201862914Y-196871485D01*
X201791485Y-196728628D01*
X201720057Y-196514342D01*
X201648628Y-196157200D01*
X201648628Y-195871485D01*
X201720057Y-195514342D01*
X201791485Y-195300057D01*
X201862914Y-195157200D01*
X202005771Y-194942914D01*
X202077200Y-194871485D01*
X203291485Y-195085771D02*
X203005771Y-195085771D01*
X202862914Y-195157200D01*
X202791485Y-195228628D01*
X202648628Y-195442914D01*
X202577200Y-195728628D01*
X202577200Y-196300057D01*
X202648628Y-196442914D01*
X202720057Y-196514342D01*
X202862914Y-196585771D01*
X203148628Y-196585771D01*
X203291485Y-196514342D01*
X203362914Y-196442914D01*
X203434342Y-196300057D01*
X203434342Y-195942914D01*
X203362914Y-195800057D01*
X203291485Y-195728628D01*
X203148628Y-195657200D01*
X202862914Y-195657200D01*
X202720057Y-195728628D01*
X202648628Y-195800057D01*
X202577200Y-195942914D01*
X204077200Y-196442914D02*
X204148628Y-196514342D01*
X204077200Y-196585771D01*
X204005771Y-196514342D01*
X204077200Y-196442914D01*
X204077200Y-196585771D01*
X205077200Y-195085771D02*
X205220057Y-195085771D01*
X205362914Y-195157200D01*
X205434342Y-195228628D01*
X205505771Y-195371485D01*
X205577200Y-195657200D01*
X205577200Y-196014342D01*
X205505771Y-196300057D01*
X205434342Y-196442914D01*
X205362914Y-196514342D01*
X205220057Y-196585771D01*
X205077200Y-196585771D01*
X204934342Y-196514342D01*
X204862914Y-196442914D01*
X204791485Y-196300057D01*
X204720057Y-196014342D01*
X204720057Y-195657200D01*
X204791485Y-195371485D01*
X204862914Y-195228628D01*
X204934342Y-195157200D01*
X205077200Y-195085771D01*
X206220057Y-196442914D02*
X206291485Y-196514342D01*
X206220057Y-196585771D01*
X206148628Y-196514342D01*
X206220057Y-196442914D01*
X206220057Y-196585771D01*
X207005771Y-196585771D02*
X207291485Y-196585771D01*
X207434342Y-196514342D01*
X207505771Y-196442914D01*
X207648628Y-196228628D01*
X207720057Y-195942914D01*
X207720057Y-195371485D01*
X207648628Y-195228628D01*
X207577200Y-195157200D01*
X207434342Y-195085771D01*
X207148628Y-195085771D01*
X207005771Y-195157200D01*
X206934342Y-195228628D01*
X206862914Y-195371485D01*
X206862914Y-195728628D01*
X206934342Y-195871485D01*
X207005771Y-195942914D01*
X207148628Y-196014342D01*
X207434342Y-196014342D01*
X207577200Y-195942914D01*
X207648628Y-195871485D01*
X207720057Y-195728628D01*
X208362914Y-196014342D02*
X209505771Y-196014342D01*
X210505771Y-195085771D02*
X210648628Y-195085771D01*
X210791485Y-195157200D01*
X210862914Y-195228628D01*
X210934342Y-195371485D01*
X211005771Y-195657200D01*
X211005771Y-196014342D01*
X210934342Y-196300057D01*
X210862914Y-196442914D01*
X210791485Y-196514342D01*
X210648628Y-196585771D01*
X210505771Y-196585771D01*
X210362914Y-196514342D01*
X210291485Y-196442914D01*
X210220057Y-196300057D01*
X210148628Y-196014342D01*
X210148628Y-195657200D01*
X210220057Y-195371485D01*
X210291485Y-195228628D01*
X210362914Y-195157200D01*
X210505771Y-195085771D01*
X211505771Y-197157200D02*
X211577200Y-197085771D01*
X211720057Y-196871485D01*
X211791485Y-196728628D01*
X211862914Y-196514342D01*
X211934342Y-196157200D01*
X211934342Y-195871485D01*
X211862914Y-195514342D01*
X211791485Y-195300057D01*
X211720057Y-195157200D01*
X211577200Y-194942914D01*
X211505771Y-194871485D01*
D10*
D11*
X177002200Y-191507200D02*
X285002200Y-191507200D01*
D10*
D12*
X264411485Y-193785771D02*
X263911485Y-193071485D01*
X263554342Y-193785771D02*
X263554342Y-192285771D01*
X264125771Y-192285771D01*
X264268628Y-192357200D01*
X264340057Y-192428628D01*
X264411485Y-192571485D01*
X264411485Y-192785771D01*
X264340057Y-192928628D01*
X264268628Y-193000057D01*
X264125771Y-193071485D01*
X263554342Y-193071485D01*
X265625771Y-193714342D02*
X265482914Y-193785771D01*
X265197200Y-193785771D01*
X265054342Y-193714342D01*
X264982914Y-193571485D01*
X264982914Y-193000057D01*
X265054342Y-192857200D01*
X265197200Y-192785771D01*
X265482914Y-192785771D01*
X265625771Y-192857200D01*
X265697200Y-193000057D01*
X265697200Y-193142914D01*
X264982914Y-193285771D01*
X266197200Y-192785771D02*
X266554342Y-193785771D01*
X266911485Y-192785771D01*
X267482914Y-193642914D02*
X267554342Y-193714342D01*
X267482914Y-193785771D01*
X267411485Y-193714342D01*
X267482914Y-193642914D01*
X267482914Y-193785771D01*
X267482914Y-192857200D02*
X267554342Y-192928628D01*
X267482914Y-193000057D01*
X267411485Y-192928628D01*
X267482914Y-192857200D01*
X267482914Y-193000057D01*
X270125771Y-193785771D02*
X269268628Y-193785771D01*
X269697200Y-193785771D02*
X269697200Y-192285771D01*
X269554342Y-192500057D01*
X269411485Y-192642914D01*
X269268628Y-192714342D01*
D10*
D11*
X178362914Y-193714342D02*
X178577200Y-193785771D01*
X178934342Y-193785771D01*
X179077200Y-193714342D01*
X179148628Y-193642914D01*
X179220057Y-193500057D01*
X179220057Y-193357200D01*
X179148628Y-193214342D01*
X179077200Y-193142914D01*
X178934342Y-193071485D01*
X178648628Y-193000057D01*
X178505771Y-192928628D01*
X178434342Y-192857200D01*
X178362914Y-192714342D01*
X178362914Y-192571485D01*
X178434342Y-192428628D01*
X178505771Y-192357200D01*
X178648628Y-192285771D01*
X179005771Y-192285771D01*
X179220057Y-192357200D01*
X179862914Y-193785771D02*
X179862914Y-192785771D01*
X179862914Y-192285771D02*
X179791485Y-192357200D01*
X179862914Y-192428628D01*
X179934342Y-192357200D01*
X179862914Y-192285771D01*
X179862914Y-192428628D01*
X180434342Y-192785771D02*
X181220057Y-192785771D01*
X180434342Y-193785771D01*
X181220057Y-193785771D01*
X182362914Y-193714342D02*
X182220057Y-193785771D01*
X181934342Y-193785771D01*
X181791485Y-193714342D01*
X181720057Y-193571485D01*
X181720057Y-193000057D01*
X181791485Y-192857200D01*
X181934342Y-192785771D01*
X182220057Y-192785771D01*
X182362914Y-192857200D01*
X182434342Y-193000057D01*
X182434342Y-193142914D01*
X181720057Y-193285771D01*
X183077200Y-193642914D02*
X183148628Y-193714342D01*
X183077200Y-193785771D01*
X183005771Y-193714342D01*
X183077200Y-193642914D01*
X183077200Y-193785771D01*
X183077200Y-192857200D02*
X183148628Y-192928628D01*
X183077200Y-193000057D01*
X183005771Y-192928628D01*
X183077200Y-192857200D01*
X183077200Y-193000057D01*
X184862914Y-193357200D02*
X185577200Y-193357200D01*
X184720057Y-193785771D02*
X185220057Y-192285771D01*
X185720057Y-193785771D01*
X186862914Y-192785771D02*
X186862914Y-193785771D01*
X186505771Y-192214342D02*
X186148628Y-193285771D01*
X187077200Y-193285771D01*
D10*
D11*
X263434342Y-196585771D02*
X263434342Y-195085771D01*
X264791485Y-196585771D02*
X264791485Y-195085771D01*
X264791485Y-196514342D02*
X264648628Y-196585771D01*
X264362914Y-196585771D01*
X264220057Y-196514342D01*
X264148628Y-196442914D01*
X264077200Y-196300057D01*
X264077200Y-195871485D01*
X264148628Y-195728628D01*
X264220057Y-195657200D01*
X264362914Y-195585771D01*
X264648628Y-195585771D01*
X264791485Y-195657200D01*
X265505771Y-196442914D02*
X265577200Y-196514342D01*
X265505771Y-196585771D01*
X265434342Y-196514342D01*
X265505771Y-196442914D01*
X265505771Y-196585771D01*
X265505771Y-195657200D02*
X265577200Y-195728628D01*
X265505771Y-195800057D01*
X265434342Y-195728628D01*
X265505771Y-195657200D01*
X265505771Y-195800057D01*
X268148628Y-196585771D02*
X267291485Y-196585771D01*
X267720057Y-196585771D02*
X267720057Y-195085771D01*
X267577200Y-195300057D01*
X267434342Y-195442914D01*
X267291485Y-195514342D01*
X269862914Y-195014342D02*
X268577200Y-196942914D01*
X271148628Y-196585771D02*
X270291485Y-196585771D01*
X270720057Y-196585771D02*
X270720057Y-195085771D01*
X270577200Y-195300057D01*
X270434342Y-195442914D01*
X270291485Y-195514342D01*
D10*
D11*
X177002200Y-187507200D02*
X285002200Y-187507200D01*
D10*
D13*
X178714580Y-188211961D02*
X179857438Y-188211961D01*
X179036009Y-190211961D02*
X179286009Y-188211961D01*
X180274104Y-190211961D02*
X180440771Y-188878628D01*
X180524104Y-188211961D02*
X180416961Y-188307200D01*
X180500295Y-188402438D01*
X180607438Y-188307200D01*
X180524104Y-188211961D01*
X180500295Y-188402438D01*
X181107438Y-188878628D02*
X181869342Y-188878628D01*
X181476485Y-188211961D02*
X181262200Y-189926247D01*
X181333628Y-190116723D01*
X181512200Y-190211961D01*
X181702676Y-190211961D01*
X182655057Y-190211961D02*
X182476485Y-190116723D01*
X182405057Y-189926247D01*
X182619342Y-188211961D01*
X184190771Y-190116723D02*
X183988390Y-190211961D01*
X183607438Y-190211961D01*
X183428866Y-190116723D01*
X183357438Y-189926247D01*
X183452676Y-189164342D01*
X183571723Y-188973866D01*
X183774104Y-188878628D01*
X184155057Y-188878628D01*
X184333628Y-188973866D01*
X184405057Y-189164342D01*
X184381247Y-189354819D01*
X183405057Y-189545295D01*
X185155057Y-190021485D02*
X185238390Y-190116723D01*
X185131247Y-190211961D01*
X185047914Y-190116723D01*
X185155057Y-190021485D01*
X185131247Y-190211961D01*
X185286009Y-188973866D02*
X185369342Y-189069104D01*
X185262200Y-189164342D01*
X185178866Y-189069104D01*
X185286009Y-188973866D01*
X185262200Y-189164342D01*
X187607438Y-190211961D02*
X187857438Y-188211961D01*
X187893152Y-189450057D02*
X188369342Y-190211961D01*
X188536009Y-188878628D02*
X187678866Y-189640533D01*
X190000295Y-190116723D02*
X189797914Y-190211961D01*
X189416961Y-190211961D01*
X189238390Y-190116723D01*
X189166961Y-189926247D01*
X189262200Y-189164342D01*
X189381247Y-188973866D01*
X189583628Y-188878628D01*
X189964580Y-188878628D01*
X190143152Y-188973866D01*
X190214580Y-189164342D01*
X190190771Y-189354819D01*
X189214580Y-189545295D01*
X190916961Y-188878628D02*
X191226485Y-190211961D01*
X191869342Y-188878628D02*
X191226485Y-190211961D01*
X190976485Y-190688152D01*
X190869342Y-190783390D01*
X190666961Y-190878628D01*
X192631247Y-188878628D02*
X192381247Y-190878628D01*
X192619342Y-188973866D02*
X192821723Y-188878628D01*
X193202676Y-188878628D01*
X193381247Y-188973866D01*
X193464580Y-189069104D01*
X193536009Y-189259580D01*
X193464580Y-189831009D01*
X193345533Y-190021485D01*
X193238390Y-190116723D01*
X193036009Y-190211961D01*
X192655057Y-190211961D01*
X192476485Y-190116723D01*
X195131247Y-190211961D02*
X195262200Y-189164342D01*
X195190771Y-188973866D01*
X195012200Y-188878628D01*
X194631247Y-188878628D01*
X194428866Y-188973866D01*
X195143152Y-190116723D02*
X194940771Y-190211961D01*
X194464580Y-190211961D01*
X194286009Y-190116723D01*
X194214580Y-189926247D01*
X194238390Y-189735771D01*
X194357438Y-189545295D01*
X194559819Y-189450057D01*
X195036009Y-189450057D01*
X195238390Y-189354819D01*
X196940771Y-190211961D02*
X197190771Y-188211961D01*
X196952676Y-190116723D02*
X196750295Y-190211961D01*
X196369342Y-190211961D01*
X196190771Y-190116723D01*
X196107438Y-190021485D01*
X196036009Y-189831009D01*
X196107438Y-189259580D01*
X196226485Y-189069104D01*
X196333628Y-188973866D01*
X196536009Y-188878628D01*
X196916961Y-188878628D01*
X197095533Y-188973866D01*
X197988390Y-189450057D02*
X199512200Y-189450057D01*
X200369342Y-190211961D02*
X200536009Y-188878628D01*
X200512200Y-189069104D02*
X200619342Y-188973866D01*
X200821723Y-188878628D01*
X201107438Y-188878628D01*
X201286009Y-188973866D01*
X201357438Y-189164342D01*
X201226485Y-190211961D01*
X201357438Y-189164342D02*
X201476485Y-188973866D01*
X201678866Y-188878628D01*
X201964580Y-188878628D01*
X202143152Y-188973866D01*
X202214580Y-189164342D01*
X202083628Y-190211961D01*
X203036009Y-190211961D02*
X203202676Y-188878628D01*
X203286009Y-188211961D02*
X203178866Y-188307200D01*
X203262200Y-188402438D01*
X203369342Y-188307200D01*
X203286009Y-188211961D01*
X203262200Y-188402438D01*
X203905057Y-190116723D02*
X204083628Y-190211961D01*
X204464580Y-190211961D01*
X204666961Y-190116723D01*
X204786009Y-189926247D01*
X204797914Y-189831009D01*
X204726485Y-189640533D01*
X204547914Y-189545295D01*
X204262200Y-189545295D01*
X204083628Y-189450057D01*
X204012200Y-189259580D01*
X204024104Y-189164342D01*
X204143152Y-188973866D01*
X204345533Y-188878628D01*
X204631247Y-188878628D01*
X204809819Y-188973866D01*
X205488390Y-188878628D02*
X206250295Y-188878628D01*
X205857438Y-188211961D02*
X205643152Y-189926247D01*
X205714580Y-190116723D01*
X205893152Y-190211961D01*
X206083628Y-190211961D01*
D10*
D11*
X178934342Y-185600057D02*
X178434342Y-185600057D01*
X178434342Y-186385771D02*
X178434342Y-184885771D01*
X179148628Y-184885771D01*
X179720057Y-186385771D02*
X179720057Y-185385771D01*
X179720057Y-184885771D02*
X179648628Y-184957200D01*
X179720057Y-185028628D01*
X179791485Y-184957200D01*
X179720057Y-184885771D01*
X179720057Y-185028628D01*
X180648628Y-186385771D02*
X180505771Y-186314342D01*
X180434342Y-186171485D01*
X180434342Y-184885771D01*
X181791485Y-186314342D02*
X181648628Y-186385771D01*
X181362914Y-186385771D01*
X181220057Y-186314342D01*
X181148628Y-186171485D01*
X181148628Y-185600057D01*
X181220057Y-185457200D01*
X181362914Y-185385771D01*
X181648628Y-185385771D01*
X181791485Y-185457200D01*
X181862914Y-185600057D01*
X181862914Y-185742914D01*
X181148628Y-185885771D01*
X182505771Y-186242914D02*
X182577200Y-186314342D01*
X182505771Y-186385771D01*
X182434342Y-186314342D01*
X182505771Y-186242914D01*
X182505771Y-186385771D01*
X182505771Y-185457200D02*
X182577200Y-185528628D01*
X182505771Y-185600057D01*
X182434342Y-185528628D01*
X182505771Y-185457200D01*
X182505771Y-185600057D01*
X184362914Y-186385771D02*
X184362914Y-184885771D01*
X184505771Y-185814342D02*
X184934342Y-186385771D01*
X184934342Y-185385771D02*
X184362914Y-185957200D01*
X186148628Y-186314342D02*
X186005771Y-186385771D01*
X185720057Y-186385771D01*
X185577200Y-186314342D01*
X185505771Y-186171485D01*
X185505771Y-185600057D01*
X185577200Y-185457200D01*
X185720057Y-185385771D01*
X186005771Y-185385771D01*
X186148628Y-185457200D01*
X186220057Y-185600057D01*
X186220057Y-185742914D01*
X185505771Y-185885771D01*
X186720057Y-185385771D02*
X187077200Y-186385771D01*
X187434342Y-185385771D02*
X187077200Y-186385771D01*
X186934342Y-186742914D01*
X186862914Y-186814342D01*
X186720057Y-186885771D01*
X188005771Y-185385771D02*
X188005771Y-186885771D01*
X188005771Y-185457200D02*
X188148628Y-185385771D01*
X188434342Y-185385771D01*
X188577200Y-185457200D01*
X188648628Y-185528628D01*
X188720057Y-185671485D01*
X188720057Y-186100057D01*
X188648628Y-186242914D01*
X188577200Y-186314342D01*
X188434342Y-186385771D01*
X188148628Y-186385771D01*
X188005771Y-186314342D01*
X190005771Y-186385771D02*
X190005771Y-185600057D01*
X189934342Y-185457200D01*
X189791485Y-185385771D01*
X189505771Y-185385771D01*
X189362914Y-185457200D01*
X190005771Y-186314342D02*
X189862914Y-186385771D01*
X189505771Y-186385771D01*
X189362914Y-186314342D01*
X189291485Y-186171485D01*
X189291485Y-186028628D01*
X189362914Y-185885771D01*
X189505771Y-185814342D01*
X189862914Y-185814342D01*
X190005771Y-185742914D01*
X191362914Y-186385771D02*
X191362914Y-184885771D01*
X191362914Y-186314342D02*
X191220057Y-186385771D01*
X190934342Y-186385771D01*
X190791485Y-186314342D01*
X190720057Y-186242914D01*
X190648628Y-186100057D01*
X190648628Y-185671485D01*
X190720057Y-185528628D01*
X190791485Y-185457200D01*
X190934342Y-185385771D01*
X191220057Y-185385771D01*
X191362914Y-185457200D01*
X192077200Y-186242914D02*
X192148628Y-186314342D01*
X192077200Y-186385771D01*
X192005771Y-186314342D01*
X192077200Y-186242914D01*
X192077200Y-186385771D01*
X192791485Y-186385771D02*
X192791485Y-184885771D01*
X192934342Y-185814342D02*
X193362914Y-186385771D01*
X193362914Y-185385771D02*
X192791485Y-185957200D01*
X194005771Y-186385771D02*
X194005771Y-185385771D01*
X194005771Y-184885771D02*
X193934342Y-184957200D01*
X194005771Y-185028628D01*
X194077200Y-184957200D01*
X194005771Y-184885771D01*
X194005771Y-185028628D01*
X195362914Y-186314342D02*
X195220057Y-186385771D01*
X194934342Y-186385771D01*
X194791485Y-186314342D01*
X194720057Y-186242914D01*
X194648628Y-186100057D01*
X194648628Y-185671485D01*
X194720057Y-185528628D01*
X194791485Y-185457200D01*
X194934342Y-185385771D01*
X195220057Y-185385771D01*
X195362914Y-185457200D01*
X196648628Y-186385771D02*
X196648628Y-185600057D01*
X196577200Y-185457200D01*
X196434342Y-185385771D01*
X196148628Y-185385771D01*
X196005771Y-185457200D01*
X196648628Y-186314342D02*
X196505771Y-186385771D01*
X196148628Y-186385771D01*
X196005771Y-186314342D01*
X195934342Y-186171485D01*
X195934342Y-186028628D01*
X196005771Y-185885771D01*
X196148628Y-185814342D01*
X196505771Y-185814342D01*
X196648628Y-185742914D01*
X198005771Y-186385771D02*
X198005771Y-184885771D01*
X198005771Y-186314342D02*
X197862914Y-186385771D01*
X197577200Y-186385771D01*
X197434342Y-186314342D01*
X197362914Y-186242914D01*
X197291485Y-186100057D01*
X197291485Y-185671485D01*
X197362914Y-185528628D01*
X197434342Y-185457200D01*
X197577200Y-185385771D01*
X197862914Y-185385771D01*
X198005771Y-185457200D01*
X198362914Y-186528628D02*
X199505771Y-186528628D01*
X199862914Y-185385771D02*
X199862914Y-186885771D01*
X199862914Y-185457200D02*
X200005771Y-185385771D01*
X200291485Y-185385771D01*
X200434342Y-185457200D01*
X200505771Y-185528628D01*
X200577200Y-185671485D01*
X200577200Y-186100057D01*
X200505771Y-186242914D01*
X200434342Y-186314342D01*
X200291485Y-186385771D01*
X200005771Y-186385771D01*
X199862914Y-186314342D01*
X201862914Y-186314342D02*
X201720057Y-186385771D01*
X201434342Y-186385771D01*
X201291485Y-186314342D01*
X201220057Y-186242914D01*
X201148628Y-186100057D01*
X201148628Y-185671485D01*
X201220057Y-185528628D01*
X201291485Y-185457200D01*
X201434342Y-185385771D01*
X201720057Y-185385771D01*
X201862914Y-185457200D01*
X202505771Y-186385771D02*
X202505771Y-184885771D01*
X202505771Y-185457200D02*
X202648628Y-185385771D01*
X202934342Y-185385771D01*
X203077200Y-185457200D01*
X203148628Y-185528628D01*
X203220057Y-185671485D01*
X203220057Y-186100057D01*
X203148628Y-186242914D01*
X203077200Y-186314342D01*
X202934342Y-186385771D01*
X202648628Y-186385771D01*
X202505771Y-186314342D01*
D10*
D11*
X177002200Y-181507200D02*
X285002200Y-181507200D01*
D10*
D11*
X178362914Y-183614342D02*
X178577200Y-183685771D01*
X178934342Y-183685771D01*
X179077200Y-183614342D01*
X179148628Y-183542914D01*
X179220057Y-183400057D01*
X179220057Y-183257200D01*
X179148628Y-183114342D01*
X179077200Y-183042914D01*
X178934342Y-182971485D01*
X178648628Y-182900057D01*
X178505771Y-182828628D01*
X178434342Y-182757200D01*
X178362914Y-182614342D01*
X178362914Y-182471485D01*
X178434342Y-182328628D01*
X178505771Y-182257200D01*
X178648628Y-182185771D01*
X179005771Y-182185771D01*
X179220057Y-182257200D01*
X179862914Y-183685771D02*
X179862914Y-182185771D01*
X180505771Y-183685771D02*
X180505771Y-182900057D01*
X180434342Y-182757200D01*
X180291485Y-182685771D01*
X180077200Y-182685771D01*
X179934342Y-182757200D01*
X179862914Y-182828628D01*
X181791485Y-183614342D02*
X181648628Y-183685771D01*
X181362914Y-183685771D01*
X181220057Y-183614342D01*
X181148628Y-183471485D01*
X181148628Y-182900057D01*
X181220057Y-182757200D01*
X181362914Y-182685771D01*
X181648628Y-182685771D01*
X181791485Y-182757200D01*
X181862914Y-182900057D01*
X181862914Y-183042914D01*
X181148628Y-183185771D01*
X183077200Y-183614342D02*
X182934342Y-183685771D01*
X182648628Y-183685771D01*
X182505771Y-183614342D01*
X182434342Y-183471485D01*
X182434342Y-182900057D01*
X182505771Y-182757200D01*
X182648628Y-182685771D01*
X182934342Y-182685771D01*
X183077200Y-182757200D01*
X183148628Y-182900057D01*
X183148628Y-183042914D01*
X182434342Y-183185771D01*
X183577200Y-182685771D02*
X184148628Y-182685771D01*
X183791485Y-182185771D02*
X183791485Y-183471485D01*
X183862914Y-183614342D01*
X184005771Y-183685771D01*
X184148628Y-183685771D01*
X184648628Y-183542914D02*
X184720057Y-183614342D01*
X184648628Y-183685771D01*
X184577200Y-183614342D01*
X184648628Y-183542914D01*
X184648628Y-183685771D01*
X184648628Y-182757200D02*
X184720057Y-182828628D01*
X184648628Y-182900057D01*
X184577200Y-182828628D01*
X184648628Y-182757200D01*
X184648628Y-182900057D01*
D10*
D12*
X178340057Y-179185771D02*
X178840057Y-180685771D01*
X179340057Y-179185771D01*
X180697200Y-180685771D02*
X180197200Y-179971485D01*
X179840057Y-180685771D02*
X179840057Y-179185771D01*
X180411485Y-179185771D01*
X180554342Y-179257200D01*
X180625771Y-179328628D01*
X180697200Y-179471485D01*
X180697200Y-179685771D01*
X180625771Y-179828628D01*
X180554342Y-179900057D01*
X180411485Y-179971485D01*
X179840057Y-179971485D01*
X182054342Y-180685771D02*
X181340057Y-180685771D01*
X181340057Y-179185771D01*
X182482914Y-180257200D02*
X183197200Y-180257200D01*
X182340057Y-180685771D02*
X182840057Y-179185771D01*
X183340057Y-180685771D01*
X184340057Y-179900057D02*
X184554342Y-179971485D01*
X184625771Y-180042914D01*
X184697200Y-180185771D01*
X184697200Y-180400057D01*
X184625771Y-180542914D01*
X184554342Y-180614342D01*
X184411485Y-180685771D01*
X183840057Y-180685771D01*
X183840057Y-179185771D01*
X184340057Y-179185771D01*
X184482914Y-179257200D01*
X184554342Y-179328628D01*
X184625771Y-179471485D01*
X184625771Y-179614342D01*
X184554342Y-179757200D01*
X184482914Y-179828628D01*
X184340057Y-179900057D01*
X183840057Y-179900057D01*
X185340057Y-180114342D02*
X186482914Y-180114342D01*
X187197200Y-180685771D02*
X187197200Y-179185771D01*
X188054342Y-180685771D02*
X187411485Y-179828628D01*
X188054342Y-179185771D02*
X187197200Y-180042914D01*
X189554342Y-180542914D02*
X189482914Y-180614342D01*
X189268628Y-180685771D01*
X189125771Y-180685771D01*
X188911485Y-180614342D01*
X188768628Y-180471485D01*
X188697200Y-180328628D01*
X188625771Y-180042914D01*
X188625771Y-179828628D01*
X188697200Y-179542914D01*
X188768628Y-179400057D01*
X188911485Y-179257200D01*
X189125771Y-179185771D01*
X189268628Y-179185771D01*
X189482914Y-179257200D01*
X189554342Y-179328628D01*
D10*
D11*
D10*
D11*
D10*
D11*
D10*
D11*
D10*
D11*
X197002200Y-191507200D02*
X197002200Y-194507200D01*
D10*
D11*
X261002200Y-191507200D02*
X261002200Y-198007200D01*
X188380000Y-121500000D02*
X188380000Y-120500000D01*
X117380000Y-127000000D02*
X117380000Y-127500000D01*
X136380000Y-107500000D02*
X137380000Y-107500000D01*
X169380000Y-107500000D02*
X169380000Y-108500000D01*
X187380000Y-107500000D02*
X188380000Y-107500000D01*
X156380000Y-98000000D02*
X156380000Y-99000000D01*
X117380000Y-120500000D02*
X117380000Y-121500000D01*
X136380000Y-108500000D02*
X136380000Y-107500000D01*
X130380000Y-140500000D02*
X131380000Y-140500000D01*
X168380000Y-140500000D02*
X169380000Y-140500000D01*
X155380000Y-140500000D02*
X156380000Y-140500000D01*
X150380000Y-107500000D02*
X150380000Y-108500000D01*
X150380000Y-126500000D02*
X150380000Y-127500000D01*
X130880000Y-121500000D02*
X131380000Y-121500000D01*
X155380000Y-121500000D02*
X156380000Y-121500000D01*
X169380000Y-126500000D02*
X168380000Y-126500000D01*
X155380000Y-139500000D02*
X155380000Y-140500000D01*
X117380000Y-140500000D02*
X118380000Y-140500000D01*
X136380000Y-120500000D02*
X136380000Y-121500000D01*
X175380000Y-126500000D02*
X174380000Y-126500000D01*
X150380000Y-140500000D02*
X150380000Y-139500000D01*
X156380000Y-107500000D02*
X155380000Y-107500000D01*
X187380000Y-126500000D02*
X188380000Y-126500000D01*
X130380000Y-107500000D02*
X131380000Y-107500000D01*
X142380000Y-85000000D02*
X142380000Y-86000000D01*
X155380000Y-85000000D02*
X156380000Y-85000000D01*
X117380000Y-108500000D02*
X117380000Y-107500000D01*
X143380000Y-85000000D02*
X142380000Y-85000000D01*
X175380000Y-140500000D02*
X174380000Y-140500000D01*
X131380000Y-126500000D02*
X131380000Y-127000000D01*
X131380000Y-120500000D02*
X131380000Y-121500000D01*
X131380000Y-107500000D02*
X131380000Y-108500000D01*
X174380000Y-120500000D02*
X174380000Y-121500000D01*
X117380000Y-139500000D02*
X117380000Y-140500000D01*
X149380000Y-126500000D02*
X150380000Y-126500000D01*
X142380000Y-99000000D02*
X143380000Y-99000000D01*
X136380000Y-121500000D02*
X137380000Y-121500000D01*
X142380000Y-86000000D02*
X142380000Y-85000000D01*
X169380000Y-127500000D02*
X169380000Y-126500000D01*
X149380000Y-107500000D02*
X150380000Y-107500000D01*
X130380000Y-121500000D02*
X131380000Y-121500000D01*
X117380000Y-107500000D02*
X118380000Y-107500000D01*
X188380000Y-107500000D02*
X188380000Y-108500000D01*
X188380000Y-126500000D02*
X188380000Y-127500000D01*
X131380000Y-121500000D02*
X130380000Y-121500000D01*
X169380000Y-140500000D02*
X169380000Y-139500000D01*
X168380000Y-107500000D02*
X169380000Y-107500000D01*
X131380000Y-127000000D02*
X131380000Y-127500000D01*
X174380000Y-140500000D02*
X174380000Y-139500000D01*
X142380000Y-98000000D02*
X142380000Y-99000000D01*
X174380000Y-127500000D02*
X174380000Y-126500000D01*
X136380000Y-126500000D02*
X137380000Y-126500000D01*
X131380000Y-140000000D02*
X131380000Y-140500000D01*
X187380000Y-121500000D02*
X188380000Y-121500000D01*
X130380000Y-126500000D02*
X131380000Y-126500000D01*
X156380000Y-126500000D02*
X155380000Y-126500000D01*
X155380000Y-107500000D02*
X155380000Y-108500000D01*
X155380000Y-99000000D02*
X156380000Y-99000000D01*
X174380000Y-121500000D02*
X175380000Y-121500000D01*
X188380000Y-139500000D02*
X188380000Y-140500000D01*
X149380000Y-140500000D02*
X150380000Y-140500000D01*
X169380000Y-120500000D02*
X169380000Y-121500000D01*
X117380000Y-127000000D02*
X117380000Y-126500000D01*
X117380000Y-121500000D02*
X118380000Y-121500000D01*
X174380000Y-108500000D02*
X174380000Y-107500000D01*
X136380000Y-127500000D02*
X136380000Y-126500000D01*
X136380000Y-140500000D02*
X137380000Y-140500000D01*
X131380000Y-139500000D02*
X131380000Y-140000000D01*
X155380000Y-126500000D02*
X155380000Y-127500000D01*
X136380000Y-139500000D02*
X136380000Y-140500000D01*
X188380000Y-140500000D02*
X187380000Y-140500000D01*
X156380000Y-85000000D02*
X156380000Y-86000000D01*
X118380000Y-126500000D02*
X117380000Y-126500000D01*
X118380000Y-107500000D02*
X117380000Y-107500000D01*
X150380000Y-121500000D02*
X150380000Y-120500000D01*
X155380000Y-120500000D02*
X155380000Y-121500000D01*
X174380000Y-107500000D02*
X175380000Y-107500000D01*
X169380000Y-121500000D02*
X168380000Y-121500000D01*
X117380000Y-126500000D02*
X118380000Y-126500000D01*
X149380000Y-121500000D02*
X150380000Y-121500000D01*
G04 #@! TO.C,D8*
X180451904Y-107452380D02*
X180451904Y-106452380D01*
X180690000Y-106452380D01*
X180832857Y-106500000D01*
X180928095Y-106595238D01*
X180975714Y-106690476D01*
X181023333Y-106880952D01*
X181023333Y-107023809D01*
X180975714Y-107214285D01*
X180928095Y-107309523D01*
X180832857Y-107404761D01*
X180690000Y-107452380D01*
X180451904Y-107452380D01*
X181594761Y-106880952D02*
X181499523Y-106833333D01*
X181451904Y-106785714D01*
X181404285Y-106690476D01*
X181404285Y-106642857D01*
X181451904Y-106547619D01*
X181499523Y-106500000D01*
X181594761Y-106452380D01*
X181785238Y-106452380D01*
X181880476Y-106500000D01*
X181928095Y-106547619D01*
X181975714Y-106642857D01*
X181975714Y-106690476D01*
X181928095Y-106785714D01*
X181880476Y-106833333D01*
X181785238Y-106880952D01*
X181594761Y-106880952D01*
X181499523Y-106928571D01*
X181451904Y-106976190D01*
X181404285Y-107071428D01*
X181404285Y-107261904D01*
X181451904Y-107357142D01*
X181499523Y-107404761D01*
X181594761Y-107452380D01*
X181785238Y-107452380D01*
X181880476Y-107404761D01*
X181928095Y-107357142D01*
X181975714Y-107261904D01*
X181975714Y-107071428D01*
X181928095Y-106976190D01*
X181880476Y-106928571D01*
X181785238Y-106880952D01*
G04 #@! TO.C,D9*
X136521904Y-90452380D02*
X136521904Y-89452380D01*
X136760000Y-89452380D01*
X136902857Y-89500000D01*
X136998095Y-89595238D01*
X137045714Y-89690476D01*
X137093333Y-89880952D01*
X137093333Y-90023809D01*
X137045714Y-90214285D01*
X136998095Y-90309523D01*
X136902857Y-90404761D01*
X136760000Y-90452380D01*
X136521904Y-90452380D01*
X137569523Y-90452380D02*
X137760000Y-90452380D01*
X137855238Y-90404761D01*
X137902857Y-90357142D01*
X137998095Y-90214285D01*
X138045714Y-90023809D01*
X138045714Y-89642857D01*
X137998095Y-89547619D01*
X137950476Y-89500000D01*
X137855238Y-89452380D01*
X137664761Y-89452380D01*
X137569523Y-89500000D01*
X137521904Y-89547619D01*
X137474285Y-89642857D01*
X137474285Y-89880952D01*
X137521904Y-89976190D01*
X137569523Y-90023809D01*
X137664761Y-90071428D01*
X137855238Y-90071428D01*
X137950476Y-90023809D01*
X137998095Y-89976190D01*
X138045714Y-89880952D01*
G04 #@! TO.C,D6*
X142641904Y-126572380D02*
X142641904Y-125572380D01*
X142880000Y-125572380D01*
X143022857Y-125620000D01*
X143118095Y-125715238D01*
X143165714Y-125810476D01*
X143213333Y-126000952D01*
X143213333Y-126143809D01*
X143165714Y-126334285D01*
X143118095Y-126429523D01*
X143022857Y-126524761D01*
X142880000Y-126572380D01*
X142641904Y-126572380D01*
X144070476Y-125572380D02*
X143880000Y-125572380D01*
X143784761Y-125620000D01*
X143737142Y-125667619D01*
X143641904Y-125810476D01*
X143594285Y-126000952D01*
X143594285Y-126381904D01*
X143641904Y-126477142D01*
X143689523Y-126524761D01*
X143784761Y-126572380D01*
X143975238Y-126572380D01*
X144070476Y-126524761D01*
X144118095Y-126477142D01*
X144165714Y-126381904D01*
X144165714Y-126143809D01*
X144118095Y-126048571D01*
X144070476Y-126000952D01*
X143975238Y-125953333D01*
X143784761Y-125953333D01*
X143689523Y-126000952D01*
X143641904Y-126048571D01*
X143594285Y-126143809D01*
G04 #@! TO.C,SW11*
X178308571Y-71428571D02*
X178641904Y-71428571D01*
X178784761Y-71952380D02*
X178308571Y-71952380D01*
X178308571Y-70952380D01*
X178784761Y-70952380D01*
X179213333Y-71285714D02*
X179213333Y-71952380D01*
X179213333Y-71380952D02*
X179260952Y-71333333D01*
X179356190Y-71285714D01*
X179499047Y-71285714D01*
X179594285Y-71333333D01*
X179641904Y-71428571D01*
X179641904Y-71952380D01*
X180546666Y-71904761D02*
X180451428Y-71952380D01*
X180260952Y-71952380D01*
X180165714Y-71904761D01*
X180118095Y-71857142D01*
X180070476Y-71761904D01*
X180070476Y-71476190D01*
X180118095Y-71380952D01*
X180165714Y-71333333D01*
X180260952Y-71285714D01*
X180451428Y-71285714D01*
X180546666Y-71333333D01*
X180927619Y-71047619D02*
X180975238Y-71000000D01*
X181070476Y-70952380D01*
X181308571Y-70952380D01*
X181403809Y-71000000D01*
X181451428Y-71047619D01*
X181499047Y-71142857D01*
X181499047Y-71238095D01*
X181451428Y-71380952D01*
X180880000Y-71952380D01*
X181499047Y-71952380D01*
G04 #@! TO.C,D2*
X142641904Y-107572380D02*
X142641904Y-106572380D01*
X142880000Y-106572380D01*
X143022857Y-106620000D01*
X143118095Y-106715238D01*
X143165714Y-106810476D01*
X143213333Y-107000952D01*
X143213333Y-107143809D01*
X143165714Y-107334285D01*
X143118095Y-107429523D01*
X143022857Y-107524761D01*
X142880000Y-107572380D01*
X142641904Y-107572380D01*
X143594285Y-106667619D02*
X143641904Y-106620000D01*
X143737142Y-106572380D01*
X143975238Y-106572380D01*
X144070476Y-106620000D01*
X144118095Y-106667619D01*
X144165714Y-106762857D01*
X144165714Y-106858095D01*
X144118095Y-107000952D01*
X143546666Y-107572380D01*
X144165714Y-107572380D01*
G04 #@! TO.C,SW12*
X132632380Y-58988095D02*
X132156190Y-59321428D01*
X132632380Y-59559523D02*
X131632380Y-59559523D01*
X131632380Y-59178571D01*
X131680000Y-59083333D01*
X131727619Y-59035714D01*
X131822857Y-58988095D01*
X131965714Y-58988095D01*
X132060952Y-59035714D01*
X132108571Y-59083333D01*
X132156190Y-59178571D01*
X132156190Y-59559523D01*
X132584761Y-58178571D02*
X132632380Y-58273809D01*
X132632380Y-58464285D01*
X132584761Y-58559523D01*
X132489523Y-58607142D01*
X132108571Y-58607142D01*
X132013333Y-58559523D01*
X131965714Y-58464285D01*
X131965714Y-58273809D01*
X132013333Y-58178571D01*
X132108571Y-58130952D01*
X132203809Y-58130952D01*
X132299047Y-58607142D01*
X132584761Y-57750000D02*
X132632380Y-57654761D01*
X132632380Y-57464285D01*
X132584761Y-57369047D01*
X132489523Y-57321428D01*
X132441904Y-57321428D01*
X132346666Y-57369047D01*
X132299047Y-57464285D01*
X132299047Y-57607142D01*
X132251428Y-57702380D01*
X132156190Y-57750000D01*
X132108571Y-57750000D01*
X132013333Y-57702380D01*
X131965714Y-57607142D01*
X131965714Y-57464285D01*
X132013333Y-57369047D01*
X132584761Y-56511904D02*
X132632380Y-56607142D01*
X132632380Y-56797619D01*
X132584761Y-56892857D01*
X132489523Y-56940476D01*
X132108571Y-56940476D01*
X132013333Y-56892857D01*
X131965714Y-56797619D01*
X131965714Y-56607142D01*
X132013333Y-56511904D01*
X132108571Y-56464285D01*
X132203809Y-56464285D01*
X132299047Y-56940476D01*
X131965714Y-56178571D02*
X131965714Y-55797619D01*
X131632380Y-56035714D02*
X132489523Y-56035714D01*
X132584761Y-55988095D01*
X132632380Y-55892857D01*
X132632380Y-55797619D01*
G04 #@! TO.C,D7*
X161951904Y-126572380D02*
X161951904Y-125572380D01*
X162190000Y-125572380D01*
X162332857Y-125620000D01*
X162428095Y-125715238D01*
X162475714Y-125810476D01*
X162523333Y-126000952D01*
X162523333Y-126143809D01*
X162475714Y-126334285D01*
X162428095Y-126429523D01*
X162332857Y-126524761D01*
X162190000Y-126572380D01*
X161951904Y-126572380D01*
X162856666Y-125572380D02*
X163523333Y-125572380D01*
X163094761Y-126572380D01*
G04 #@! TO.C,D5*
X123641904Y-126572380D02*
X123641904Y-125572380D01*
X123880000Y-125572380D01*
X124022857Y-125620000D01*
X124118095Y-125715238D01*
X124165714Y-125810476D01*
X124213333Y-126000952D01*
X124213333Y-126143809D01*
X124165714Y-126334285D01*
X124118095Y-126429523D01*
X124022857Y-126524761D01*
X123880000Y-126572380D01*
X123641904Y-126572380D01*
X125118095Y-125572380D02*
X124641904Y-125572380D01*
X124594285Y-126048571D01*
X124641904Y-126000952D01*
X124737142Y-125953333D01*
X124975238Y-125953333D01*
X125070476Y-126000952D01*
X125118095Y-126048571D01*
X125165714Y-126143809D01*
X125165714Y-126381904D01*
X125118095Y-126477142D01*
X125070476Y-126524761D01*
X124975238Y-126572380D01*
X124737142Y-126572380D01*
X124641904Y-126524761D01*
X124594285Y-126477142D01*
G04 #@! TO.C,SW10*
X148808571Y-60428571D02*
X149141904Y-60428571D01*
X149284761Y-60952380D02*
X148808571Y-60952380D01*
X148808571Y-59952380D01*
X149284761Y-59952380D01*
X149713333Y-60285714D02*
X149713333Y-60952380D01*
X149713333Y-60380952D02*
X149760952Y-60333333D01*
X149856190Y-60285714D01*
X149999047Y-60285714D01*
X150094285Y-60333333D01*
X150141904Y-60428571D01*
X150141904Y-60952380D01*
X151046666Y-60904761D02*
X150951428Y-60952380D01*
X150760952Y-60952380D01*
X150665714Y-60904761D01*
X150618095Y-60857142D01*
X150570476Y-60761904D01*
X150570476Y-60476190D01*
X150618095Y-60380952D01*
X150665714Y-60333333D01*
X150760952Y-60285714D01*
X150951428Y-60285714D01*
X151046666Y-60333333D01*
X151999047Y-60952380D02*
X151427619Y-60952380D01*
X151713333Y-60952380D02*
X151713333Y-59952380D01*
X151618095Y-60095238D01*
X151522857Y-60190476D01*
X151427619Y-60238095D01*
G04 #@! TO.C,D3*
X161641904Y-107452380D02*
X161641904Y-106452380D01*
X161880000Y-106452380D01*
X162022857Y-106500000D01*
X162118095Y-106595238D01*
X162165714Y-106690476D01*
X162213333Y-106880952D01*
X162213333Y-107023809D01*
X162165714Y-107214285D01*
X162118095Y-107309523D01*
X162022857Y-107404761D01*
X161880000Y-107452380D01*
X161641904Y-107452380D01*
X162546666Y-106452380D02*
X163165714Y-106452380D01*
X162832380Y-106833333D01*
X162975238Y-106833333D01*
X163070476Y-106880952D01*
X163118095Y-106928571D01*
X163165714Y-107023809D01*
X163165714Y-107261904D01*
X163118095Y-107357142D01*
X163070476Y-107404761D01*
X162975238Y-107452380D01*
X162689523Y-107452380D01*
X162594285Y-107404761D01*
X162546666Y-107357142D01*
G04 #@! TO.C,D1*
X123641904Y-107572380D02*
X123641904Y-106572380D01*
X123880000Y-106572380D01*
X124022857Y-106620000D01*
X124118095Y-106715238D01*
X124165714Y-106810476D01*
X124213333Y-107000952D01*
X124213333Y-107143809D01*
X124165714Y-107334285D01*
X124118095Y-107429523D01*
X124022857Y-107524761D01*
X123880000Y-107572380D01*
X123641904Y-107572380D01*
X125165714Y-107572380D02*
X124594285Y-107572380D01*
X124880000Y-107572380D02*
X124880000Y-106572380D01*
X124784761Y-106715238D01*
X124689523Y-106810476D01*
X124594285Y-106858095D01*
G04 #@! TO.C,D4*
X180641904Y-126452380D02*
X180641904Y-125452380D01*
X180880000Y-125452380D01*
X181022857Y-125500000D01*
X181118095Y-125595238D01*
X181165714Y-125690476D01*
X181213333Y-125880952D01*
X181213333Y-126023809D01*
X181165714Y-126214285D01*
X181118095Y-126309523D01*
X181022857Y-126404761D01*
X180880000Y-126452380D01*
X180641904Y-126452380D01*
X182070476Y-125785714D02*
X182070476Y-126452380D01*
X181832380Y-125404761D02*
X181594285Y-126119047D01*
X182213333Y-126119047D01*
D14*
G04 #@! TO.C,U1*
X116289380Y-77103571D02*
X116385095Y-77139285D01*
X116544619Y-77139285D01*
X116608428Y-77103571D01*
X116640333Y-77067857D01*
X116672238Y-76996428D01*
X116672238Y-76925000D01*
X116640333Y-76853571D01*
X116608428Y-76817857D01*
X116544619Y-76782142D01*
X116417000Y-76746428D01*
X116353190Y-76710714D01*
X116321285Y-76675000D01*
X116289380Y-76603571D01*
X116289380Y-76532142D01*
X116321285Y-76460714D01*
X116353190Y-76425000D01*
X116417000Y-76389285D01*
X116576523Y-76389285D01*
X116672238Y-76425000D01*
X117342238Y-77067857D02*
X117310333Y-77103571D01*
X117214619Y-77139285D01*
X117150809Y-77139285D01*
X117055095Y-77103571D01*
X116991285Y-77032142D01*
X116959380Y-76960714D01*
X116927476Y-76817857D01*
X116927476Y-76710714D01*
X116959380Y-76567857D01*
X116991285Y-76496428D01*
X117055095Y-76425000D01*
X117150809Y-76389285D01*
X117214619Y-76389285D01*
X117310333Y-76425000D01*
X117342238Y-76460714D01*
X117948428Y-77139285D02*
X117629380Y-77139285D01*
X117629380Y-76389285D01*
X118650333Y-76353571D02*
X118076047Y-77317857D01*
X118873666Y-77139285D02*
X118873666Y-76389285D01*
X119033190Y-76389285D01*
X119128904Y-76425000D01*
X119192714Y-76496428D01*
X119224619Y-76567857D01*
X119256523Y-76710714D01*
X119256523Y-76817857D01*
X119224619Y-76960714D01*
X119192714Y-77032142D01*
X119128904Y-77103571D01*
X119033190Y-77139285D01*
X118873666Y-77139285D01*
X119671285Y-76389285D02*
X119735095Y-76389285D01*
X119798904Y-76425000D01*
X119830809Y-76460714D01*
X119862714Y-76532142D01*
X119894619Y-76675000D01*
X119894619Y-76853571D01*
X119862714Y-76996428D01*
X119830809Y-77067857D01*
X119798904Y-77103571D01*
X119735095Y-77139285D01*
X119671285Y-77139285D01*
X119607476Y-77103571D01*
X119575571Y-77067857D01*
X119543666Y-76996428D01*
X119511761Y-76853571D01*
X119511761Y-76675000D01*
X119543666Y-76532142D01*
X119575571Y-76460714D01*
X119607476Y-76425000D01*
X119671285Y-76389285D01*
X120660333Y-76353571D02*
X120086047Y-77317857D01*
X120819857Y-76389285D02*
X121234619Y-76389285D01*
X121011285Y-76675000D01*
X121107000Y-76675000D01*
X121170809Y-76710714D01*
X121202714Y-76746428D01*
X121234619Y-76817857D01*
X121234619Y-76996428D01*
X121202714Y-77067857D01*
X121170809Y-77103571D01*
X121107000Y-77139285D01*
X120915571Y-77139285D01*
X120851761Y-77103571D01*
X120819857Y-77067857D01*
X116670809Y-91846428D02*
X116766523Y-91882142D01*
X116798428Y-91917857D01*
X116830333Y-91989285D01*
X116830333Y-92096428D01*
X116798428Y-92167857D01*
X116766523Y-92203571D01*
X116702714Y-92239285D01*
X116447476Y-92239285D01*
X116447476Y-91489285D01*
X116670809Y-91489285D01*
X116734619Y-91525000D01*
X116766523Y-91560714D01*
X116798428Y-91632142D01*
X116798428Y-91703571D01*
X116766523Y-91775000D01*
X116734619Y-91810714D01*
X116670809Y-91846428D01*
X116447476Y-91846428D01*
X117436523Y-91489285D02*
X117117476Y-91489285D01*
X117085571Y-91846428D01*
X117117476Y-91810714D01*
X117181285Y-91775000D01*
X117340809Y-91775000D01*
X117404619Y-91810714D01*
X117436523Y-91846428D01*
X117468428Y-91917857D01*
X117468428Y-92096428D01*
X117436523Y-92167857D01*
X117404619Y-92203571D01*
X117340809Y-92239285D01*
X117181285Y-92239285D01*
X117117476Y-92203571D01*
X117085571Y-92167857D01*
X118234142Y-91453571D02*
X117659857Y-92417857D01*
X118489380Y-92239285D02*
X118617000Y-92239285D01*
X118680809Y-92203571D01*
X118712714Y-92167857D01*
X118776523Y-92060714D01*
X118808428Y-91917857D01*
X118808428Y-91632142D01*
X118776523Y-91560714D01*
X118744619Y-91525000D01*
X118680809Y-91489285D01*
X118553190Y-91489285D01*
X118489380Y-91525000D01*
X118457476Y-91560714D01*
X118425571Y-91632142D01*
X118425571Y-91810714D01*
X118457476Y-91882142D01*
X118489380Y-91917857D01*
X118553190Y-91953571D01*
X118680809Y-91953571D01*
X118744619Y-91917857D01*
X118776523Y-91882142D01*
X118808428Y-91810714D01*
X125931380Y-84689285D02*
X125548523Y-84689285D01*
X125739952Y-84689285D02*
X125739952Y-83939285D01*
X125676142Y-84046428D01*
X125612333Y-84117857D01*
X125548523Y-84153571D01*
X126537571Y-83939285D02*
X126218523Y-83939285D01*
X126186619Y-84296428D01*
X126218523Y-84260714D01*
X126282333Y-84225000D01*
X126441857Y-84225000D01*
X126505666Y-84260714D01*
X126537571Y-84296428D01*
X126569476Y-84367857D01*
X126569476Y-84546428D01*
X126537571Y-84617857D01*
X126505666Y-84653571D01*
X126441857Y-84689285D01*
X126282333Y-84689285D01*
X126218523Y-84653571D01*
X126186619Y-84617857D01*
X127335190Y-83903571D02*
X126760904Y-84867857D01*
X127781857Y-84296428D02*
X127877571Y-84332142D01*
X127909476Y-84367857D01*
X127941380Y-84439285D01*
X127941380Y-84546428D01*
X127909476Y-84617857D01*
X127877571Y-84653571D01*
X127813761Y-84689285D01*
X127558523Y-84689285D01*
X127558523Y-83939285D01*
X127781857Y-83939285D01*
X127845666Y-83975000D01*
X127877571Y-84010714D01*
X127909476Y-84082142D01*
X127909476Y-84153571D01*
X127877571Y-84225000D01*
X127845666Y-84260714D01*
X127781857Y-84296428D01*
X127558523Y-84296428D01*
X128579476Y-84689285D02*
X128196619Y-84689285D01*
X128388047Y-84689285D02*
X128388047Y-83939285D01*
X128324238Y-84046428D01*
X128260428Y-84117857D01*
X128196619Y-84153571D01*
X126820666Y-71139285D02*
X127044000Y-71889285D01*
X127267333Y-71139285D01*
X127873523Y-71817857D02*
X127841619Y-71853571D01*
X127745904Y-71889285D01*
X127682095Y-71889285D01*
X127586380Y-71853571D01*
X127522571Y-71782142D01*
X127490666Y-71710714D01*
X127458761Y-71567857D01*
X127458761Y-71460714D01*
X127490666Y-71317857D01*
X127522571Y-71246428D01*
X127586380Y-71175000D01*
X127682095Y-71139285D01*
X127745904Y-71139285D01*
X127841619Y-71175000D01*
X127873523Y-71210714D01*
X128543523Y-71817857D02*
X128511619Y-71853571D01*
X128415904Y-71889285D01*
X128352095Y-71889285D01*
X128256380Y-71853571D01*
X128192571Y-71782142D01*
X128160666Y-71710714D01*
X128128761Y-71567857D01*
X128128761Y-71460714D01*
X128160666Y-71317857D01*
X128192571Y-71246428D01*
X128256380Y-71175000D01*
X128352095Y-71139285D01*
X128415904Y-71139285D01*
X128511619Y-71175000D01*
X128543523Y-71210714D01*
X116830333Y-82017857D02*
X116798428Y-82053571D01*
X116702714Y-82089285D01*
X116638904Y-82089285D01*
X116543190Y-82053571D01*
X116479380Y-81982142D01*
X116447476Y-81910714D01*
X116415571Y-81767857D01*
X116415571Y-81660714D01*
X116447476Y-81517857D01*
X116479380Y-81446428D01*
X116543190Y-81375000D01*
X116638904Y-81339285D01*
X116702714Y-81339285D01*
X116798428Y-81375000D01*
X116830333Y-81410714D01*
X117404619Y-81339285D02*
X117277000Y-81339285D01*
X117213190Y-81375000D01*
X117181285Y-81410714D01*
X117117476Y-81517857D01*
X117085571Y-81660714D01*
X117085571Y-81946428D01*
X117117476Y-82017857D01*
X117149380Y-82053571D01*
X117213190Y-82089285D01*
X117340809Y-82089285D01*
X117404619Y-82053571D01*
X117436523Y-82017857D01*
X117468428Y-81946428D01*
X117468428Y-81767857D01*
X117436523Y-81696428D01*
X117404619Y-81660714D01*
X117340809Y-81625000D01*
X117213190Y-81625000D01*
X117149380Y-81660714D01*
X117117476Y-81696428D01*
X117085571Y-81767857D01*
X118234142Y-81303571D02*
X117659857Y-82267857D01*
X118776523Y-81339285D02*
X118457476Y-81339285D01*
X118425571Y-81696428D01*
X118457476Y-81660714D01*
X118521285Y-81625000D01*
X118680809Y-81625000D01*
X118744619Y-81660714D01*
X118776523Y-81696428D01*
X118808428Y-81767857D01*
X118808428Y-81946428D01*
X118776523Y-82017857D01*
X118744619Y-82053571D01*
X118680809Y-82089285D01*
X118521285Y-82089285D01*
X118457476Y-82053571D01*
X118425571Y-82017857D01*
X116670809Y-89346428D02*
X116766523Y-89382142D01*
X116798428Y-89417857D01*
X116830333Y-89489285D01*
X116830333Y-89596428D01*
X116798428Y-89667857D01*
X116766523Y-89703571D01*
X116702714Y-89739285D01*
X116447476Y-89739285D01*
X116447476Y-88989285D01*
X116670809Y-88989285D01*
X116734619Y-89025000D01*
X116766523Y-89060714D01*
X116798428Y-89132142D01*
X116798428Y-89203571D01*
X116766523Y-89275000D01*
X116734619Y-89310714D01*
X116670809Y-89346428D01*
X116447476Y-89346428D01*
X117404619Y-89239285D02*
X117404619Y-89739285D01*
X117245095Y-88953571D02*
X117085571Y-89489285D01*
X117500333Y-89489285D01*
X118234142Y-88953571D02*
X117659857Y-89917857D01*
X118553190Y-89310714D02*
X118489380Y-89275000D01*
X118457476Y-89239285D01*
X118425571Y-89167857D01*
X118425571Y-89132142D01*
X118457476Y-89060714D01*
X118489380Y-89025000D01*
X118553190Y-88989285D01*
X118680809Y-88989285D01*
X118744619Y-89025000D01*
X118776523Y-89060714D01*
X118808428Y-89132142D01*
X118808428Y-89167857D01*
X118776523Y-89239285D01*
X118744619Y-89275000D01*
X118680809Y-89310714D01*
X118553190Y-89310714D01*
X118489380Y-89346428D01*
X118457476Y-89382142D01*
X118425571Y-89453571D01*
X118425571Y-89596428D01*
X118457476Y-89667857D01*
X118489380Y-89703571D01*
X118553190Y-89739285D01*
X118680809Y-89739285D01*
X118744619Y-89703571D01*
X118776523Y-89667857D01*
X118808428Y-89596428D01*
X118808428Y-89453571D01*
X118776523Y-89382142D01*
X118744619Y-89346428D01*
X118680809Y-89310714D01*
X116447476Y-84639285D02*
X116447476Y-83889285D01*
X116607000Y-83889285D01*
X116702714Y-83925000D01*
X116766523Y-83996428D01*
X116798428Y-84067857D01*
X116830333Y-84210714D01*
X116830333Y-84317857D01*
X116798428Y-84460714D01*
X116766523Y-84532142D01*
X116702714Y-84603571D01*
X116607000Y-84639285D01*
X116447476Y-84639285D01*
X117053666Y-83889285D02*
X117500333Y-83889285D01*
X117213190Y-84639285D01*
X118234142Y-83853571D02*
X117659857Y-84817857D01*
X118744619Y-83889285D02*
X118617000Y-83889285D01*
X118553190Y-83925000D01*
X118521285Y-83960714D01*
X118457476Y-84067857D01*
X118425571Y-84210714D01*
X118425571Y-84496428D01*
X118457476Y-84567857D01*
X118489380Y-84603571D01*
X118553190Y-84639285D01*
X118680809Y-84639285D01*
X118744619Y-84603571D01*
X118776523Y-84567857D01*
X118808428Y-84496428D01*
X118808428Y-84317857D01*
X118776523Y-84246428D01*
X118744619Y-84210714D01*
X118680809Y-84175000D01*
X118553190Y-84175000D01*
X118489380Y-84210714D01*
X118457476Y-84246428D01*
X118425571Y-84317857D01*
X116447476Y-79539285D02*
X116447476Y-78789285D01*
X116607000Y-78789285D01*
X116702714Y-78825000D01*
X116766523Y-78896428D01*
X116798428Y-78967857D01*
X116830333Y-79110714D01*
X116830333Y-79217857D01*
X116798428Y-79360714D01*
X116766523Y-79432142D01*
X116702714Y-79503571D01*
X116607000Y-79539285D01*
X116447476Y-79539285D01*
X117404619Y-79039285D02*
X117404619Y-79539285D01*
X117245095Y-78753571D02*
X117085571Y-79289285D01*
X117500333Y-79289285D01*
X118234142Y-78753571D02*
X117659857Y-79717857D01*
X118744619Y-79039285D02*
X118744619Y-79539285D01*
X118585095Y-78753571D02*
X118425571Y-79289285D01*
X118840333Y-79289285D01*
X116601523Y-71275000D02*
X116537714Y-71239285D01*
X116442000Y-71239285D01*
X116346285Y-71275000D01*
X116282476Y-71346428D01*
X116250571Y-71417857D01*
X116218666Y-71560714D01*
X116218666Y-71667857D01*
X116250571Y-71810714D01*
X116282476Y-71882142D01*
X116346285Y-71953571D01*
X116442000Y-71989285D01*
X116505809Y-71989285D01*
X116601523Y-71953571D01*
X116633428Y-71917857D01*
X116633428Y-71667857D01*
X116505809Y-71667857D01*
X116920571Y-71989285D02*
X116920571Y-71239285D01*
X117303428Y-71989285D01*
X117303428Y-71239285D01*
X117622476Y-71989285D02*
X117622476Y-71239285D01*
X117782000Y-71239285D01*
X117877714Y-71275000D01*
X117941523Y-71346428D01*
X117973428Y-71417857D01*
X118005333Y-71560714D01*
X118005333Y-71667857D01*
X117973428Y-71810714D01*
X117941523Y-71882142D01*
X117877714Y-71953571D01*
X117782000Y-71989285D01*
X117622476Y-71989285D01*
X125931380Y-87239285D02*
X125548523Y-87239285D01*
X125739952Y-87239285D02*
X125739952Y-86489285D01*
X125676142Y-86596428D01*
X125612333Y-86667857D01*
X125548523Y-86703571D01*
X126505666Y-86739285D02*
X126505666Y-87239285D01*
X126346142Y-86453571D02*
X126186619Y-86989285D01*
X126601380Y-86989285D01*
X127335190Y-86453571D02*
X126760904Y-87417857D01*
X127781857Y-86846428D02*
X127877571Y-86882142D01*
X127909476Y-86917857D01*
X127941380Y-86989285D01*
X127941380Y-87096428D01*
X127909476Y-87167857D01*
X127877571Y-87203571D01*
X127813761Y-87239285D01*
X127558523Y-87239285D01*
X127558523Y-86489285D01*
X127781857Y-86489285D01*
X127845666Y-86525000D01*
X127877571Y-86560714D01*
X127909476Y-86632142D01*
X127909476Y-86703571D01*
X127877571Y-86775000D01*
X127845666Y-86810714D01*
X127781857Y-86846428D01*
X127558523Y-86846428D01*
X128164714Y-86489285D02*
X128579476Y-86489285D01*
X128356142Y-86775000D01*
X128451857Y-86775000D01*
X128515666Y-86810714D01*
X128547571Y-86846428D01*
X128579476Y-86917857D01*
X128579476Y-87096428D01*
X128547571Y-87167857D01*
X128515666Y-87203571D01*
X128451857Y-87239285D01*
X128260428Y-87239285D01*
X128196619Y-87203571D01*
X128164714Y-87167857D01*
X127347095Y-69439285D02*
X127123761Y-69082142D01*
X126964238Y-69439285D02*
X126964238Y-68689285D01*
X127219476Y-68689285D01*
X127283285Y-68725000D01*
X127315190Y-68760714D01*
X127347095Y-68832142D01*
X127347095Y-68939285D01*
X127315190Y-69010714D01*
X127283285Y-69046428D01*
X127219476Y-69082142D01*
X126964238Y-69082142D01*
X127602333Y-69403571D02*
X127698047Y-69439285D01*
X127857571Y-69439285D01*
X127921380Y-69403571D01*
X127953285Y-69367857D01*
X127985190Y-69296428D01*
X127985190Y-69225000D01*
X127953285Y-69153571D01*
X127921380Y-69117857D01*
X127857571Y-69082142D01*
X127729952Y-69046428D01*
X127666142Y-69010714D01*
X127634238Y-68975000D01*
X127602333Y-68903571D01*
X127602333Y-68832142D01*
X127634238Y-68760714D01*
X127666142Y-68725000D01*
X127729952Y-68689285D01*
X127889476Y-68689285D01*
X127985190Y-68725000D01*
X128176619Y-68689285D02*
X128559476Y-68689285D01*
X128368047Y-69439285D02*
X128368047Y-68689285D01*
X127251380Y-64339285D02*
X127028047Y-63982142D01*
X126868523Y-64339285D02*
X126868523Y-63589285D01*
X127123761Y-63589285D01*
X127187571Y-63625000D01*
X127219476Y-63660714D01*
X127251380Y-63732142D01*
X127251380Y-63839285D01*
X127219476Y-63910714D01*
X127187571Y-63946428D01*
X127123761Y-63982142D01*
X126868523Y-63982142D01*
X127506619Y-64125000D02*
X127825666Y-64125000D01*
X127442809Y-64339285D02*
X127666142Y-63589285D01*
X127889476Y-64339285D01*
X128049000Y-63589285D02*
X128208523Y-64339285D01*
X128336142Y-63803571D01*
X128463761Y-64339285D01*
X128623285Y-63589285D01*
X116273428Y-74603571D02*
X116369142Y-74639285D01*
X116528666Y-74639285D01*
X116592476Y-74603571D01*
X116624380Y-74567857D01*
X116656285Y-74496428D01*
X116656285Y-74425000D01*
X116624380Y-74353571D01*
X116592476Y-74317857D01*
X116528666Y-74282142D01*
X116401047Y-74246428D01*
X116337238Y-74210714D01*
X116305333Y-74175000D01*
X116273428Y-74103571D01*
X116273428Y-74032142D01*
X116305333Y-73960714D01*
X116337238Y-73925000D01*
X116401047Y-73889285D01*
X116560571Y-73889285D01*
X116656285Y-73925000D01*
X116943428Y-74639285D02*
X116943428Y-73889285D01*
X117102952Y-73889285D01*
X117198666Y-73925000D01*
X117262476Y-73996428D01*
X117294380Y-74067857D01*
X117326285Y-74210714D01*
X117326285Y-74317857D01*
X117294380Y-74460714D01*
X117262476Y-74532142D01*
X117198666Y-74603571D01*
X117102952Y-74639285D01*
X116943428Y-74639285D01*
X117581523Y-74425000D02*
X117900571Y-74425000D01*
X117517714Y-74639285D02*
X117741047Y-73889285D01*
X117964380Y-74639285D01*
X118666285Y-73853571D02*
X118092000Y-74817857D01*
X118889619Y-74639285D02*
X118889619Y-73889285D01*
X119049142Y-73889285D01*
X119144857Y-73925000D01*
X119208666Y-73996428D01*
X119240571Y-74067857D01*
X119272476Y-74210714D01*
X119272476Y-74317857D01*
X119240571Y-74460714D01*
X119208666Y-74532142D01*
X119144857Y-74603571D01*
X119049142Y-74639285D01*
X118889619Y-74639285D01*
X119910571Y-74639285D02*
X119527714Y-74639285D01*
X119719142Y-74639285D02*
X119719142Y-73889285D01*
X119655333Y-73996428D01*
X119591523Y-74067857D01*
X119527714Y-74103571D01*
X120676285Y-73853571D02*
X120102000Y-74817857D01*
X120867714Y-73960714D02*
X120899619Y-73925000D01*
X120963428Y-73889285D01*
X121122952Y-73889285D01*
X121186761Y-73925000D01*
X121218666Y-73960714D01*
X121250571Y-74032142D01*
X121250571Y-74103571D01*
X121218666Y-74210714D01*
X120835809Y-74639285D01*
X121250571Y-74639285D01*
X125628285Y-76875000D02*
X125947333Y-76875000D01*
X125564476Y-77089285D02*
X125787809Y-76339285D01*
X126011142Y-77089285D01*
X126202571Y-76410714D02*
X126234476Y-76375000D01*
X126298285Y-76339285D01*
X126457809Y-76339285D01*
X126521619Y-76375000D01*
X126553523Y-76410714D01*
X126585428Y-76482142D01*
X126585428Y-76553571D01*
X126553523Y-76660714D01*
X126170666Y-77089285D01*
X126585428Y-77089285D01*
X127351142Y-76303571D02*
X126776857Y-77267857D01*
X127797809Y-76696428D02*
X127574476Y-76696428D01*
X127574476Y-77089285D02*
X127574476Y-76339285D01*
X127893523Y-76339285D01*
X128467809Y-76339285D02*
X128148761Y-76339285D01*
X128116857Y-76696428D01*
X128148761Y-76660714D01*
X128212571Y-76625000D01*
X128372095Y-76625000D01*
X128435904Y-76660714D01*
X128467809Y-76696428D01*
X128499714Y-76767857D01*
X128499714Y-76946428D01*
X128467809Y-77017857D01*
X128435904Y-77053571D01*
X128372095Y-77089285D01*
X128212571Y-77089285D01*
X128148761Y-77053571D01*
X128116857Y-77017857D01*
X116479380Y-86796428D02*
X116702714Y-86796428D01*
X116798428Y-87189285D02*
X116479380Y-87189285D01*
X116479380Y-86439285D01*
X116798428Y-86439285D01*
X117372714Y-86439285D02*
X117245095Y-86439285D01*
X117181285Y-86475000D01*
X117149380Y-86510714D01*
X117085571Y-86617857D01*
X117053666Y-86760714D01*
X117053666Y-87046428D01*
X117085571Y-87117857D01*
X117117476Y-87153571D01*
X117181285Y-87189285D01*
X117308904Y-87189285D01*
X117372714Y-87153571D01*
X117404619Y-87117857D01*
X117436523Y-87046428D01*
X117436523Y-86867857D01*
X117404619Y-86796428D01*
X117372714Y-86760714D01*
X117308904Y-86725000D01*
X117181285Y-86725000D01*
X117117476Y-86760714D01*
X117085571Y-86796428D01*
X117053666Y-86867857D01*
X118202238Y-86403571D02*
X117627952Y-87367857D01*
X118361761Y-86439285D02*
X118808428Y-86439285D01*
X118521285Y-87189285D01*
X127203523Y-66175000D02*
X127139714Y-66139285D01*
X127044000Y-66139285D01*
X126948285Y-66175000D01*
X126884476Y-66246428D01*
X126852571Y-66317857D01*
X126820666Y-66460714D01*
X126820666Y-66567857D01*
X126852571Y-66710714D01*
X126884476Y-66782142D01*
X126948285Y-66853571D01*
X127044000Y-66889285D01*
X127107809Y-66889285D01*
X127203523Y-66853571D01*
X127235428Y-66817857D01*
X127235428Y-66567857D01*
X127107809Y-66567857D01*
X127522571Y-66889285D02*
X127522571Y-66139285D01*
X127905428Y-66889285D01*
X127905428Y-66139285D01*
X128224476Y-66889285D02*
X128224476Y-66139285D01*
X128384000Y-66139285D01*
X128479714Y-66175000D01*
X128543523Y-66246428D01*
X128575428Y-66317857D01*
X128607333Y-66460714D01*
X128607333Y-66567857D01*
X128575428Y-66710714D01*
X128543523Y-66782142D01*
X128479714Y-66853571D01*
X128384000Y-66889285D01*
X128224476Y-66889285D01*
X116243428Y-66939285D02*
X116243428Y-66189285D01*
X116402952Y-66189285D01*
X116498666Y-66225000D01*
X116562476Y-66296428D01*
X116594380Y-66367857D01*
X116626285Y-66510714D01*
X116626285Y-66617857D01*
X116594380Y-66760714D01*
X116562476Y-66832142D01*
X116498666Y-66903571D01*
X116402952Y-66939285D01*
X116243428Y-66939285D01*
X116881523Y-66260714D02*
X116913428Y-66225000D01*
X116977238Y-66189285D01*
X117136761Y-66189285D01*
X117200571Y-66225000D01*
X117232476Y-66260714D01*
X117264380Y-66332142D01*
X117264380Y-66403571D01*
X117232476Y-66510714D01*
X116849619Y-66939285D01*
X117264380Y-66939285D01*
X118030095Y-66153571D02*
X117455809Y-67117857D01*
X118636285Y-66939285D02*
X118412952Y-66582142D01*
X118253428Y-66939285D02*
X118253428Y-66189285D01*
X118508666Y-66189285D01*
X118572476Y-66225000D01*
X118604380Y-66260714D01*
X118636285Y-66332142D01*
X118636285Y-66439285D01*
X118604380Y-66510714D01*
X118572476Y-66546428D01*
X118508666Y-66582142D01*
X118253428Y-66582142D01*
X118859619Y-66189285D02*
X119306285Y-66939285D01*
X119306285Y-66189285D02*
X118859619Y-66939285D01*
X119912476Y-66939285D02*
X119529619Y-66939285D01*
X119721047Y-66939285D02*
X119721047Y-66189285D01*
X119657238Y-66296428D01*
X119593428Y-66367857D01*
X119529619Y-66403571D01*
X125628285Y-79375000D02*
X125947333Y-79375000D01*
X125564476Y-79589285D02*
X125787809Y-78839285D01*
X126011142Y-79589285D01*
X126585428Y-79589285D02*
X126202571Y-79589285D01*
X126394000Y-79589285D02*
X126394000Y-78839285D01*
X126330190Y-78946428D01*
X126266380Y-79017857D01*
X126202571Y-79053571D01*
X127351142Y-78803571D02*
X126776857Y-79767857D01*
X127797809Y-79196428D02*
X127574476Y-79196428D01*
X127574476Y-79589285D02*
X127574476Y-78839285D01*
X127893523Y-78839285D01*
X128435904Y-78839285D02*
X128308285Y-78839285D01*
X128244476Y-78875000D01*
X128212571Y-78910714D01*
X128148761Y-79017857D01*
X128116857Y-79160714D01*
X128116857Y-79446428D01*
X128148761Y-79517857D01*
X128180666Y-79553571D01*
X128244476Y-79589285D01*
X128372095Y-79589285D01*
X128435904Y-79553571D01*
X128467809Y-79517857D01*
X128499714Y-79446428D01*
X128499714Y-79267857D01*
X128467809Y-79196428D01*
X128435904Y-79160714D01*
X128372095Y-79125000D01*
X128244476Y-79125000D01*
X128180666Y-79160714D01*
X128148761Y-79196428D01*
X128116857Y-79267857D01*
X125628285Y-74375000D02*
X125947333Y-74375000D01*
X125564476Y-74589285D02*
X125787809Y-73839285D01*
X126011142Y-74589285D01*
X126170666Y-73839285D02*
X126585428Y-73839285D01*
X126362095Y-74125000D01*
X126457809Y-74125000D01*
X126521619Y-74160714D01*
X126553523Y-74196428D01*
X126585428Y-74267857D01*
X126585428Y-74446428D01*
X126553523Y-74517857D01*
X126521619Y-74553571D01*
X126457809Y-74589285D01*
X126266380Y-74589285D01*
X126202571Y-74553571D01*
X126170666Y-74517857D01*
X127351142Y-73803571D02*
X126776857Y-74767857D01*
X127797809Y-74196428D02*
X127574476Y-74196428D01*
X127574476Y-74589285D02*
X127574476Y-73839285D01*
X127893523Y-73839285D01*
X128435904Y-74089285D02*
X128435904Y-74589285D01*
X128276380Y-73803571D02*
X128116857Y-74339285D01*
X128531619Y-74339285D01*
X125931380Y-89789285D02*
X125548523Y-89789285D01*
X125739952Y-89789285D02*
X125739952Y-89039285D01*
X125676142Y-89146428D01*
X125612333Y-89217857D01*
X125548523Y-89253571D01*
X126505666Y-89039285D02*
X126378047Y-89039285D01*
X126314238Y-89075000D01*
X126282333Y-89110714D01*
X126218523Y-89217857D01*
X126186619Y-89360714D01*
X126186619Y-89646428D01*
X126218523Y-89717857D01*
X126250428Y-89753571D01*
X126314238Y-89789285D01*
X126441857Y-89789285D01*
X126505666Y-89753571D01*
X126537571Y-89717857D01*
X126569476Y-89646428D01*
X126569476Y-89467857D01*
X126537571Y-89396428D01*
X126505666Y-89360714D01*
X126441857Y-89325000D01*
X126314238Y-89325000D01*
X126250428Y-89360714D01*
X126218523Y-89396428D01*
X126186619Y-89467857D01*
X127335190Y-89003571D02*
X126760904Y-89967857D01*
X127781857Y-89396428D02*
X127877571Y-89432142D01*
X127909476Y-89467857D01*
X127941380Y-89539285D01*
X127941380Y-89646428D01*
X127909476Y-89717857D01*
X127877571Y-89753571D01*
X127813761Y-89789285D01*
X127558523Y-89789285D01*
X127558523Y-89039285D01*
X127781857Y-89039285D01*
X127845666Y-89075000D01*
X127877571Y-89110714D01*
X127909476Y-89182142D01*
X127909476Y-89253571D01*
X127877571Y-89325000D01*
X127845666Y-89360714D01*
X127781857Y-89396428D01*
X127558523Y-89396428D01*
X128196619Y-89110714D02*
X128228523Y-89075000D01*
X128292333Y-89039285D01*
X128451857Y-89039285D01*
X128515666Y-89075000D01*
X128547571Y-89110714D01*
X128579476Y-89182142D01*
X128579476Y-89253571D01*
X128547571Y-89360714D01*
X128164714Y-89789285D01*
X128579476Y-89789285D01*
D11*
D14*
X116323190Y-64389285D02*
X116323190Y-63639285D01*
X116482714Y-63639285D01*
X116578428Y-63675000D01*
X116642238Y-63746428D01*
X116674142Y-63817857D01*
X116706047Y-63960714D01*
X116706047Y-64067857D01*
X116674142Y-64210714D01*
X116642238Y-64282142D01*
X116578428Y-64353571D01*
X116482714Y-64389285D01*
X116323190Y-64389285D01*
X116929380Y-63639285D02*
X117344142Y-63639285D01*
X117120809Y-63925000D01*
X117216523Y-63925000D01*
X117280333Y-63960714D01*
X117312238Y-63996428D01*
X117344142Y-64067857D01*
X117344142Y-64246428D01*
X117312238Y-64317857D01*
X117280333Y-64353571D01*
X117216523Y-64389285D01*
X117025095Y-64389285D01*
X116961285Y-64353571D01*
X116929380Y-64317857D01*
X118109857Y-63603571D02*
X117535571Y-64567857D01*
X118237476Y-63639285D02*
X118620333Y-63639285D01*
X118428904Y-64389285D02*
X118428904Y-63639285D01*
X118779857Y-63639285D02*
X119226523Y-64389285D01*
X119226523Y-63639285D02*
X118779857Y-64389285D01*
X119609380Y-63639285D02*
X119673190Y-63639285D01*
X119737000Y-63675000D01*
X119768904Y-63710714D01*
X119800809Y-63782142D01*
X119832714Y-63925000D01*
X119832714Y-64103571D01*
X119800809Y-64246428D01*
X119768904Y-64317857D01*
X119737000Y-64353571D01*
X119673190Y-64389285D01*
X119609380Y-64389285D01*
X119545571Y-64353571D01*
X119513666Y-64317857D01*
X119481761Y-64246428D01*
X119449857Y-64103571D01*
X119449857Y-63925000D01*
X119481761Y-63782142D01*
X119513666Y-63710714D01*
X119545571Y-63675000D01*
X119609380Y-63639285D01*
X116601523Y-68825000D02*
X116537714Y-68789285D01*
X116442000Y-68789285D01*
X116346285Y-68825000D01*
X116282476Y-68896428D01*
X116250571Y-68967857D01*
X116218666Y-69110714D01*
X116218666Y-69217857D01*
X116250571Y-69360714D01*
X116282476Y-69432142D01*
X116346285Y-69503571D01*
X116442000Y-69539285D01*
X116505809Y-69539285D01*
X116601523Y-69503571D01*
X116633428Y-69467857D01*
X116633428Y-69217857D01*
X116505809Y-69217857D01*
X116920571Y-69539285D02*
X116920571Y-68789285D01*
X117303428Y-69539285D01*
X117303428Y-68789285D01*
X117622476Y-69539285D02*
X117622476Y-68789285D01*
X117782000Y-68789285D01*
X117877714Y-68825000D01*
X117941523Y-68896428D01*
X117973428Y-68967857D01*
X118005333Y-69110714D01*
X118005333Y-69217857D01*
X117973428Y-69360714D01*
X117941523Y-69432142D01*
X117877714Y-69503571D01*
X117782000Y-69539285D01*
X117622476Y-69539285D01*
X125931380Y-92289285D02*
X125548523Y-92289285D01*
X125739952Y-92289285D02*
X125739952Y-91539285D01*
X125676142Y-91646428D01*
X125612333Y-91717857D01*
X125548523Y-91753571D01*
X126346142Y-91539285D02*
X126409952Y-91539285D01*
X126473761Y-91575000D01*
X126505666Y-91610714D01*
X126537571Y-91682142D01*
X126569476Y-91825000D01*
X126569476Y-92003571D01*
X126537571Y-92146428D01*
X126505666Y-92217857D01*
X126473761Y-92253571D01*
X126409952Y-92289285D01*
X126346142Y-92289285D01*
X126282333Y-92253571D01*
X126250428Y-92217857D01*
X126218523Y-92146428D01*
X126186619Y-92003571D01*
X126186619Y-91825000D01*
X126218523Y-91682142D01*
X126250428Y-91610714D01*
X126282333Y-91575000D01*
X126346142Y-91539285D01*
X127335190Y-91503571D02*
X126760904Y-92467857D01*
X127781857Y-91896428D02*
X127877571Y-91932142D01*
X127909476Y-91967857D01*
X127941380Y-92039285D01*
X127941380Y-92146428D01*
X127909476Y-92217857D01*
X127877571Y-92253571D01*
X127813761Y-92289285D01*
X127558523Y-92289285D01*
X127558523Y-91539285D01*
X127781857Y-91539285D01*
X127845666Y-91575000D01*
X127877571Y-91610714D01*
X127909476Y-91682142D01*
X127909476Y-91753571D01*
X127877571Y-91825000D01*
X127845666Y-91860714D01*
X127781857Y-91896428D01*
X127558523Y-91896428D01*
X128515666Y-91539285D02*
X128388047Y-91539285D01*
X128324238Y-91575000D01*
X128292333Y-91610714D01*
X128228523Y-91717857D01*
X128196619Y-91860714D01*
X128196619Y-92146428D01*
X128228523Y-92217857D01*
X128260428Y-92253571D01*
X128324238Y-92289285D01*
X128451857Y-92289285D01*
X128515666Y-92253571D01*
X128547571Y-92217857D01*
X128579476Y-92146428D01*
X128579476Y-91967857D01*
X128547571Y-91896428D01*
X128515666Y-91860714D01*
X128451857Y-91825000D01*
X128324238Y-91825000D01*
X128260428Y-91860714D01*
X128228523Y-91896428D01*
X128196619Y-91967857D01*
X125628285Y-81925000D02*
X125947333Y-81925000D01*
X125564476Y-82139285D02*
X125787809Y-81389285D01*
X126011142Y-82139285D01*
X126362095Y-81389285D02*
X126425904Y-81389285D01*
X126489714Y-81425000D01*
X126521619Y-81460714D01*
X126553523Y-81532142D01*
X126585428Y-81675000D01*
X126585428Y-81853571D01*
X126553523Y-81996428D01*
X126521619Y-82067857D01*
X126489714Y-82103571D01*
X126425904Y-82139285D01*
X126362095Y-82139285D01*
X126298285Y-82103571D01*
X126266380Y-82067857D01*
X126234476Y-81996428D01*
X126202571Y-81853571D01*
X126202571Y-81675000D01*
X126234476Y-81532142D01*
X126266380Y-81460714D01*
X126298285Y-81425000D01*
X126362095Y-81389285D01*
X127351142Y-81353571D02*
X126776857Y-82317857D01*
X127797809Y-81746428D02*
X127574476Y-81746428D01*
X127574476Y-82139285D02*
X127574476Y-81389285D01*
X127893523Y-81389285D01*
X128084952Y-81389285D02*
X128531619Y-81389285D01*
X128244476Y-82139285D01*
D15*
X119883571Y-59889285D02*
X119883571Y-59139285D01*
X120133571Y-59675000D01*
X120383571Y-59139285D01*
X120383571Y-59889285D01*
X120740714Y-59889285D02*
X120740714Y-59389285D01*
X120740714Y-59139285D02*
X120705000Y-59175000D01*
X120740714Y-59210714D01*
X120776428Y-59175000D01*
X120740714Y-59139285D01*
X120740714Y-59210714D01*
X121419285Y-59853571D02*
X121347857Y-59889285D01*
X121205000Y-59889285D01*
X121133571Y-59853571D01*
X121097857Y-59817857D01*
X121062142Y-59746428D01*
X121062142Y-59532142D01*
X121097857Y-59460714D01*
X121133571Y-59425000D01*
X121205000Y-59389285D01*
X121347857Y-59389285D01*
X121419285Y-59425000D01*
X121740714Y-59889285D02*
X121740714Y-59389285D01*
X121740714Y-59532142D02*
X121776428Y-59460714D01*
X121812142Y-59425000D01*
X121883571Y-59389285D01*
X121955000Y-59389285D01*
X122312142Y-59889285D02*
X122240714Y-59853571D01*
X122205000Y-59817857D01*
X122169285Y-59746428D01*
X122169285Y-59532142D01*
X122205000Y-59460714D01*
X122240714Y-59425000D01*
X122312142Y-59389285D01*
X122419285Y-59389285D01*
X122490714Y-59425000D01*
X122526428Y-59460714D01*
X122562142Y-59532142D01*
X122562142Y-59746428D01*
X122526428Y-59817857D01*
X122490714Y-59853571D01*
X122419285Y-59889285D01*
X122312142Y-59889285D01*
X122883571Y-59139285D02*
X122883571Y-59746428D01*
X122919285Y-59817857D01*
X122955000Y-59853571D01*
X123026428Y-59889285D01*
X123169285Y-59889285D01*
X123240714Y-59853571D01*
X123276428Y-59817857D01*
X123312142Y-59746428D01*
X123312142Y-59139285D01*
X123633571Y-59853571D02*
X123740714Y-59889285D01*
X123919285Y-59889285D01*
X123990714Y-59853571D01*
X124026428Y-59817857D01*
X124062142Y-59746428D01*
X124062142Y-59675000D01*
X124026428Y-59603571D01*
X123990714Y-59567857D01*
X123919285Y-59532142D01*
X123776428Y-59496428D01*
X123705000Y-59460714D01*
X123669285Y-59425000D01*
X123633571Y-59353571D01*
X123633571Y-59282142D01*
X123669285Y-59210714D01*
X123705000Y-59175000D01*
X123776428Y-59139285D01*
X123955000Y-59139285D01*
X124062142Y-59175000D01*
X124633571Y-59496428D02*
X124740714Y-59532142D01*
X124776428Y-59567857D01*
X124812142Y-59639285D01*
X124812142Y-59746428D01*
X124776428Y-59817857D01*
X124740714Y-59853571D01*
X124669285Y-59889285D01*
X124383571Y-59889285D01*
X124383571Y-59139285D01*
X124633571Y-59139285D01*
X124705000Y-59175000D01*
X124740714Y-59210714D01*
X124776428Y-59282142D01*
X124776428Y-59353571D01*
X124740714Y-59425000D01*
X124705000Y-59460714D01*
X124633571Y-59496428D01*
X124383571Y-59496428D01*
G04 #@! TO.C,D8*
X179070000Y-106120000D02*
X183310000Y-106120000D01*
X179790000Y-103880000D02*
X179790000Y-106120000D01*
X183310000Y-106120000D02*
X183310000Y-103880000D01*
X179070000Y-103880000D02*
X179070000Y-106120000D01*
X179910000Y-103880000D02*
X179910000Y-106120000D01*
X179670000Y-103880000D02*
X179670000Y-106120000D01*
X178420000Y-105000000D02*
X179070000Y-105000000D01*
X183310000Y-103880000D02*
X179070000Y-103880000D01*
X183960000Y-105000000D02*
X183310000Y-105000000D01*
G04 #@! TO.C,D9*
X138260000Y-91520000D02*
X140500000Y-91520000D01*
X138260000Y-91280000D02*
X140500000Y-91280000D01*
X139380000Y-87230000D02*
X139380000Y-87880000D01*
X140500000Y-92120000D02*
X140500000Y-87880000D01*
X139380000Y-92770000D02*
X139380000Y-92120000D01*
X140500000Y-87880000D02*
X138260000Y-87880000D01*
X138260000Y-91400000D02*
X140500000Y-91400000D01*
X138260000Y-92120000D02*
X140500000Y-92120000D01*
X138260000Y-87880000D02*
X138260000Y-92120000D01*
G04 #@! TO.C,D6*
X145500000Y-125120000D02*
X145500000Y-122880000D01*
X144780000Y-125120000D02*
X144780000Y-122880000D01*
X145500000Y-122880000D02*
X141260000Y-122880000D01*
X141260000Y-122880000D02*
X141260000Y-125120000D01*
X141260000Y-125120000D02*
X145500000Y-125120000D01*
X144660000Y-125120000D02*
X144660000Y-122880000D01*
X140610000Y-124000000D02*
X141260000Y-124000000D01*
X146150000Y-124000000D02*
X145500000Y-124000000D01*
X144900000Y-125120000D02*
X144900000Y-122880000D01*
G04 #@! TO.C,SW11*
X175880000Y-86700000D02*
X176180000Y-87000000D01*
X173680000Y-81400000D02*
X173680000Y-86200000D01*
X186280000Y-81300000D02*
X186280000Y-86200000D01*
X175880000Y-87300000D02*
X175880000Y-86700000D01*
X179480000Y-79500000D02*
X180480000Y-79500000D01*
X173680000Y-77700000D02*
X173680000Y-72800000D01*
X179980000Y-80000000D02*
X179980000Y-79000000D01*
X186280000Y-86200000D02*
X183480000Y-86200000D01*
X173680000Y-72800000D02*
X186280000Y-72800000D01*
X176180000Y-87000000D02*
X175880000Y-87300000D01*
X173680000Y-86200000D02*
X176180000Y-86200000D01*
X186280000Y-72800000D02*
X186280000Y-77700000D01*
X182980000Y-79500000D02*
G75*
G03*
X182980000Y-79500000I-3000000J0D01*
G01*
G04 #@! TO.C,D2*
X144900000Y-106120000D02*
X144900000Y-103880000D01*
X146150000Y-105000000D02*
X145500000Y-105000000D01*
X145500000Y-106120000D02*
X145500000Y-103880000D01*
X141260000Y-106120000D02*
X145500000Y-106120000D01*
X140610000Y-105000000D02*
X141260000Y-105000000D01*
X144660000Y-106120000D02*
X144660000Y-103880000D01*
X145500000Y-103880000D02*
X141260000Y-103880000D01*
X144780000Y-106120000D02*
X144780000Y-103880000D01*
X141260000Y-103880000D02*
X141260000Y-106120000D01*
G04 #@! TO.C,SW12*
X133380000Y-55000000D02*
X133380000Y-59500000D01*
X137380000Y-53750000D02*
X135880000Y-53750000D01*
X135880000Y-60750000D02*
X137380000Y-60750000D01*
X139880000Y-59500000D02*
X139880000Y-55000000D01*
G04 #@! TO.C,D7*
X159920000Y-124000000D02*
X160570000Y-124000000D01*
X164810000Y-125120000D02*
X164810000Y-122880000D01*
X160570000Y-122880000D02*
X160570000Y-125120000D01*
X163970000Y-125120000D02*
X163970000Y-122880000D01*
X164810000Y-122880000D02*
X160570000Y-122880000D01*
X160570000Y-125120000D02*
X164810000Y-125120000D01*
X164210000Y-125120000D02*
X164210000Y-122880000D01*
X164090000Y-125120000D02*
X164090000Y-122880000D01*
X165460000Y-124000000D02*
X164810000Y-124000000D01*
G04 #@! TO.C,D5*
X126500000Y-122880000D02*
X122260000Y-122880000D01*
X122260000Y-122880000D02*
X122260000Y-125120000D01*
X121610000Y-124000000D02*
X122260000Y-124000000D01*
X126500000Y-125120000D02*
X126500000Y-122880000D01*
X127150000Y-124000000D02*
X126500000Y-124000000D01*
X125900000Y-125120000D02*
X125900000Y-122880000D01*
X125780000Y-125120000D02*
X125780000Y-122880000D01*
X122260000Y-125120000D02*
X126500000Y-125120000D01*
X125660000Y-125120000D02*
X125660000Y-122880000D01*
G04 #@! TO.C,SW10*
X146280000Y-76300000D02*
X146280000Y-75700000D01*
X150380000Y-69000000D02*
X150380000Y-68000000D01*
X144080000Y-66700000D02*
X144080000Y-61800000D01*
X144080000Y-75200000D02*
X146580000Y-75200000D01*
X156680000Y-61800000D02*
X156680000Y-66700000D01*
X146580000Y-76000000D02*
X146280000Y-76300000D01*
X146280000Y-75700000D02*
X146580000Y-76000000D01*
X156680000Y-70300000D02*
X156680000Y-75200000D01*
X156680000Y-75200000D02*
X153880000Y-75200000D01*
X144080000Y-70400000D02*
X144080000Y-75200000D01*
X149880000Y-68500000D02*
X150880000Y-68500000D01*
X144080000Y-61800000D02*
X156680000Y-61800000D01*
X153380000Y-68500000D02*
G75*
G03*
X153380000Y-68500000I-3000000J0D01*
G01*
G04 #@! TO.C,D3*
X160860000Y-103880000D02*
X160860000Y-106120000D01*
X160260000Y-103880000D02*
X160260000Y-106120000D01*
X165150000Y-105000000D02*
X164500000Y-105000000D01*
X161100000Y-103880000D02*
X161100000Y-106120000D01*
X164500000Y-103880000D02*
X160260000Y-103880000D01*
X164500000Y-106120000D02*
X164500000Y-103880000D01*
X160260000Y-106120000D02*
X164500000Y-106120000D01*
X159610000Y-105000000D02*
X160260000Y-105000000D01*
X160980000Y-103880000D02*
X160980000Y-106120000D01*
G04 #@! TO.C,D1*
X122260000Y-103880000D02*
X122260000Y-106120000D01*
X125780000Y-106120000D02*
X125780000Y-103880000D01*
X125900000Y-106120000D02*
X125900000Y-103880000D01*
X121610000Y-105000000D02*
X122260000Y-105000000D01*
X125660000Y-106120000D02*
X125660000Y-103880000D01*
X127150000Y-105000000D02*
X126500000Y-105000000D01*
X126500000Y-103880000D02*
X122260000Y-103880000D01*
X122260000Y-106120000D02*
X126500000Y-106120000D01*
X126500000Y-106120000D02*
X126500000Y-103880000D01*
G04 #@! TO.C,D4*
X179260000Y-122880000D02*
X179260000Y-125120000D01*
X184150000Y-124000000D02*
X183500000Y-124000000D01*
X179980000Y-122880000D02*
X179980000Y-125120000D01*
X178610000Y-124000000D02*
X179260000Y-124000000D01*
X180100000Y-122880000D02*
X180100000Y-125120000D01*
X183500000Y-122880000D02*
X179260000Y-122880000D01*
X179260000Y-125120000D02*
X183500000Y-125120000D01*
X183500000Y-125120000D02*
X183500000Y-122880000D01*
X179860000Y-122880000D02*
X179860000Y-125120000D01*
D11*
G04 #@! TO.C,U1*
X118630000Y-57300000D02*
X118630000Y-58600000D01*
X131280000Y-60200000D02*
X130330000Y-60200000D01*
X122880000Y-57650000D02*
X122380000Y-58300000D01*
X126130000Y-58600000D02*
X126130000Y-57300000D01*
X122230000Y-58100000D02*
X122530000Y-58100000D01*
X131280000Y-92250000D02*
X131280000Y-93250000D01*
X131280000Y-93250000D02*
X130270000Y-93250000D01*
X122130000Y-57950000D02*
X122630000Y-57950000D01*
X113480000Y-60200000D02*
X114480000Y-60200000D01*
X126130000Y-57300000D02*
X118630000Y-57300000D01*
X131280000Y-60200000D02*
X131280000Y-61200000D01*
X122030000Y-57800000D02*
X122730000Y-57800000D01*
X113480000Y-93250000D02*
X114480000Y-93250000D01*
X113480000Y-60200000D02*
X113480000Y-61200000D01*
X121880000Y-57650000D02*
X122880000Y-57650000D01*
X118630000Y-58600000D02*
X126130000Y-58600000D01*
X122380000Y-58300000D02*
X121880000Y-57650000D01*
X113480000Y-92200000D02*
X113480000Y-93250000D01*
G04 #@! TD*
D16*
G04 #@! TO.C,SW8*
X177570000Y-111960000D03*
X183920000Y-109420000D03*
G04 #@! TD*
G04 #@! TO.C,SW9*
X145570000Y-89460000D03*
X151920000Y-86920000D03*
G04 #@! TD*
G04 #@! TO.C,SW4*
X177570000Y-130960000D03*
X183920000Y-128420000D03*
G04 #@! TD*
G04 #@! TO.C,SW1*
X120570000Y-111910000D03*
X126920000Y-109370000D03*
G04 #@! TD*
G04 #@! TO.C,SW3*
X158570000Y-111960000D03*
X164920000Y-109420000D03*
G04 #@! TD*
G04 #@! TO.C,SW2*
X139570000Y-111910000D03*
X145920000Y-109370000D03*
G04 #@! TD*
G04 #@! TO.C,SW6*
X139570000Y-130960000D03*
X145920000Y-128420000D03*
G04 #@! TD*
G04 #@! TO.C,SW5*
X120570000Y-130960000D03*
X126920000Y-128420000D03*
G04 #@! TD*
G04 #@! TO.C,SW7*
X158570000Y-130960000D03*
X164920000Y-128420000D03*
G04 #@! TD*
D17*
G04 #@! TO.C,U1*
X114771400Y-64022000D03*
X114771400Y-66562000D03*
X114771400Y-69102000D03*
X114771400Y-71642000D03*
X114771400Y-74182000D03*
X114771400Y-76722000D03*
X114771400Y-79262000D03*
X114771400Y-81802000D03*
X114771400Y-84342000D03*
X114771400Y-86882000D03*
X114771400Y-89422000D03*
X114771400Y-91962000D03*
X129991400Y-91962000D03*
X129991400Y-89422000D03*
X129991400Y-86882000D03*
X129991400Y-84342000D03*
X129991400Y-81802000D03*
X129991400Y-79262000D03*
X129991400Y-76722000D03*
X129991400Y-74182000D03*
X129991400Y-71642000D03*
X129991400Y-69102000D03*
X129991400Y-66562000D03*
X129991400Y-64022000D03*
G04 #@! TD*
M02*
