M48
; DRILL file {KiCad (6.0.9-0)} date 
; FORMAT={-:-/ absolute / metric / decimal}
; #@! TF.CreationDate,2023-04-08T13:57:08+09:00
; #@! TF.GenerationSoftware,Kicad,Pcbnew,(6.0.9-0)
; #@! TF.FileFunction,NonPlated,1,2,NPTH
FMAT,2
METRIC
; #@! TA.AperFunction,NonPlated,NPTH,ComponentDrill
T1C1.900
; #@! TA.AperFunction,NonPlated,NPTH,ComponentDrill
T2C4.000
%
G90
G05
T1
X119.3Y-114.45
X119.3Y-133.5
X129.46Y-114.45
X129.46Y-133.5
X138.3Y-114.45
X138.3Y-133.5
X144.3Y-92.0
X148.46Y-114.45
X148.46Y-133.5
X154.46Y-92.0
X157.3Y-114.5
X157.3Y-133.5
X167.46Y-114.5
X167.46Y-133.5
X176.3Y-114.5
X176.3Y-133.5
X186.46Y-114.5
X186.46Y-133.5
T2
X124.38Y-114.45
X124.38Y-133.5
X143.38Y-114.45
X143.38Y-133.5
X149.38Y-92.0
X162.38Y-114.5
X162.38Y-133.5
X181.38Y-114.5
X181.38Y-133.5
T0
M30
