%TF.GenerationSoftware,KiCad,Pcbnew,(6.0.9-0)*%
%TF.CreationDate,2023-04-08T13:57:58+09:00*%
%TF.ProjectId,keypad,6b657970-6164-42e6-9b69-6361645f7063,1*%
%TF.SameCoordinates,Original*%
%TF.FileFunction,Drillmap*%
%TF.FilePolarity,Positive*%
%FSLAX45Y45*%
G04 Gerber Fmt 4.5, Leading zero omitted, Abs format (unit mm)*
G04 Created by KiCad (PCBNEW (6.0.9-0)) date 2023-04-08 13:57:58*
%MOMM*%
%LPD*%
G01*
G04 APERTURE LIST*
%ADD10C,0.100000*%
%ADD11C,0.200000*%
%ADD12C,0.080000*%
%ADD13C,0.081280*%
%ADD14C,0.110000*%
%ADD15C,0.220000*%
%ADD16C,0.350000*%
G04 APERTURE END LIST*
D10*
X10338000Y-4800000D02*
X20338000Y-4800000D01*
X20338000Y-4800000D02*
X20338000Y-14800000D01*
X20338000Y-14800000D02*
X10338000Y-14800000D01*
X10338000Y-14800000D02*
X10338000Y-4800000D01*
D11*
D12*
X12017000Y-10460000D02*
X12097000Y-10540000D01*
X12097000Y-10460000D02*
X12017000Y-10540000D01*
X12017000Y-11151000D02*
X12097000Y-11231000D01*
X12097000Y-11151000D02*
X12017000Y-11231000D01*
D11*
X12037000Y-11231000D02*
X12077000Y-11231000D01*
X12037000Y-11151000D02*
X12077000Y-11151000D01*
X12077000Y-11231000D02*
G75*
G03*
X12077000Y-11151000I0J40000D01*
G01*
X12037000Y-11151000D02*
G75*
G03*
X12037000Y-11231000I0J-40000D01*
G01*
D12*
X12017000Y-12360000D02*
X12097000Y-12440000D01*
X12097000Y-12360000D02*
X12017000Y-12440000D01*
X12017000Y-13056000D02*
X12097000Y-13136000D01*
X12097000Y-13056000D02*
X12017000Y-13136000D01*
D11*
X12037000Y-13136000D02*
X12077000Y-13136000D01*
X12037000Y-13056000D02*
X12077000Y-13056000D01*
X12077000Y-13136000D02*
G75*
G03*
X12077000Y-13056000I0J40000D01*
G01*
X12037000Y-13056000D02*
G75*
G03*
X12037000Y-13136000I0J-40000D01*
G01*
D12*
X12652000Y-10897000D02*
X12732000Y-10977000D01*
X12732000Y-10897000D02*
X12652000Y-10977000D01*
D11*
X12672000Y-10977000D02*
X12712000Y-10977000D01*
X12672000Y-10897000D02*
X12712000Y-10897000D01*
X12712000Y-10977000D02*
G75*
G03*
X12712000Y-10897000I0J40000D01*
G01*
X12672000Y-10897000D02*
G75*
G03*
X12672000Y-10977000I0J-40000D01*
G01*
D12*
X12652000Y-12802000D02*
X12732000Y-12882000D01*
X12732000Y-12802000D02*
X12652000Y-12882000D01*
D11*
X12672000Y-12882000D02*
X12712000Y-12882000D01*
X12672000Y-12802000D02*
X12712000Y-12802000D01*
X12712000Y-12882000D02*
G75*
G03*
X12712000Y-12802000I0J40000D01*
G01*
X12672000Y-12802000D02*
G75*
G03*
X12672000Y-12882000I0J-40000D01*
G01*
D12*
X12779000Y-10460000D02*
X12859000Y-10540000D01*
X12859000Y-10460000D02*
X12779000Y-10540000D01*
X12779000Y-12360000D02*
X12859000Y-12440000D01*
X12859000Y-12360000D02*
X12779000Y-12440000D01*
X13898000Y-8579000D02*
X13978000Y-8659000D01*
X13978000Y-8579000D02*
X13898000Y-8659000D01*
X13898000Y-9341000D02*
X13978000Y-9421000D01*
X13978000Y-9341000D02*
X13898000Y-9421000D01*
X13917000Y-10460000D02*
X13997000Y-10540000D01*
X13997000Y-10460000D02*
X13917000Y-10540000D01*
X13917000Y-11151000D02*
X13997000Y-11231000D01*
X13997000Y-11151000D02*
X13917000Y-11231000D01*
D11*
X13937000Y-11231000D02*
X13977000Y-11231000D01*
X13937000Y-11151000D02*
X13977000Y-11151000D01*
X13977000Y-11231000D02*
G75*
G03*
X13977000Y-11151000I0J40000D01*
G01*
X13937000Y-11151000D02*
G75*
G03*
X13937000Y-11231000I0J-40000D01*
G01*
D12*
X13917000Y-12360000D02*
X13997000Y-12440000D01*
X13997000Y-12360000D02*
X13917000Y-12440000D01*
X13917000Y-13056000D02*
X13997000Y-13136000D01*
X13997000Y-13056000D02*
X13917000Y-13136000D01*
D11*
X13937000Y-13136000D02*
X13977000Y-13136000D01*
X13937000Y-13056000D02*
X13977000Y-13056000D01*
X13977000Y-13136000D02*
G75*
G03*
X13977000Y-13056000I0J40000D01*
G01*
X13937000Y-13056000D02*
G75*
G03*
X13937000Y-13136000I0J-40000D01*
G01*
D12*
X14517000Y-8906000D02*
X14597000Y-8986000D01*
X14597000Y-8906000D02*
X14517000Y-8986000D01*
D11*
X14537000Y-8986000D02*
X14577000Y-8986000D01*
X14537000Y-8906000D02*
X14577000Y-8906000D01*
X14577000Y-8986000D02*
G75*
G03*
X14577000Y-8906000I0J40000D01*
G01*
X14537000Y-8906000D02*
G75*
G03*
X14537000Y-8986000I0J-40000D01*
G01*
D12*
X14552000Y-10897000D02*
X14632000Y-10977000D01*
X14632000Y-10897000D02*
X14552000Y-10977000D01*
D11*
X14572000Y-10977000D02*
X14612000Y-10977000D01*
X14572000Y-10897000D02*
X14612000Y-10897000D01*
X14612000Y-10977000D02*
G75*
G03*
X14612000Y-10897000I0J40000D01*
G01*
X14572000Y-10897000D02*
G75*
G03*
X14572000Y-10977000I0J-40000D01*
G01*
D12*
X14552000Y-12802000D02*
X14632000Y-12882000D01*
X14632000Y-12802000D02*
X14552000Y-12882000D01*
D11*
X14572000Y-12882000D02*
X14612000Y-12882000D01*
X14572000Y-12802000D02*
X14612000Y-12802000D01*
X14612000Y-12882000D02*
G75*
G03*
X14612000Y-12802000I0J40000D01*
G01*
X14572000Y-12802000D02*
G75*
G03*
X14572000Y-12882000I0J-40000D01*
G01*
D12*
X14679000Y-10460000D02*
X14759000Y-10540000D01*
X14759000Y-10460000D02*
X14679000Y-10540000D01*
X14679000Y-12360000D02*
X14759000Y-12440000D01*
X14759000Y-12360000D02*
X14679000Y-12440000D01*
X15152000Y-8652000D02*
X15232000Y-8732000D01*
X15232000Y-8652000D02*
X15152000Y-8732000D01*
D11*
X15172000Y-8732000D02*
X15212000Y-8732000D01*
X15172000Y-8652000D02*
X15212000Y-8652000D01*
X15212000Y-8732000D02*
G75*
G03*
X15212000Y-8652000I0J40000D01*
G01*
X15172000Y-8652000D02*
G75*
G03*
X15172000Y-8732000I0J-40000D01*
G01*
D12*
X15817000Y-10460000D02*
X15897000Y-10540000D01*
X15897000Y-10460000D02*
X15817000Y-10540000D01*
X15817000Y-11156000D02*
X15897000Y-11236000D01*
X15897000Y-11156000D02*
X15817000Y-11236000D01*
D11*
X15837000Y-11236000D02*
X15877000Y-11236000D01*
X15837000Y-11156000D02*
X15877000Y-11156000D01*
X15877000Y-11236000D02*
G75*
G03*
X15877000Y-11156000I0J40000D01*
G01*
X15837000Y-11156000D02*
G75*
G03*
X15837000Y-11236000I0J-40000D01*
G01*
D12*
X15817000Y-13056000D02*
X15897000Y-13136000D01*
X15897000Y-13056000D02*
X15817000Y-13136000D01*
D11*
X15837000Y-13136000D02*
X15877000Y-13136000D01*
X15837000Y-13056000D02*
X15877000Y-13056000D01*
X15877000Y-13136000D02*
G75*
G03*
X15877000Y-13056000I0J40000D01*
G01*
X15837000Y-13056000D02*
G75*
G03*
X15837000Y-13136000I0J-40000D01*
G01*
D12*
X15848000Y-12360000D02*
X15928000Y-12440000D01*
X15928000Y-12360000D02*
X15848000Y-12440000D01*
X16452000Y-10902000D02*
X16532000Y-10982000D01*
X16532000Y-10902000D02*
X16452000Y-10982000D01*
D11*
X16472000Y-10982000D02*
X16512000Y-10982000D01*
X16472000Y-10902000D02*
X16512000Y-10902000D01*
X16512000Y-10982000D02*
G75*
G03*
X16512000Y-10902000I0J40000D01*
G01*
X16472000Y-10902000D02*
G75*
G03*
X16472000Y-10982000I0J-40000D01*
G01*
D12*
X16452000Y-12802000D02*
X16532000Y-12882000D01*
X16532000Y-12802000D02*
X16452000Y-12882000D01*
D11*
X16472000Y-12882000D02*
X16512000Y-12882000D01*
X16472000Y-12802000D02*
X16512000Y-12802000D01*
X16512000Y-12882000D02*
G75*
G03*
X16512000Y-12802000I0J40000D01*
G01*
X16472000Y-12802000D02*
G75*
G03*
X16472000Y-12882000I0J-40000D01*
G01*
D12*
X16579000Y-10460000D02*
X16659000Y-10540000D01*
X16659000Y-10460000D02*
X16579000Y-10540000D01*
X16610000Y-12360000D02*
X16690000Y-12440000D01*
X16690000Y-12360000D02*
X16610000Y-12440000D01*
X17698000Y-10460000D02*
X17778000Y-10540000D01*
X17778000Y-10460000D02*
X17698000Y-10540000D01*
X17717000Y-11156000D02*
X17797000Y-11236000D01*
X17797000Y-11156000D02*
X17717000Y-11236000D01*
D11*
X17737000Y-11236000D02*
X17777000Y-11236000D01*
X17737000Y-11156000D02*
X17777000Y-11156000D01*
X17777000Y-11236000D02*
G75*
G03*
X17777000Y-11156000I0J40000D01*
G01*
X17737000Y-11156000D02*
G75*
G03*
X17737000Y-11236000I0J-40000D01*
G01*
D12*
X17717000Y-12360000D02*
X17797000Y-12440000D01*
X17797000Y-12360000D02*
X17717000Y-12440000D01*
X17717000Y-13056000D02*
X17797000Y-13136000D01*
X17797000Y-13056000D02*
X17717000Y-13136000D01*
D11*
X17737000Y-13136000D02*
X17777000Y-13136000D01*
X17737000Y-13056000D02*
X17777000Y-13056000D01*
X17777000Y-13136000D02*
G75*
G03*
X17777000Y-13056000I0J40000D01*
G01*
X17737000Y-13056000D02*
G75*
G03*
X17737000Y-13136000I0J-40000D01*
G01*
D12*
X18352000Y-10902000D02*
X18432000Y-10982000D01*
X18432000Y-10902000D02*
X18352000Y-10982000D01*
D11*
X18372000Y-10982000D02*
X18412000Y-10982000D01*
X18372000Y-10902000D02*
X18412000Y-10902000D01*
X18412000Y-10982000D02*
G75*
G03*
X18412000Y-10902000I0J40000D01*
G01*
X18372000Y-10902000D02*
G75*
G03*
X18372000Y-10982000I0J-40000D01*
G01*
D12*
X18352000Y-12802000D02*
X18432000Y-12882000D01*
X18432000Y-12802000D02*
X18352000Y-12882000D01*
D11*
X18372000Y-12882000D02*
X18412000Y-12882000D01*
X18372000Y-12802000D02*
X18412000Y-12802000D01*
X18412000Y-12882000D02*
G75*
G03*
X18412000Y-12802000I0J40000D01*
G01*
X18372000Y-12802000D02*
G75*
G03*
X18372000Y-12882000I0J-40000D01*
G01*
D12*
X18460000Y-10460000D02*
X18540000Y-10540000D01*
X18540000Y-10460000D02*
X18460000Y-10540000D01*
X18479000Y-12360000D02*
X18559000Y-12440000D01*
X18559000Y-12360000D02*
X18479000Y-12440000D01*
D13*
X11517780Y-6402200D02*
G75*
G03*
X11517780Y-6402200I-40640J0D01*
G01*
X11517780Y-6656200D02*
G75*
G03*
X11517780Y-6656200I-40640J0D01*
G01*
X11517780Y-6910200D02*
G75*
G03*
X11517780Y-6910200I-40640J0D01*
G01*
X11517780Y-7164200D02*
G75*
G03*
X11517780Y-7164200I-40640J0D01*
G01*
X11517780Y-7418200D02*
G75*
G03*
X11517780Y-7418200I-40640J0D01*
G01*
X11517780Y-7672200D02*
G75*
G03*
X11517780Y-7672200I-40640J0D01*
G01*
X11517780Y-7926200D02*
G75*
G03*
X11517780Y-7926200I-40640J0D01*
G01*
X11517780Y-8180200D02*
G75*
G03*
X11517780Y-8180200I-40640J0D01*
G01*
X11517780Y-8434200D02*
G75*
G03*
X11517780Y-8434200I-40640J0D01*
G01*
X11517780Y-8688200D02*
G75*
G03*
X11517780Y-8688200I-40640J0D01*
G01*
X11517780Y-8942200D02*
G75*
G03*
X11517780Y-8942200I-40640J0D01*
G01*
X11517780Y-9196200D02*
G75*
G03*
X11517780Y-9196200I-40640J0D01*
G01*
X13039780Y-6402200D02*
G75*
G03*
X13039780Y-6402200I-40640J0D01*
G01*
X13039780Y-6656200D02*
G75*
G03*
X13039780Y-6656200I-40640J0D01*
G01*
X13039780Y-6910200D02*
G75*
G03*
X13039780Y-6910200I-40640J0D01*
G01*
X13039780Y-7164200D02*
G75*
G03*
X13039780Y-7164200I-40640J0D01*
G01*
X13039780Y-7418200D02*
G75*
G03*
X13039780Y-7418200I-40640J0D01*
G01*
X13039780Y-7672200D02*
G75*
G03*
X13039780Y-7672200I-40640J0D01*
G01*
X13039780Y-7926200D02*
G75*
G03*
X13039780Y-7926200I-40640J0D01*
G01*
X13039780Y-8180200D02*
G75*
G03*
X13039780Y-8180200I-40640J0D01*
G01*
X13039780Y-8434200D02*
G75*
G03*
X13039780Y-8434200I-40640J0D01*
G01*
X13039780Y-8688200D02*
G75*
G03*
X13039780Y-8688200I-40640J0D01*
G01*
X13039780Y-8942200D02*
G75*
G03*
X13039780Y-8942200I-40640J0D01*
G01*
X13039780Y-9196200D02*
G75*
G03*
X13039780Y-9196200I-40640J0D01*
G01*
D10*
X14788000Y-7550000D02*
X14788000Y-7650000D01*
X14738000Y-7600000D02*
X14838000Y-7600000D01*
X15038000Y-7550000D02*
X15038000Y-7650000D01*
X14988000Y-7600000D02*
X15088000Y-7600000D01*
X15288000Y-7550000D02*
X15288000Y-7650000D01*
X15238000Y-7600000D02*
X15338000Y-7600000D01*
X17748000Y-8650000D02*
X17748000Y-8750000D01*
X17698000Y-8700000D02*
X17798000Y-8700000D01*
X17998000Y-8650000D02*
X17998000Y-8750000D01*
X17948000Y-8700000D02*
X18048000Y-8700000D01*
X18248000Y-8650000D02*
X18248000Y-8750000D01*
X18198000Y-8700000D02*
X18298000Y-8700000D01*
D14*
X13476891Y-5438891D02*
X13476891Y-5361109D01*
X13399109Y-5361109D01*
X13399109Y-5438891D01*
X13476891Y-5438891D01*
X13476891Y-6088891D02*
X13476891Y-6011109D01*
X13399109Y-6011109D01*
X13399109Y-6088891D01*
X13476891Y-6088891D01*
X13926891Y-5438891D02*
X13926891Y-5361109D01*
X13849109Y-5361109D01*
X13849109Y-5438891D01*
X13926891Y-5438891D01*
X13926891Y-6088891D02*
X13926891Y-6011109D01*
X13849109Y-6011109D01*
X13849109Y-6088891D01*
X13926891Y-6088891D01*
D15*
X14478000Y-6960000D02*
X14588000Y-6850000D01*
X14478000Y-6740000D01*
X14368000Y-6850000D01*
X14478000Y-6960000D01*
X15598000Y-6960000D02*
X15708000Y-6850000D01*
X15598000Y-6740000D01*
X15488000Y-6850000D01*
X15598000Y-6960000D01*
X17438000Y-8060000D02*
X17548000Y-7950000D01*
X17438000Y-7840000D01*
X17328000Y-7950000D01*
X17438000Y-8060000D01*
X18558000Y-8060000D02*
X18668000Y-7950000D01*
X18558000Y-7840000D01*
X18448000Y-7950000D01*
X18558000Y-8060000D01*
D16*
X10763000Y-5225000D02*
X11113000Y-5575000D01*
X11113000Y-5225000D02*
X10763000Y-5575000D01*
X11113000Y-5400000D02*
G75*
G03*
X11113000Y-5400000I-175000J0D01*
G01*
X10763000Y-14025000D02*
X11113000Y-14375000D01*
X11113000Y-14025000D02*
X10763000Y-14375000D01*
X11113000Y-14200000D02*
G75*
G03*
X11113000Y-14200000I-175000J0D01*
G01*
X19563000Y-5225000D02*
X19913000Y-5575000D01*
X19913000Y-5225000D02*
X19563000Y-5575000D01*
X19913000Y-5400000D02*
G75*
G03*
X19913000Y-5400000I-175000J0D01*
G01*
X19563000Y-14025000D02*
X19913000Y-14375000D01*
X19913000Y-14025000D02*
X19563000Y-14375000D01*
X19913000Y-14200000D02*
G75*
G03*
X19913000Y-14200000I-175000J0D01*
G01*
D11*
X10590619Y-15115476D02*
X10590619Y-14915476D01*
X10638238Y-14915476D01*
X10666810Y-14925000D01*
X10685857Y-14944048D01*
X10695381Y-14963095D01*
X10704905Y-15001190D01*
X10704905Y-15029762D01*
X10695381Y-15067857D01*
X10685857Y-15086905D01*
X10666810Y-15105952D01*
X10638238Y-15115476D01*
X10590619Y-15115476D01*
X10790619Y-15115476D02*
X10790619Y-14982143D01*
X10790619Y-15020238D02*
X10800143Y-15001190D01*
X10809667Y-14991667D01*
X10828714Y-14982143D01*
X10847762Y-14982143D01*
X10914429Y-15115476D02*
X10914429Y-14982143D01*
X10914429Y-14915476D02*
X10904905Y-14925000D01*
X10914429Y-14934524D01*
X10923952Y-14925000D01*
X10914429Y-14915476D01*
X10914429Y-14934524D01*
X11038238Y-15115476D02*
X11019190Y-15105952D01*
X11009667Y-15086905D01*
X11009667Y-14915476D01*
X11143000Y-15115476D02*
X11123952Y-15105952D01*
X11114429Y-15086905D01*
X11114429Y-14915476D01*
X11371571Y-15115476D02*
X11371571Y-14915476D01*
X11438238Y-15058333D01*
X11504905Y-14915476D01*
X11504905Y-15115476D01*
X11685857Y-15115476D02*
X11685857Y-15010714D01*
X11676333Y-14991667D01*
X11657286Y-14982143D01*
X11619190Y-14982143D01*
X11600143Y-14991667D01*
X11685857Y-15105952D02*
X11666809Y-15115476D01*
X11619190Y-15115476D01*
X11600143Y-15105952D01*
X11590619Y-15086905D01*
X11590619Y-15067857D01*
X11600143Y-15048809D01*
X11619190Y-15039286D01*
X11666809Y-15039286D01*
X11685857Y-15029762D01*
X11781095Y-14982143D02*
X11781095Y-15182143D01*
X11781095Y-14991667D02*
X11800143Y-14982143D01*
X11838238Y-14982143D01*
X11857286Y-14991667D01*
X11866809Y-15001190D01*
X11876333Y-15020238D01*
X11876333Y-15077381D01*
X11866809Y-15096428D01*
X11857286Y-15105952D01*
X11838238Y-15115476D01*
X11800143Y-15115476D01*
X11781095Y-15105952D01*
X11962048Y-15096428D02*
X11971571Y-15105952D01*
X11962048Y-15115476D01*
X11952524Y-15105952D01*
X11962048Y-15096428D01*
X11962048Y-15115476D01*
X11962048Y-14991667D02*
X11971571Y-15001190D01*
X11962048Y-15010714D01*
X11952524Y-15001190D01*
X11962048Y-14991667D01*
X11962048Y-15010714D01*
D12*
X10253000Y-15405000D02*
X10333000Y-15485000D01*
X10333000Y-15405000D02*
X10253000Y-15485000D01*
D11*
X10628714Y-15335476D02*
X10647762Y-15335476D01*
X10666810Y-15345000D01*
X10676333Y-15354524D01*
X10685857Y-15373571D01*
X10695381Y-15411667D01*
X10695381Y-15459286D01*
X10685857Y-15497381D01*
X10676333Y-15516428D01*
X10666810Y-15525952D01*
X10647762Y-15535476D01*
X10628714Y-15535476D01*
X10609667Y-15525952D01*
X10600143Y-15516428D01*
X10590619Y-15497381D01*
X10581095Y-15459286D01*
X10581095Y-15411667D01*
X10590619Y-15373571D01*
X10600143Y-15354524D01*
X10609667Y-15345000D01*
X10628714Y-15335476D01*
X10781095Y-15516428D02*
X10790619Y-15525952D01*
X10781095Y-15535476D01*
X10771571Y-15525952D01*
X10781095Y-15516428D01*
X10781095Y-15535476D01*
X10904905Y-15421190D02*
X10885857Y-15411667D01*
X10876333Y-15402143D01*
X10866810Y-15383095D01*
X10866810Y-15373571D01*
X10876333Y-15354524D01*
X10885857Y-15345000D01*
X10904905Y-15335476D01*
X10943000Y-15335476D01*
X10962048Y-15345000D01*
X10971571Y-15354524D01*
X10981095Y-15373571D01*
X10981095Y-15383095D01*
X10971571Y-15402143D01*
X10962048Y-15411667D01*
X10943000Y-15421190D01*
X10904905Y-15421190D01*
X10885857Y-15430714D01*
X10876333Y-15440238D01*
X10866810Y-15459286D01*
X10866810Y-15497381D01*
X10876333Y-15516428D01*
X10885857Y-15525952D01*
X10904905Y-15535476D01*
X10943000Y-15535476D01*
X10962048Y-15525952D01*
X10971571Y-15516428D01*
X10981095Y-15497381D01*
X10981095Y-15459286D01*
X10971571Y-15440238D01*
X10962048Y-15430714D01*
X10943000Y-15421190D01*
X11104905Y-15335476D02*
X11123952Y-15335476D01*
X11143000Y-15345000D01*
X11152524Y-15354524D01*
X11162048Y-15373571D01*
X11171571Y-15411667D01*
X11171571Y-15459286D01*
X11162048Y-15497381D01*
X11152524Y-15516428D01*
X11143000Y-15525952D01*
X11123952Y-15535476D01*
X11104905Y-15535476D01*
X11085857Y-15525952D01*
X11076333Y-15516428D01*
X11066810Y-15497381D01*
X11057286Y-15459286D01*
X11057286Y-15411667D01*
X11066810Y-15373571D01*
X11076333Y-15354524D01*
X11085857Y-15345000D01*
X11104905Y-15335476D01*
X11295381Y-15335476D02*
X11314428Y-15335476D01*
X11333476Y-15345000D01*
X11343000Y-15354524D01*
X11352524Y-15373571D01*
X11362048Y-15411667D01*
X11362048Y-15459286D01*
X11352524Y-15497381D01*
X11343000Y-15516428D01*
X11333476Y-15525952D01*
X11314428Y-15535476D01*
X11295381Y-15535476D01*
X11276333Y-15525952D01*
X11266809Y-15516428D01*
X11257286Y-15497381D01*
X11247762Y-15459286D01*
X11247762Y-15411667D01*
X11257286Y-15373571D01*
X11266809Y-15354524D01*
X11276333Y-15345000D01*
X11295381Y-15335476D01*
X11447762Y-15535476D02*
X11447762Y-15402143D01*
X11447762Y-15421190D02*
X11457286Y-15411667D01*
X11476333Y-15402143D01*
X11504905Y-15402143D01*
X11523952Y-15411667D01*
X11533476Y-15430714D01*
X11533476Y-15535476D01*
X11533476Y-15430714D02*
X11543000Y-15411667D01*
X11562048Y-15402143D01*
X11590619Y-15402143D01*
X11609667Y-15411667D01*
X11619190Y-15430714D01*
X11619190Y-15535476D01*
X11714428Y-15535476D02*
X11714428Y-15402143D01*
X11714428Y-15421190D02*
X11723952Y-15411667D01*
X11743000Y-15402143D01*
X11771571Y-15402143D01*
X11790619Y-15411667D01*
X11800143Y-15430714D01*
X11800143Y-15535476D01*
X11800143Y-15430714D02*
X11809667Y-15411667D01*
X11828714Y-15402143D01*
X11857286Y-15402143D01*
X11876333Y-15411667D01*
X11885857Y-15430714D01*
X11885857Y-15535476D01*
X12276333Y-15325952D02*
X12104905Y-15583095D01*
X12533476Y-15335476D02*
X12552524Y-15335476D01*
X12571571Y-15345000D01*
X12581095Y-15354524D01*
X12590619Y-15373571D01*
X12600143Y-15411667D01*
X12600143Y-15459286D01*
X12590619Y-15497381D01*
X12581095Y-15516428D01*
X12571571Y-15525952D01*
X12552524Y-15535476D01*
X12533476Y-15535476D01*
X12514428Y-15525952D01*
X12504905Y-15516428D01*
X12495381Y-15497381D01*
X12485857Y-15459286D01*
X12485857Y-15411667D01*
X12495381Y-15373571D01*
X12504905Y-15354524D01*
X12514428Y-15345000D01*
X12533476Y-15335476D01*
X12685857Y-15516428D02*
X12695381Y-15525952D01*
X12685857Y-15535476D01*
X12676333Y-15525952D01*
X12685857Y-15516428D01*
X12685857Y-15535476D01*
X12819190Y-15335476D02*
X12838238Y-15335476D01*
X12857286Y-15345000D01*
X12866809Y-15354524D01*
X12876333Y-15373571D01*
X12885857Y-15411667D01*
X12885857Y-15459286D01*
X12876333Y-15497381D01*
X12866809Y-15516428D01*
X12857286Y-15525952D01*
X12838238Y-15535476D01*
X12819190Y-15535476D01*
X12800143Y-15525952D01*
X12790619Y-15516428D01*
X12781095Y-15497381D01*
X12771571Y-15459286D01*
X12771571Y-15411667D01*
X12781095Y-15373571D01*
X12790619Y-15354524D01*
X12800143Y-15345000D01*
X12819190Y-15335476D01*
X12952524Y-15335476D02*
X13076333Y-15335476D01*
X13009667Y-15411667D01*
X13038238Y-15411667D01*
X13057286Y-15421190D01*
X13066809Y-15430714D01*
X13076333Y-15449762D01*
X13076333Y-15497381D01*
X13066809Y-15516428D01*
X13057286Y-15525952D01*
X13038238Y-15535476D01*
X12981095Y-15535476D01*
X12962048Y-15525952D01*
X12952524Y-15516428D01*
X13266809Y-15535476D02*
X13152524Y-15535476D01*
X13209667Y-15535476D02*
X13209667Y-15335476D01*
X13190619Y-15364048D01*
X13171571Y-15383095D01*
X13152524Y-15392619D01*
X13447762Y-15335476D02*
X13352524Y-15335476D01*
X13343000Y-15430714D01*
X13352524Y-15421190D01*
X13371571Y-15411667D01*
X13419190Y-15411667D01*
X13438238Y-15421190D01*
X13447762Y-15430714D01*
X13457286Y-15449762D01*
X13457286Y-15497381D01*
X13447762Y-15516428D01*
X13438238Y-15525952D01*
X13419190Y-15535476D01*
X13371571Y-15535476D01*
X13352524Y-15525952D01*
X13343000Y-15516428D01*
X13533476Y-15335476D02*
X13533476Y-15373571D01*
X13609667Y-15335476D02*
X13609667Y-15373571D01*
X13904905Y-15611667D02*
X13895381Y-15602143D01*
X13876333Y-15573571D01*
X13866809Y-15554524D01*
X13857286Y-15525952D01*
X13847762Y-15478333D01*
X13847762Y-15440238D01*
X13857286Y-15392619D01*
X13866809Y-15364048D01*
X13876333Y-15345000D01*
X13895381Y-15316428D01*
X13904905Y-15306905D01*
X14085857Y-15535476D02*
X13971571Y-15535476D01*
X14028714Y-15535476D02*
X14028714Y-15335476D01*
X14009667Y-15364048D01*
X13990619Y-15383095D01*
X13971571Y-15392619D01*
X14200143Y-15421190D02*
X14181095Y-15411667D01*
X14171571Y-15402143D01*
X14162048Y-15383095D01*
X14162048Y-15373571D01*
X14171571Y-15354524D01*
X14181095Y-15345000D01*
X14200143Y-15335476D01*
X14238238Y-15335476D01*
X14257286Y-15345000D01*
X14266809Y-15354524D01*
X14276333Y-15373571D01*
X14276333Y-15383095D01*
X14266809Y-15402143D01*
X14257286Y-15411667D01*
X14238238Y-15421190D01*
X14200143Y-15421190D01*
X14181095Y-15430714D01*
X14171571Y-15440238D01*
X14162048Y-15459286D01*
X14162048Y-15497381D01*
X14171571Y-15516428D01*
X14181095Y-15525952D01*
X14200143Y-15535476D01*
X14238238Y-15535476D01*
X14257286Y-15525952D01*
X14266809Y-15516428D01*
X14276333Y-15497381D01*
X14276333Y-15459286D01*
X14266809Y-15440238D01*
X14257286Y-15430714D01*
X14238238Y-15421190D01*
X14514428Y-15535476D02*
X14514428Y-15335476D01*
X14600143Y-15535476D02*
X14600143Y-15430714D01*
X14590619Y-15411667D01*
X14571571Y-15402143D01*
X14543000Y-15402143D01*
X14523952Y-15411667D01*
X14514428Y-15421190D01*
X14723952Y-15535476D02*
X14704905Y-15525952D01*
X14695381Y-15516428D01*
X14685857Y-15497381D01*
X14685857Y-15440238D01*
X14695381Y-15421190D01*
X14704905Y-15411667D01*
X14723952Y-15402143D01*
X14752524Y-15402143D01*
X14771571Y-15411667D01*
X14781095Y-15421190D01*
X14790619Y-15440238D01*
X14790619Y-15497381D01*
X14781095Y-15516428D01*
X14771571Y-15525952D01*
X14752524Y-15535476D01*
X14723952Y-15535476D01*
X14904905Y-15535476D02*
X14885857Y-15525952D01*
X14876333Y-15506905D01*
X14876333Y-15335476D01*
X15057286Y-15525952D02*
X15038238Y-15535476D01*
X15000143Y-15535476D01*
X14981095Y-15525952D01*
X14971571Y-15506905D01*
X14971571Y-15430714D01*
X14981095Y-15411667D01*
X15000143Y-15402143D01*
X15038238Y-15402143D01*
X15057286Y-15411667D01*
X15066809Y-15430714D01*
X15066809Y-15449762D01*
X14971571Y-15468809D01*
X15143000Y-15525952D02*
X15162048Y-15535476D01*
X15200143Y-15535476D01*
X15219190Y-15525952D01*
X15228714Y-15506905D01*
X15228714Y-15497381D01*
X15219190Y-15478333D01*
X15200143Y-15468809D01*
X15171571Y-15468809D01*
X15152524Y-15459286D01*
X15143000Y-15440238D01*
X15143000Y-15430714D01*
X15152524Y-15411667D01*
X15171571Y-15402143D01*
X15200143Y-15402143D01*
X15219190Y-15411667D01*
X15466809Y-15459286D02*
X15619190Y-15459286D01*
X15543000Y-15535476D02*
X15543000Y-15383095D01*
X15971571Y-15535476D02*
X15857286Y-15535476D01*
X15914428Y-15535476D02*
X15914428Y-15335476D01*
X15895381Y-15364048D01*
X15876333Y-15383095D01*
X15857286Y-15392619D01*
X16085857Y-15421190D02*
X16066809Y-15411667D01*
X16057286Y-15402143D01*
X16047762Y-15383095D01*
X16047762Y-15373571D01*
X16057286Y-15354524D01*
X16066809Y-15345000D01*
X16085857Y-15335476D01*
X16123952Y-15335476D01*
X16143000Y-15345000D01*
X16152524Y-15354524D01*
X16162048Y-15373571D01*
X16162048Y-15383095D01*
X16152524Y-15402143D01*
X16143000Y-15411667D01*
X16123952Y-15421190D01*
X16085857Y-15421190D01*
X16066809Y-15430714D01*
X16057286Y-15440238D01*
X16047762Y-15459286D01*
X16047762Y-15497381D01*
X16057286Y-15516428D01*
X16066809Y-15525952D01*
X16085857Y-15535476D01*
X16123952Y-15535476D01*
X16143000Y-15525952D01*
X16152524Y-15516428D01*
X16162048Y-15497381D01*
X16162048Y-15459286D01*
X16152524Y-15440238D01*
X16143000Y-15430714D01*
X16123952Y-15421190D01*
X16390619Y-15525952D02*
X16409667Y-15535476D01*
X16447762Y-15535476D01*
X16466809Y-15525952D01*
X16476333Y-15506905D01*
X16476333Y-15497381D01*
X16466809Y-15478333D01*
X16447762Y-15468809D01*
X16419190Y-15468809D01*
X16400143Y-15459286D01*
X16390619Y-15440238D01*
X16390619Y-15430714D01*
X16400143Y-15411667D01*
X16419190Y-15402143D01*
X16447762Y-15402143D01*
X16466809Y-15411667D01*
X16590619Y-15535476D02*
X16571571Y-15525952D01*
X16562048Y-15506905D01*
X16562048Y-15335476D01*
X16695381Y-15535476D02*
X16676333Y-15525952D01*
X16666809Y-15516428D01*
X16657286Y-15497381D01*
X16657286Y-15440238D01*
X16666809Y-15421190D01*
X16676333Y-15411667D01*
X16695381Y-15402143D01*
X16723952Y-15402143D01*
X16743000Y-15411667D01*
X16752524Y-15421190D01*
X16762048Y-15440238D01*
X16762048Y-15497381D01*
X16752524Y-15516428D01*
X16743000Y-15525952D01*
X16723952Y-15535476D01*
X16695381Y-15535476D01*
X16819190Y-15402143D02*
X16895381Y-15402143D01*
X16847762Y-15335476D02*
X16847762Y-15506905D01*
X16857286Y-15525952D01*
X16876333Y-15535476D01*
X16895381Y-15535476D01*
X16952524Y-15525952D02*
X16971571Y-15535476D01*
X17009667Y-15535476D01*
X17028714Y-15525952D01*
X17038238Y-15506905D01*
X17038238Y-15497381D01*
X17028714Y-15478333D01*
X17009667Y-15468809D01*
X16981095Y-15468809D01*
X16962048Y-15459286D01*
X16952524Y-15440238D01*
X16952524Y-15430714D01*
X16962048Y-15411667D01*
X16981095Y-15402143D01*
X17009667Y-15402143D01*
X17028714Y-15411667D01*
X17104905Y-15611667D02*
X17114429Y-15602143D01*
X17133476Y-15573571D01*
X17143000Y-15554524D01*
X17152524Y-15525952D01*
X17162048Y-15478333D01*
X17162048Y-15440238D01*
X17152524Y-15392619D01*
X17143000Y-15364048D01*
X17133476Y-15345000D01*
X17114429Y-15316428D01*
X17104905Y-15306905D01*
D13*
X10333000Y-15709000D02*
G75*
G03*
X10333000Y-15709000I-40640J0D01*
G01*
D11*
X10628714Y-15599476D02*
X10647762Y-15599476D01*
X10666810Y-15609000D01*
X10676333Y-15618524D01*
X10685857Y-15637571D01*
X10695381Y-15675667D01*
X10695381Y-15723286D01*
X10685857Y-15761381D01*
X10676333Y-15780428D01*
X10666810Y-15789952D01*
X10647762Y-15799476D01*
X10628714Y-15799476D01*
X10609667Y-15789952D01*
X10600143Y-15780428D01*
X10590619Y-15761381D01*
X10581095Y-15723286D01*
X10581095Y-15675667D01*
X10590619Y-15637571D01*
X10600143Y-15618524D01*
X10609667Y-15609000D01*
X10628714Y-15599476D01*
X10781095Y-15780428D02*
X10790619Y-15789952D01*
X10781095Y-15799476D01*
X10771571Y-15789952D01*
X10781095Y-15780428D01*
X10781095Y-15799476D01*
X10904905Y-15685190D02*
X10885857Y-15675667D01*
X10876333Y-15666143D01*
X10866810Y-15647095D01*
X10866810Y-15637571D01*
X10876333Y-15618524D01*
X10885857Y-15609000D01*
X10904905Y-15599476D01*
X10943000Y-15599476D01*
X10962048Y-15609000D01*
X10971571Y-15618524D01*
X10981095Y-15637571D01*
X10981095Y-15647095D01*
X10971571Y-15666143D01*
X10962048Y-15675667D01*
X10943000Y-15685190D01*
X10904905Y-15685190D01*
X10885857Y-15694714D01*
X10876333Y-15704238D01*
X10866810Y-15723286D01*
X10866810Y-15761381D01*
X10876333Y-15780428D01*
X10885857Y-15789952D01*
X10904905Y-15799476D01*
X10943000Y-15799476D01*
X10962048Y-15789952D01*
X10971571Y-15780428D01*
X10981095Y-15761381D01*
X10981095Y-15723286D01*
X10971571Y-15704238D01*
X10962048Y-15694714D01*
X10943000Y-15685190D01*
X11171571Y-15799476D02*
X11057286Y-15799476D01*
X11114429Y-15799476D02*
X11114429Y-15599476D01*
X11095381Y-15628048D01*
X11076333Y-15647095D01*
X11057286Y-15656619D01*
X11238238Y-15599476D02*
X11362048Y-15599476D01*
X11295381Y-15675667D01*
X11323952Y-15675667D01*
X11343000Y-15685190D01*
X11352524Y-15694714D01*
X11362048Y-15713762D01*
X11362048Y-15761381D01*
X11352524Y-15780428D01*
X11343000Y-15789952D01*
X11323952Y-15799476D01*
X11266809Y-15799476D01*
X11247762Y-15789952D01*
X11238238Y-15780428D01*
X11447762Y-15799476D02*
X11447762Y-15666143D01*
X11447762Y-15685190D02*
X11457286Y-15675667D01*
X11476333Y-15666143D01*
X11504905Y-15666143D01*
X11523952Y-15675667D01*
X11533476Y-15694714D01*
X11533476Y-15799476D01*
X11533476Y-15694714D02*
X11543000Y-15675667D01*
X11562048Y-15666143D01*
X11590619Y-15666143D01*
X11609667Y-15675667D01*
X11619190Y-15694714D01*
X11619190Y-15799476D01*
X11714428Y-15799476D02*
X11714428Y-15666143D01*
X11714428Y-15685190D02*
X11723952Y-15675667D01*
X11743000Y-15666143D01*
X11771571Y-15666143D01*
X11790619Y-15675667D01*
X11800143Y-15694714D01*
X11800143Y-15799476D01*
X11800143Y-15694714D02*
X11809667Y-15675667D01*
X11828714Y-15666143D01*
X11857286Y-15666143D01*
X11876333Y-15675667D01*
X11885857Y-15694714D01*
X11885857Y-15799476D01*
X12276333Y-15589952D02*
X12104905Y-15847095D01*
X12533476Y-15599476D02*
X12552524Y-15599476D01*
X12571571Y-15609000D01*
X12581095Y-15618524D01*
X12590619Y-15637571D01*
X12600143Y-15675667D01*
X12600143Y-15723286D01*
X12590619Y-15761381D01*
X12581095Y-15780428D01*
X12571571Y-15789952D01*
X12552524Y-15799476D01*
X12533476Y-15799476D01*
X12514428Y-15789952D01*
X12504905Y-15780428D01*
X12495381Y-15761381D01*
X12485857Y-15723286D01*
X12485857Y-15675667D01*
X12495381Y-15637571D01*
X12504905Y-15618524D01*
X12514428Y-15609000D01*
X12533476Y-15599476D01*
X12685857Y-15780428D02*
X12695381Y-15789952D01*
X12685857Y-15799476D01*
X12676333Y-15789952D01*
X12685857Y-15780428D01*
X12685857Y-15799476D01*
X12819190Y-15599476D02*
X12838238Y-15599476D01*
X12857286Y-15609000D01*
X12866809Y-15618524D01*
X12876333Y-15637571D01*
X12885857Y-15675667D01*
X12885857Y-15723286D01*
X12876333Y-15761381D01*
X12866809Y-15780428D01*
X12857286Y-15789952D01*
X12838238Y-15799476D01*
X12819190Y-15799476D01*
X12800143Y-15789952D01*
X12790619Y-15780428D01*
X12781095Y-15761381D01*
X12771571Y-15723286D01*
X12771571Y-15675667D01*
X12781095Y-15637571D01*
X12790619Y-15618524D01*
X12800143Y-15609000D01*
X12819190Y-15599476D01*
X12952524Y-15599476D02*
X13076333Y-15599476D01*
X13009667Y-15675667D01*
X13038238Y-15675667D01*
X13057286Y-15685190D01*
X13066809Y-15694714D01*
X13076333Y-15713762D01*
X13076333Y-15761381D01*
X13066809Y-15780428D01*
X13057286Y-15789952D01*
X13038238Y-15799476D01*
X12981095Y-15799476D01*
X12962048Y-15789952D01*
X12952524Y-15780428D01*
X13152524Y-15618524D02*
X13162048Y-15609000D01*
X13181095Y-15599476D01*
X13228714Y-15599476D01*
X13247762Y-15609000D01*
X13257286Y-15618524D01*
X13266809Y-15637571D01*
X13266809Y-15656619D01*
X13257286Y-15685190D01*
X13143000Y-15799476D01*
X13266809Y-15799476D01*
X13390619Y-15599476D02*
X13409667Y-15599476D01*
X13428714Y-15609000D01*
X13438238Y-15618524D01*
X13447762Y-15637571D01*
X13457286Y-15675667D01*
X13457286Y-15723286D01*
X13447762Y-15761381D01*
X13438238Y-15780428D01*
X13428714Y-15789952D01*
X13409667Y-15799476D01*
X13390619Y-15799476D01*
X13371571Y-15789952D01*
X13362048Y-15780428D01*
X13352524Y-15761381D01*
X13343000Y-15723286D01*
X13343000Y-15675667D01*
X13352524Y-15637571D01*
X13362048Y-15618524D01*
X13371571Y-15609000D01*
X13390619Y-15599476D01*
X13533476Y-15599476D02*
X13533476Y-15637571D01*
X13609667Y-15599476D02*
X13609667Y-15637571D01*
X13904905Y-15875667D02*
X13895381Y-15866143D01*
X13876333Y-15837571D01*
X13866809Y-15818524D01*
X13857286Y-15789952D01*
X13847762Y-15742333D01*
X13847762Y-15704238D01*
X13857286Y-15656619D01*
X13866809Y-15628048D01*
X13876333Y-15609000D01*
X13895381Y-15580428D01*
X13904905Y-15570905D01*
X13971571Y-15618524D02*
X13981095Y-15609000D01*
X14000143Y-15599476D01*
X14047762Y-15599476D01*
X14066809Y-15609000D01*
X14076333Y-15618524D01*
X14085857Y-15637571D01*
X14085857Y-15656619D01*
X14076333Y-15685190D01*
X13962048Y-15799476D01*
X14085857Y-15799476D01*
X14257286Y-15666143D02*
X14257286Y-15799476D01*
X14209667Y-15589952D02*
X14162048Y-15732809D01*
X14285857Y-15732809D01*
X14514428Y-15799476D02*
X14514428Y-15599476D01*
X14600143Y-15799476D02*
X14600143Y-15694714D01*
X14590619Y-15675667D01*
X14571571Y-15666143D01*
X14543000Y-15666143D01*
X14523952Y-15675667D01*
X14514428Y-15685190D01*
X14723952Y-15799476D02*
X14704905Y-15789952D01*
X14695381Y-15780428D01*
X14685857Y-15761381D01*
X14685857Y-15704238D01*
X14695381Y-15685190D01*
X14704905Y-15675667D01*
X14723952Y-15666143D01*
X14752524Y-15666143D01*
X14771571Y-15675667D01*
X14781095Y-15685190D01*
X14790619Y-15704238D01*
X14790619Y-15761381D01*
X14781095Y-15780428D01*
X14771571Y-15789952D01*
X14752524Y-15799476D01*
X14723952Y-15799476D01*
X14904905Y-15799476D02*
X14885857Y-15789952D01*
X14876333Y-15770905D01*
X14876333Y-15599476D01*
X15057286Y-15789952D02*
X15038238Y-15799476D01*
X15000143Y-15799476D01*
X14981095Y-15789952D01*
X14971571Y-15770905D01*
X14971571Y-15694714D01*
X14981095Y-15675667D01*
X15000143Y-15666143D01*
X15038238Y-15666143D01*
X15057286Y-15675667D01*
X15066809Y-15694714D01*
X15066809Y-15713762D01*
X14971571Y-15732809D01*
X15143000Y-15789952D02*
X15162048Y-15799476D01*
X15200143Y-15799476D01*
X15219190Y-15789952D01*
X15228714Y-15770905D01*
X15228714Y-15761381D01*
X15219190Y-15742333D01*
X15200143Y-15732809D01*
X15171571Y-15732809D01*
X15152524Y-15723286D01*
X15143000Y-15704238D01*
X15143000Y-15694714D01*
X15152524Y-15675667D01*
X15171571Y-15666143D01*
X15200143Y-15666143D01*
X15219190Y-15675667D01*
X15295381Y-15875667D02*
X15304905Y-15866143D01*
X15323952Y-15837571D01*
X15333476Y-15818524D01*
X15343000Y-15789952D01*
X15352524Y-15742333D01*
X15352524Y-15704238D01*
X15343000Y-15656619D01*
X15333476Y-15628048D01*
X15323952Y-15609000D01*
X15304905Y-15580428D01*
X15295381Y-15570905D01*
D10*
X10283000Y-15923000D02*
X10283000Y-16023000D01*
X10233000Y-15973000D02*
X10333000Y-15973000D01*
D11*
X10695381Y-16063476D02*
X10581095Y-16063476D01*
X10638238Y-16063476D02*
X10638238Y-15863476D01*
X10619190Y-15892048D01*
X10600143Y-15911095D01*
X10581095Y-15920619D01*
X10781095Y-16044428D02*
X10790619Y-16053952D01*
X10781095Y-16063476D01*
X10771571Y-16053952D01*
X10781095Y-16044428D01*
X10781095Y-16063476D01*
X10914429Y-15863476D02*
X10933476Y-15863476D01*
X10952524Y-15873000D01*
X10962048Y-15882524D01*
X10971571Y-15901571D01*
X10981095Y-15939667D01*
X10981095Y-15987286D01*
X10971571Y-16025381D01*
X10962048Y-16044428D01*
X10952524Y-16053952D01*
X10933476Y-16063476D01*
X10914429Y-16063476D01*
X10895381Y-16053952D01*
X10885857Y-16044428D01*
X10876333Y-16025381D01*
X10866810Y-15987286D01*
X10866810Y-15939667D01*
X10876333Y-15901571D01*
X10885857Y-15882524D01*
X10895381Y-15873000D01*
X10914429Y-15863476D01*
X11104905Y-15863476D02*
X11123952Y-15863476D01*
X11143000Y-15873000D01*
X11152524Y-15882524D01*
X11162048Y-15901571D01*
X11171571Y-15939667D01*
X11171571Y-15987286D01*
X11162048Y-16025381D01*
X11152524Y-16044428D01*
X11143000Y-16053952D01*
X11123952Y-16063476D01*
X11104905Y-16063476D01*
X11085857Y-16053952D01*
X11076333Y-16044428D01*
X11066810Y-16025381D01*
X11057286Y-15987286D01*
X11057286Y-15939667D01*
X11066810Y-15901571D01*
X11076333Y-15882524D01*
X11085857Y-15873000D01*
X11104905Y-15863476D01*
X11295381Y-15863476D02*
X11314428Y-15863476D01*
X11333476Y-15873000D01*
X11343000Y-15882524D01*
X11352524Y-15901571D01*
X11362048Y-15939667D01*
X11362048Y-15987286D01*
X11352524Y-16025381D01*
X11343000Y-16044428D01*
X11333476Y-16053952D01*
X11314428Y-16063476D01*
X11295381Y-16063476D01*
X11276333Y-16053952D01*
X11266809Y-16044428D01*
X11257286Y-16025381D01*
X11247762Y-15987286D01*
X11247762Y-15939667D01*
X11257286Y-15901571D01*
X11266809Y-15882524D01*
X11276333Y-15873000D01*
X11295381Y-15863476D01*
X11447762Y-16063476D02*
X11447762Y-15930143D01*
X11447762Y-15949190D02*
X11457286Y-15939667D01*
X11476333Y-15930143D01*
X11504905Y-15930143D01*
X11523952Y-15939667D01*
X11533476Y-15958714D01*
X11533476Y-16063476D01*
X11533476Y-15958714D02*
X11543000Y-15939667D01*
X11562048Y-15930143D01*
X11590619Y-15930143D01*
X11609667Y-15939667D01*
X11619190Y-15958714D01*
X11619190Y-16063476D01*
X11714428Y-16063476D02*
X11714428Y-15930143D01*
X11714428Y-15949190D02*
X11723952Y-15939667D01*
X11743000Y-15930143D01*
X11771571Y-15930143D01*
X11790619Y-15939667D01*
X11800143Y-15958714D01*
X11800143Y-16063476D01*
X11800143Y-15958714D02*
X11809667Y-15939667D01*
X11828714Y-15930143D01*
X11857286Y-15930143D01*
X11876333Y-15939667D01*
X11885857Y-15958714D01*
X11885857Y-16063476D01*
X12276333Y-15853952D02*
X12104905Y-16111095D01*
X12533476Y-15863476D02*
X12552524Y-15863476D01*
X12571571Y-15873000D01*
X12581095Y-15882524D01*
X12590619Y-15901571D01*
X12600143Y-15939667D01*
X12600143Y-15987286D01*
X12590619Y-16025381D01*
X12581095Y-16044428D01*
X12571571Y-16053952D01*
X12552524Y-16063476D01*
X12533476Y-16063476D01*
X12514428Y-16053952D01*
X12504905Y-16044428D01*
X12495381Y-16025381D01*
X12485857Y-15987286D01*
X12485857Y-15939667D01*
X12495381Y-15901571D01*
X12504905Y-15882524D01*
X12514428Y-15873000D01*
X12533476Y-15863476D01*
X12685857Y-16044428D02*
X12695381Y-16053952D01*
X12685857Y-16063476D01*
X12676333Y-16053952D01*
X12685857Y-16044428D01*
X12685857Y-16063476D01*
X12819190Y-15863476D02*
X12838238Y-15863476D01*
X12857286Y-15873000D01*
X12866809Y-15882524D01*
X12876333Y-15901571D01*
X12885857Y-15939667D01*
X12885857Y-15987286D01*
X12876333Y-16025381D01*
X12866809Y-16044428D01*
X12857286Y-16053952D01*
X12838238Y-16063476D01*
X12819190Y-16063476D01*
X12800143Y-16053952D01*
X12790619Y-16044428D01*
X12781095Y-16025381D01*
X12771571Y-15987286D01*
X12771571Y-15939667D01*
X12781095Y-15901571D01*
X12790619Y-15882524D01*
X12800143Y-15873000D01*
X12819190Y-15863476D01*
X12952524Y-15863476D02*
X13076333Y-15863476D01*
X13009667Y-15939667D01*
X13038238Y-15939667D01*
X13057286Y-15949190D01*
X13066809Y-15958714D01*
X13076333Y-15977762D01*
X13076333Y-16025381D01*
X13066809Y-16044428D01*
X13057286Y-16053952D01*
X13038238Y-16063476D01*
X12981095Y-16063476D01*
X12962048Y-16053952D01*
X12952524Y-16044428D01*
X13171571Y-16063476D02*
X13209667Y-16063476D01*
X13228714Y-16053952D01*
X13238238Y-16044428D01*
X13257286Y-16015857D01*
X13266809Y-15977762D01*
X13266809Y-15901571D01*
X13257286Y-15882524D01*
X13247762Y-15873000D01*
X13228714Y-15863476D01*
X13190619Y-15863476D01*
X13171571Y-15873000D01*
X13162048Y-15882524D01*
X13152524Y-15901571D01*
X13152524Y-15949190D01*
X13162048Y-15968238D01*
X13171571Y-15977762D01*
X13190619Y-15987286D01*
X13228714Y-15987286D01*
X13247762Y-15977762D01*
X13257286Y-15968238D01*
X13266809Y-15949190D01*
X13438238Y-15930143D02*
X13438238Y-16063476D01*
X13390619Y-15853952D02*
X13343000Y-15996809D01*
X13466809Y-15996809D01*
X13533476Y-15863476D02*
X13533476Y-15901571D01*
X13609667Y-15863476D02*
X13609667Y-15901571D01*
X13904905Y-16139667D02*
X13895381Y-16130143D01*
X13876333Y-16101571D01*
X13866809Y-16082524D01*
X13857286Y-16053952D01*
X13847762Y-16006333D01*
X13847762Y-15968238D01*
X13857286Y-15920619D01*
X13866809Y-15892048D01*
X13876333Y-15873000D01*
X13895381Y-15844428D01*
X13904905Y-15834905D01*
X14066809Y-15863476D02*
X14028714Y-15863476D01*
X14009667Y-15873000D01*
X14000143Y-15882524D01*
X13981095Y-15911095D01*
X13971571Y-15949190D01*
X13971571Y-16025381D01*
X13981095Y-16044428D01*
X13990619Y-16053952D01*
X14009667Y-16063476D01*
X14047762Y-16063476D01*
X14066809Y-16053952D01*
X14076333Y-16044428D01*
X14085857Y-16025381D01*
X14085857Y-15977762D01*
X14076333Y-15958714D01*
X14066809Y-15949190D01*
X14047762Y-15939667D01*
X14009667Y-15939667D01*
X13990619Y-15949190D01*
X13981095Y-15958714D01*
X13971571Y-15977762D01*
X14323952Y-16063476D02*
X14323952Y-15863476D01*
X14409667Y-16063476D02*
X14409667Y-15958714D01*
X14400143Y-15939667D01*
X14381095Y-15930143D01*
X14352524Y-15930143D01*
X14333476Y-15939667D01*
X14323952Y-15949190D01*
X14533476Y-16063476D02*
X14514428Y-16053952D01*
X14504905Y-16044428D01*
X14495381Y-16025381D01*
X14495381Y-15968238D01*
X14504905Y-15949190D01*
X14514428Y-15939667D01*
X14533476Y-15930143D01*
X14562048Y-15930143D01*
X14581095Y-15939667D01*
X14590619Y-15949190D01*
X14600143Y-15968238D01*
X14600143Y-16025381D01*
X14590619Y-16044428D01*
X14581095Y-16053952D01*
X14562048Y-16063476D01*
X14533476Y-16063476D01*
X14714428Y-16063476D02*
X14695381Y-16053952D01*
X14685857Y-16034905D01*
X14685857Y-15863476D01*
X14866809Y-16053952D02*
X14847762Y-16063476D01*
X14809667Y-16063476D01*
X14790619Y-16053952D01*
X14781095Y-16034905D01*
X14781095Y-15958714D01*
X14790619Y-15939667D01*
X14809667Y-15930143D01*
X14847762Y-15930143D01*
X14866809Y-15939667D01*
X14876333Y-15958714D01*
X14876333Y-15977762D01*
X14781095Y-15996809D01*
X14952524Y-16053952D02*
X14971571Y-16063476D01*
X15009667Y-16063476D01*
X15028714Y-16053952D01*
X15038238Y-16034905D01*
X15038238Y-16025381D01*
X15028714Y-16006333D01*
X15009667Y-15996809D01*
X14981095Y-15996809D01*
X14962048Y-15987286D01*
X14952524Y-15968238D01*
X14952524Y-15958714D01*
X14962048Y-15939667D01*
X14981095Y-15930143D01*
X15009667Y-15930143D01*
X15028714Y-15939667D01*
X15104905Y-16139667D02*
X15114428Y-16130143D01*
X15133476Y-16101571D01*
X15143000Y-16082524D01*
X15152524Y-16053952D01*
X15162048Y-16006333D01*
X15162048Y-15968238D01*
X15152524Y-15920619D01*
X15143000Y-15892048D01*
X15133476Y-15873000D01*
X15114428Y-15844428D01*
X15104905Y-15834905D01*
D14*
X10316891Y-16275891D02*
X10316891Y-16198109D01*
X10239109Y-16198109D01*
X10239109Y-16275891D01*
X10316891Y-16275891D01*
D11*
X10695381Y-16327476D02*
X10581095Y-16327476D01*
X10638238Y-16327476D02*
X10638238Y-16127476D01*
X10619190Y-16156048D01*
X10600143Y-16175095D01*
X10581095Y-16184619D01*
X10781095Y-16308428D02*
X10790619Y-16317952D01*
X10781095Y-16327476D01*
X10771571Y-16317952D01*
X10781095Y-16308428D01*
X10781095Y-16327476D01*
X10981095Y-16327476D02*
X10866810Y-16327476D01*
X10923952Y-16327476D02*
X10923952Y-16127476D01*
X10904905Y-16156048D01*
X10885857Y-16175095D01*
X10866810Y-16184619D01*
X11104905Y-16127476D02*
X11123952Y-16127476D01*
X11143000Y-16137000D01*
X11152524Y-16146524D01*
X11162048Y-16165571D01*
X11171571Y-16203667D01*
X11171571Y-16251286D01*
X11162048Y-16289381D01*
X11152524Y-16308428D01*
X11143000Y-16317952D01*
X11123952Y-16327476D01*
X11104905Y-16327476D01*
X11085857Y-16317952D01*
X11076333Y-16308428D01*
X11066810Y-16289381D01*
X11057286Y-16251286D01*
X11057286Y-16203667D01*
X11066810Y-16165571D01*
X11076333Y-16146524D01*
X11085857Y-16137000D01*
X11104905Y-16127476D01*
X11295381Y-16127476D02*
X11314428Y-16127476D01*
X11333476Y-16137000D01*
X11343000Y-16146524D01*
X11352524Y-16165571D01*
X11362048Y-16203667D01*
X11362048Y-16251286D01*
X11352524Y-16289381D01*
X11343000Y-16308428D01*
X11333476Y-16317952D01*
X11314428Y-16327476D01*
X11295381Y-16327476D01*
X11276333Y-16317952D01*
X11266809Y-16308428D01*
X11257286Y-16289381D01*
X11247762Y-16251286D01*
X11247762Y-16203667D01*
X11257286Y-16165571D01*
X11266809Y-16146524D01*
X11276333Y-16137000D01*
X11295381Y-16127476D01*
X11447762Y-16327476D02*
X11447762Y-16194143D01*
X11447762Y-16213190D02*
X11457286Y-16203667D01*
X11476333Y-16194143D01*
X11504905Y-16194143D01*
X11523952Y-16203667D01*
X11533476Y-16222714D01*
X11533476Y-16327476D01*
X11533476Y-16222714D02*
X11543000Y-16203667D01*
X11562048Y-16194143D01*
X11590619Y-16194143D01*
X11609667Y-16203667D01*
X11619190Y-16222714D01*
X11619190Y-16327476D01*
X11714428Y-16327476D02*
X11714428Y-16194143D01*
X11714428Y-16213190D02*
X11723952Y-16203667D01*
X11743000Y-16194143D01*
X11771571Y-16194143D01*
X11790619Y-16203667D01*
X11800143Y-16222714D01*
X11800143Y-16327476D01*
X11800143Y-16222714D02*
X11809667Y-16203667D01*
X11828714Y-16194143D01*
X11857286Y-16194143D01*
X11876333Y-16203667D01*
X11885857Y-16222714D01*
X11885857Y-16327476D01*
X12276333Y-16117952D02*
X12104905Y-16375095D01*
X12533476Y-16127476D02*
X12552524Y-16127476D01*
X12571571Y-16137000D01*
X12581095Y-16146524D01*
X12590619Y-16165571D01*
X12600143Y-16203667D01*
X12600143Y-16251286D01*
X12590619Y-16289381D01*
X12581095Y-16308428D01*
X12571571Y-16317952D01*
X12552524Y-16327476D01*
X12533476Y-16327476D01*
X12514428Y-16317952D01*
X12504905Y-16308428D01*
X12495381Y-16289381D01*
X12485857Y-16251286D01*
X12485857Y-16203667D01*
X12495381Y-16165571D01*
X12504905Y-16146524D01*
X12514428Y-16137000D01*
X12533476Y-16127476D01*
X12685857Y-16308428D02*
X12695381Y-16317952D01*
X12685857Y-16327476D01*
X12676333Y-16317952D01*
X12685857Y-16308428D01*
X12685857Y-16327476D01*
X12819190Y-16127476D02*
X12838238Y-16127476D01*
X12857286Y-16137000D01*
X12866809Y-16146524D01*
X12876333Y-16165571D01*
X12885857Y-16203667D01*
X12885857Y-16251286D01*
X12876333Y-16289381D01*
X12866809Y-16308428D01*
X12857286Y-16317952D01*
X12838238Y-16327476D01*
X12819190Y-16327476D01*
X12800143Y-16317952D01*
X12790619Y-16308428D01*
X12781095Y-16289381D01*
X12771571Y-16251286D01*
X12771571Y-16203667D01*
X12781095Y-16165571D01*
X12790619Y-16146524D01*
X12800143Y-16137000D01*
X12819190Y-16127476D01*
X13057286Y-16194143D02*
X13057286Y-16327476D01*
X13009667Y-16117952D02*
X12962048Y-16260809D01*
X13085857Y-16260809D01*
X13143000Y-16127476D02*
X13266809Y-16127476D01*
X13200143Y-16203667D01*
X13228714Y-16203667D01*
X13247762Y-16213190D01*
X13257286Y-16222714D01*
X13266809Y-16241762D01*
X13266809Y-16289381D01*
X13257286Y-16308428D01*
X13247762Y-16317952D01*
X13228714Y-16327476D01*
X13171571Y-16327476D01*
X13152524Y-16317952D01*
X13143000Y-16308428D01*
X13333476Y-16127476D02*
X13457286Y-16127476D01*
X13390619Y-16203667D01*
X13419190Y-16203667D01*
X13438238Y-16213190D01*
X13447762Y-16222714D01*
X13457286Y-16241762D01*
X13457286Y-16289381D01*
X13447762Y-16308428D01*
X13438238Y-16317952D01*
X13419190Y-16327476D01*
X13362048Y-16327476D01*
X13343000Y-16317952D01*
X13333476Y-16308428D01*
X13533476Y-16127476D02*
X13533476Y-16165571D01*
X13609667Y-16127476D02*
X13609667Y-16165571D01*
X13904905Y-16403667D02*
X13895381Y-16394143D01*
X13876333Y-16365571D01*
X13866809Y-16346524D01*
X13857286Y-16317952D01*
X13847762Y-16270333D01*
X13847762Y-16232238D01*
X13857286Y-16184619D01*
X13866809Y-16156048D01*
X13876333Y-16137000D01*
X13895381Y-16108428D01*
X13904905Y-16098905D01*
X14066809Y-16194143D02*
X14066809Y-16327476D01*
X14019190Y-16117952D02*
X13971571Y-16260809D01*
X14095381Y-16260809D01*
X14323952Y-16327476D02*
X14323952Y-16127476D01*
X14409667Y-16327476D02*
X14409667Y-16222714D01*
X14400143Y-16203667D01*
X14381095Y-16194143D01*
X14352524Y-16194143D01*
X14333476Y-16203667D01*
X14323952Y-16213190D01*
X14533476Y-16327476D02*
X14514428Y-16317952D01*
X14504905Y-16308428D01*
X14495381Y-16289381D01*
X14495381Y-16232238D01*
X14504905Y-16213190D01*
X14514428Y-16203667D01*
X14533476Y-16194143D01*
X14562048Y-16194143D01*
X14581095Y-16203667D01*
X14590619Y-16213190D01*
X14600143Y-16232238D01*
X14600143Y-16289381D01*
X14590619Y-16308428D01*
X14581095Y-16317952D01*
X14562048Y-16327476D01*
X14533476Y-16327476D01*
X14714428Y-16327476D02*
X14695381Y-16317952D01*
X14685857Y-16298905D01*
X14685857Y-16127476D01*
X14866809Y-16317952D02*
X14847762Y-16327476D01*
X14809667Y-16327476D01*
X14790619Y-16317952D01*
X14781095Y-16298905D01*
X14781095Y-16222714D01*
X14790619Y-16203667D01*
X14809667Y-16194143D01*
X14847762Y-16194143D01*
X14866809Y-16203667D01*
X14876333Y-16222714D01*
X14876333Y-16241762D01*
X14781095Y-16260809D01*
X14952524Y-16317952D02*
X14971571Y-16327476D01*
X15009667Y-16327476D01*
X15028714Y-16317952D01*
X15038238Y-16298905D01*
X15038238Y-16289381D01*
X15028714Y-16270333D01*
X15009667Y-16260809D01*
X14981095Y-16260809D01*
X14962048Y-16251286D01*
X14952524Y-16232238D01*
X14952524Y-16222714D01*
X14962048Y-16203667D01*
X14981095Y-16194143D01*
X15009667Y-16194143D01*
X15028714Y-16203667D01*
X15104905Y-16403667D02*
X15114428Y-16394143D01*
X15133476Y-16365571D01*
X15143000Y-16346524D01*
X15152524Y-16317952D01*
X15162048Y-16270333D01*
X15162048Y-16232238D01*
X15152524Y-16184619D01*
X15143000Y-16156048D01*
X15133476Y-16137000D01*
X15114428Y-16108428D01*
X15104905Y-16098905D01*
X10233000Y-16601000D02*
X10333000Y-16501000D01*
X10233000Y-16401000D01*
X10133000Y-16501000D01*
X10233000Y-16601000D01*
X10581095Y-16410524D02*
X10590619Y-16401000D01*
X10609667Y-16391476D01*
X10657286Y-16391476D01*
X10676333Y-16401000D01*
X10685857Y-16410524D01*
X10695381Y-16429571D01*
X10695381Y-16448619D01*
X10685857Y-16477190D01*
X10571571Y-16591476D01*
X10695381Y-16591476D01*
X10781095Y-16572428D02*
X10790619Y-16581952D01*
X10781095Y-16591476D01*
X10771571Y-16581952D01*
X10781095Y-16572428D01*
X10781095Y-16591476D01*
X10866810Y-16410524D02*
X10876333Y-16401000D01*
X10895381Y-16391476D01*
X10943000Y-16391476D01*
X10962048Y-16401000D01*
X10971571Y-16410524D01*
X10981095Y-16429571D01*
X10981095Y-16448619D01*
X10971571Y-16477190D01*
X10857286Y-16591476D01*
X10981095Y-16591476D01*
X11104905Y-16391476D02*
X11123952Y-16391476D01*
X11143000Y-16401000D01*
X11152524Y-16410524D01*
X11162048Y-16429571D01*
X11171571Y-16467667D01*
X11171571Y-16515286D01*
X11162048Y-16553381D01*
X11152524Y-16572428D01*
X11143000Y-16581952D01*
X11123952Y-16591476D01*
X11104905Y-16591476D01*
X11085857Y-16581952D01*
X11076333Y-16572428D01*
X11066810Y-16553381D01*
X11057286Y-16515286D01*
X11057286Y-16467667D01*
X11066810Y-16429571D01*
X11076333Y-16410524D01*
X11085857Y-16401000D01*
X11104905Y-16391476D01*
X11295381Y-16391476D02*
X11314428Y-16391476D01*
X11333476Y-16401000D01*
X11343000Y-16410524D01*
X11352524Y-16429571D01*
X11362048Y-16467667D01*
X11362048Y-16515286D01*
X11352524Y-16553381D01*
X11343000Y-16572428D01*
X11333476Y-16581952D01*
X11314428Y-16591476D01*
X11295381Y-16591476D01*
X11276333Y-16581952D01*
X11266809Y-16572428D01*
X11257286Y-16553381D01*
X11247762Y-16515286D01*
X11247762Y-16467667D01*
X11257286Y-16429571D01*
X11266809Y-16410524D01*
X11276333Y-16401000D01*
X11295381Y-16391476D01*
X11447762Y-16591476D02*
X11447762Y-16458143D01*
X11447762Y-16477190D02*
X11457286Y-16467667D01*
X11476333Y-16458143D01*
X11504905Y-16458143D01*
X11523952Y-16467667D01*
X11533476Y-16486714D01*
X11533476Y-16591476D01*
X11533476Y-16486714D02*
X11543000Y-16467667D01*
X11562048Y-16458143D01*
X11590619Y-16458143D01*
X11609667Y-16467667D01*
X11619190Y-16486714D01*
X11619190Y-16591476D01*
X11714428Y-16591476D02*
X11714428Y-16458143D01*
X11714428Y-16477190D02*
X11723952Y-16467667D01*
X11743000Y-16458143D01*
X11771571Y-16458143D01*
X11790619Y-16467667D01*
X11800143Y-16486714D01*
X11800143Y-16591476D01*
X11800143Y-16486714D02*
X11809667Y-16467667D01*
X11828714Y-16458143D01*
X11857286Y-16458143D01*
X11876333Y-16467667D01*
X11885857Y-16486714D01*
X11885857Y-16591476D01*
X12276333Y-16381952D02*
X12104905Y-16639095D01*
X12533476Y-16391476D02*
X12552524Y-16391476D01*
X12571571Y-16401000D01*
X12581095Y-16410524D01*
X12590619Y-16429571D01*
X12600143Y-16467667D01*
X12600143Y-16515286D01*
X12590619Y-16553381D01*
X12581095Y-16572428D01*
X12571571Y-16581952D01*
X12552524Y-16591476D01*
X12533476Y-16591476D01*
X12514428Y-16581952D01*
X12504905Y-16572428D01*
X12495381Y-16553381D01*
X12485857Y-16515286D01*
X12485857Y-16467667D01*
X12495381Y-16429571D01*
X12504905Y-16410524D01*
X12514428Y-16401000D01*
X12533476Y-16391476D01*
X12685857Y-16572428D02*
X12695381Y-16581952D01*
X12685857Y-16591476D01*
X12676333Y-16581952D01*
X12685857Y-16572428D01*
X12685857Y-16591476D01*
X12819190Y-16391476D02*
X12838238Y-16391476D01*
X12857286Y-16401000D01*
X12866809Y-16410524D01*
X12876333Y-16429571D01*
X12885857Y-16467667D01*
X12885857Y-16515286D01*
X12876333Y-16553381D01*
X12866809Y-16572428D01*
X12857286Y-16581952D01*
X12838238Y-16591476D01*
X12819190Y-16591476D01*
X12800143Y-16581952D01*
X12790619Y-16572428D01*
X12781095Y-16553381D01*
X12771571Y-16515286D01*
X12771571Y-16467667D01*
X12781095Y-16429571D01*
X12790619Y-16410524D01*
X12800143Y-16401000D01*
X12819190Y-16391476D01*
X13000143Y-16477190D02*
X12981095Y-16467667D01*
X12971571Y-16458143D01*
X12962048Y-16439095D01*
X12962048Y-16429571D01*
X12971571Y-16410524D01*
X12981095Y-16401000D01*
X13000143Y-16391476D01*
X13038238Y-16391476D01*
X13057286Y-16401000D01*
X13066809Y-16410524D01*
X13076333Y-16429571D01*
X13076333Y-16439095D01*
X13066809Y-16458143D01*
X13057286Y-16467667D01*
X13038238Y-16477190D01*
X13000143Y-16477190D01*
X12981095Y-16486714D01*
X12971571Y-16496238D01*
X12962048Y-16515286D01*
X12962048Y-16553381D01*
X12971571Y-16572428D01*
X12981095Y-16581952D01*
X13000143Y-16591476D01*
X13038238Y-16591476D01*
X13057286Y-16581952D01*
X13066809Y-16572428D01*
X13076333Y-16553381D01*
X13076333Y-16515286D01*
X13066809Y-16496238D01*
X13057286Y-16486714D01*
X13038238Y-16477190D01*
X13247762Y-16391476D02*
X13209667Y-16391476D01*
X13190619Y-16401000D01*
X13181095Y-16410524D01*
X13162048Y-16439095D01*
X13152524Y-16477190D01*
X13152524Y-16553381D01*
X13162048Y-16572428D01*
X13171571Y-16581952D01*
X13190619Y-16591476D01*
X13228714Y-16591476D01*
X13247762Y-16581952D01*
X13257286Y-16572428D01*
X13266809Y-16553381D01*
X13266809Y-16505762D01*
X13257286Y-16486714D01*
X13247762Y-16477190D01*
X13228714Y-16467667D01*
X13190619Y-16467667D01*
X13171571Y-16477190D01*
X13162048Y-16486714D01*
X13152524Y-16505762D01*
X13438238Y-16391476D02*
X13400143Y-16391476D01*
X13381095Y-16401000D01*
X13371571Y-16410524D01*
X13352524Y-16439095D01*
X13343000Y-16477190D01*
X13343000Y-16553381D01*
X13352524Y-16572428D01*
X13362048Y-16581952D01*
X13381095Y-16591476D01*
X13419190Y-16591476D01*
X13438238Y-16581952D01*
X13447762Y-16572428D01*
X13457286Y-16553381D01*
X13457286Y-16505762D01*
X13447762Y-16486714D01*
X13438238Y-16477190D01*
X13419190Y-16467667D01*
X13381095Y-16467667D01*
X13362048Y-16477190D01*
X13352524Y-16486714D01*
X13343000Y-16505762D01*
X13533476Y-16391476D02*
X13533476Y-16429571D01*
X13609667Y-16391476D02*
X13609667Y-16429571D01*
X13904905Y-16667667D02*
X13895381Y-16658143D01*
X13876333Y-16629571D01*
X13866809Y-16610524D01*
X13857286Y-16581952D01*
X13847762Y-16534333D01*
X13847762Y-16496238D01*
X13857286Y-16448619D01*
X13866809Y-16420048D01*
X13876333Y-16401000D01*
X13895381Y-16372428D01*
X13904905Y-16362905D01*
X14066809Y-16458143D02*
X14066809Y-16591476D01*
X14019190Y-16381952D02*
X13971571Y-16524809D01*
X14095381Y-16524809D01*
X14323952Y-16591476D02*
X14323952Y-16391476D01*
X14409667Y-16591476D02*
X14409667Y-16486714D01*
X14400143Y-16467667D01*
X14381095Y-16458143D01*
X14352524Y-16458143D01*
X14333476Y-16467667D01*
X14323952Y-16477190D01*
X14533476Y-16591476D02*
X14514428Y-16581952D01*
X14504905Y-16572428D01*
X14495381Y-16553381D01*
X14495381Y-16496238D01*
X14504905Y-16477190D01*
X14514428Y-16467667D01*
X14533476Y-16458143D01*
X14562048Y-16458143D01*
X14581095Y-16467667D01*
X14590619Y-16477190D01*
X14600143Y-16496238D01*
X14600143Y-16553381D01*
X14590619Y-16572428D01*
X14581095Y-16581952D01*
X14562048Y-16591476D01*
X14533476Y-16591476D01*
X14714428Y-16591476D02*
X14695381Y-16581952D01*
X14685857Y-16562905D01*
X14685857Y-16391476D01*
X14866809Y-16581952D02*
X14847762Y-16591476D01*
X14809667Y-16591476D01*
X14790619Y-16581952D01*
X14781095Y-16562905D01*
X14781095Y-16486714D01*
X14790619Y-16467667D01*
X14809667Y-16458143D01*
X14847762Y-16458143D01*
X14866809Y-16467667D01*
X14876333Y-16486714D01*
X14876333Y-16505762D01*
X14781095Y-16524809D01*
X14952524Y-16581952D02*
X14971571Y-16591476D01*
X15009667Y-16591476D01*
X15028714Y-16581952D01*
X15038238Y-16562905D01*
X15038238Y-16553381D01*
X15028714Y-16534333D01*
X15009667Y-16524809D01*
X14981095Y-16524809D01*
X14962048Y-16515286D01*
X14952524Y-16496238D01*
X14952524Y-16486714D01*
X14962048Y-16467667D01*
X14981095Y-16458143D01*
X15009667Y-16458143D01*
X15028714Y-16467667D01*
X15104905Y-16667667D02*
X15114428Y-16658143D01*
X15133476Y-16629571D01*
X15143000Y-16610524D01*
X15152524Y-16581952D01*
X15162048Y-16534333D01*
X15162048Y-16496238D01*
X15152524Y-16448619D01*
X15143000Y-16420048D01*
X15133476Y-16401000D01*
X15114428Y-16372428D01*
X15104905Y-16362905D01*
X10133000Y-16721000D02*
X10333000Y-16921000D01*
X10333000Y-16721000D02*
X10133000Y-16921000D01*
X10333000Y-16821000D02*
G75*
G03*
X10333000Y-16821000I-100000J0D01*
G01*
X10571571Y-16711476D02*
X10695381Y-16711476D01*
X10628714Y-16787667D01*
X10657286Y-16787667D01*
X10676333Y-16797190D01*
X10685857Y-16806714D01*
X10695381Y-16825762D01*
X10695381Y-16873381D01*
X10685857Y-16892429D01*
X10676333Y-16901952D01*
X10657286Y-16911476D01*
X10600143Y-16911476D01*
X10581095Y-16901952D01*
X10571571Y-16892429D01*
X10781095Y-16892429D02*
X10790619Y-16901952D01*
X10781095Y-16911476D01*
X10771571Y-16901952D01*
X10781095Y-16892429D01*
X10781095Y-16911476D01*
X10971571Y-16711476D02*
X10876333Y-16711476D01*
X10866810Y-16806714D01*
X10876333Y-16797190D01*
X10895381Y-16787667D01*
X10943000Y-16787667D01*
X10962048Y-16797190D01*
X10971571Y-16806714D01*
X10981095Y-16825762D01*
X10981095Y-16873381D01*
X10971571Y-16892429D01*
X10962048Y-16901952D01*
X10943000Y-16911476D01*
X10895381Y-16911476D01*
X10876333Y-16901952D01*
X10866810Y-16892429D01*
X11104905Y-16711476D02*
X11123952Y-16711476D01*
X11143000Y-16721000D01*
X11152524Y-16730524D01*
X11162048Y-16749571D01*
X11171571Y-16787667D01*
X11171571Y-16835286D01*
X11162048Y-16873381D01*
X11152524Y-16892429D01*
X11143000Y-16901952D01*
X11123952Y-16911476D01*
X11104905Y-16911476D01*
X11085857Y-16901952D01*
X11076333Y-16892429D01*
X11066810Y-16873381D01*
X11057286Y-16835286D01*
X11057286Y-16787667D01*
X11066810Y-16749571D01*
X11076333Y-16730524D01*
X11085857Y-16721000D01*
X11104905Y-16711476D01*
X11295381Y-16711476D02*
X11314428Y-16711476D01*
X11333476Y-16721000D01*
X11343000Y-16730524D01*
X11352524Y-16749571D01*
X11362048Y-16787667D01*
X11362048Y-16835286D01*
X11352524Y-16873381D01*
X11343000Y-16892429D01*
X11333476Y-16901952D01*
X11314428Y-16911476D01*
X11295381Y-16911476D01*
X11276333Y-16901952D01*
X11266809Y-16892429D01*
X11257286Y-16873381D01*
X11247762Y-16835286D01*
X11247762Y-16787667D01*
X11257286Y-16749571D01*
X11266809Y-16730524D01*
X11276333Y-16721000D01*
X11295381Y-16711476D01*
X11447762Y-16911476D02*
X11447762Y-16778143D01*
X11447762Y-16797190D02*
X11457286Y-16787667D01*
X11476333Y-16778143D01*
X11504905Y-16778143D01*
X11523952Y-16787667D01*
X11533476Y-16806714D01*
X11533476Y-16911476D01*
X11533476Y-16806714D02*
X11543000Y-16787667D01*
X11562048Y-16778143D01*
X11590619Y-16778143D01*
X11609667Y-16787667D01*
X11619190Y-16806714D01*
X11619190Y-16911476D01*
X11714428Y-16911476D02*
X11714428Y-16778143D01*
X11714428Y-16797190D02*
X11723952Y-16787667D01*
X11743000Y-16778143D01*
X11771571Y-16778143D01*
X11790619Y-16787667D01*
X11800143Y-16806714D01*
X11800143Y-16911476D01*
X11800143Y-16806714D02*
X11809667Y-16787667D01*
X11828714Y-16778143D01*
X11857286Y-16778143D01*
X11876333Y-16787667D01*
X11885857Y-16806714D01*
X11885857Y-16911476D01*
X12276333Y-16701952D02*
X12104905Y-16959095D01*
X12533476Y-16711476D02*
X12552524Y-16711476D01*
X12571571Y-16721000D01*
X12581095Y-16730524D01*
X12590619Y-16749571D01*
X12600143Y-16787667D01*
X12600143Y-16835286D01*
X12590619Y-16873381D01*
X12581095Y-16892429D01*
X12571571Y-16901952D01*
X12552524Y-16911476D01*
X12533476Y-16911476D01*
X12514428Y-16901952D01*
X12504905Y-16892429D01*
X12495381Y-16873381D01*
X12485857Y-16835286D01*
X12485857Y-16787667D01*
X12495381Y-16749571D01*
X12504905Y-16730524D01*
X12514428Y-16721000D01*
X12533476Y-16711476D01*
X12685857Y-16892429D02*
X12695381Y-16901952D01*
X12685857Y-16911476D01*
X12676333Y-16901952D01*
X12685857Y-16892429D01*
X12685857Y-16911476D01*
X12885857Y-16911476D02*
X12771571Y-16911476D01*
X12828714Y-16911476D02*
X12828714Y-16711476D01*
X12809667Y-16740048D01*
X12790619Y-16759095D01*
X12771571Y-16768619D01*
X12952524Y-16711476D02*
X13076333Y-16711476D01*
X13009667Y-16787667D01*
X13038238Y-16787667D01*
X13057286Y-16797190D01*
X13066809Y-16806714D01*
X13076333Y-16825762D01*
X13076333Y-16873381D01*
X13066809Y-16892429D01*
X13057286Y-16901952D01*
X13038238Y-16911476D01*
X12981095Y-16911476D01*
X12962048Y-16901952D01*
X12952524Y-16892429D01*
X13143000Y-16711476D02*
X13276333Y-16711476D01*
X13190619Y-16911476D01*
X13381095Y-16797190D02*
X13362048Y-16787667D01*
X13352524Y-16778143D01*
X13343000Y-16759095D01*
X13343000Y-16749571D01*
X13352524Y-16730524D01*
X13362048Y-16721000D01*
X13381095Y-16711476D01*
X13419190Y-16711476D01*
X13438238Y-16721000D01*
X13447762Y-16730524D01*
X13457286Y-16749571D01*
X13457286Y-16759095D01*
X13447762Y-16778143D01*
X13438238Y-16787667D01*
X13419190Y-16797190D01*
X13381095Y-16797190D01*
X13362048Y-16806714D01*
X13352524Y-16816238D01*
X13343000Y-16835286D01*
X13343000Y-16873381D01*
X13352524Y-16892429D01*
X13362048Y-16901952D01*
X13381095Y-16911476D01*
X13419190Y-16911476D01*
X13438238Y-16901952D01*
X13447762Y-16892429D01*
X13457286Y-16873381D01*
X13457286Y-16835286D01*
X13447762Y-16816238D01*
X13438238Y-16806714D01*
X13419190Y-16797190D01*
X13533476Y-16711476D02*
X13533476Y-16749571D01*
X13609667Y-16711476D02*
X13609667Y-16749571D01*
X13904905Y-16987667D02*
X13895381Y-16978143D01*
X13876333Y-16949571D01*
X13866809Y-16930524D01*
X13857286Y-16901952D01*
X13847762Y-16854333D01*
X13847762Y-16816238D01*
X13857286Y-16768619D01*
X13866809Y-16740048D01*
X13876333Y-16721000D01*
X13895381Y-16692428D01*
X13904905Y-16682905D01*
X14066809Y-16778143D02*
X14066809Y-16911476D01*
X14019190Y-16701952D02*
X13971571Y-16844810D01*
X14095381Y-16844810D01*
X14323952Y-16911476D02*
X14323952Y-16711476D01*
X14409667Y-16911476D02*
X14409667Y-16806714D01*
X14400143Y-16787667D01*
X14381095Y-16778143D01*
X14352524Y-16778143D01*
X14333476Y-16787667D01*
X14323952Y-16797190D01*
X14533476Y-16911476D02*
X14514428Y-16901952D01*
X14504905Y-16892429D01*
X14495381Y-16873381D01*
X14495381Y-16816238D01*
X14504905Y-16797190D01*
X14514428Y-16787667D01*
X14533476Y-16778143D01*
X14562048Y-16778143D01*
X14581095Y-16787667D01*
X14590619Y-16797190D01*
X14600143Y-16816238D01*
X14600143Y-16873381D01*
X14590619Y-16892429D01*
X14581095Y-16901952D01*
X14562048Y-16911476D01*
X14533476Y-16911476D01*
X14714428Y-16911476D02*
X14695381Y-16901952D01*
X14685857Y-16882905D01*
X14685857Y-16711476D01*
X14866809Y-16901952D02*
X14847762Y-16911476D01*
X14809667Y-16911476D01*
X14790619Y-16901952D01*
X14781095Y-16882905D01*
X14781095Y-16806714D01*
X14790619Y-16787667D01*
X14809667Y-16778143D01*
X14847762Y-16778143D01*
X14866809Y-16787667D01*
X14876333Y-16806714D01*
X14876333Y-16825762D01*
X14781095Y-16844810D01*
X14952524Y-16901952D02*
X14971571Y-16911476D01*
X15009667Y-16911476D01*
X15028714Y-16901952D01*
X15038238Y-16882905D01*
X15038238Y-16873381D01*
X15028714Y-16854333D01*
X15009667Y-16844810D01*
X14981095Y-16844810D01*
X14962048Y-16835286D01*
X14952524Y-16816238D01*
X14952524Y-16806714D01*
X14962048Y-16787667D01*
X14981095Y-16778143D01*
X15009667Y-16778143D01*
X15028714Y-16787667D01*
X15104905Y-16987667D02*
X15114428Y-16978143D01*
X15133476Y-16949571D01*
X15143000Y-16930524D01*
X15152524Y-16901952D01*
X15162048Y-16854333D01*
X15162048Y-16816238D01*
X15152524Y-16768619D01*
X15143000Y-16740048D01*
X15133476Y-16721000D01*
X15114428Y-16692428D01*
X15104905Y-16682905D01*
M02*
